<?xml version="1.0" encoding="UTF-8"?>
<!DOCTYPE svg PUBLIC "-//W3C//DTD SVG 1.1//EN" "http://www.w3.org/Graphics/SVG/1.1/DTD/svg11.dtd">
<svg xmlns="http://www.w3.org/2000/svg" version="1.1" width="512px" height="512px" style="shape-rendering:geometricPrecision; text-rendering:geometricPrecision; image-rendering:optimizeQuality; fill-rule:evenodd; clip-rule:evenodd" xmlns:xlink="http://www.w3.org/1999/xlink">
<g><path style="opacity:0.966" fill="#000000" d="M 254.5,-0.5 C 256.167,-0.5 257.833,-0.5 259.5,-0.5C 259.828,23.7414 259.494,47.9081 258.5,72C 329.627,75.0656 387.294,104.232 431.5,159.5C 473.609,216.762 485.942,281.095 468.5,352.5C 441.189,435.289 384.855,487.456 299.5,509C 292.019,509.858 284.686,510.692 277.5,511.5C 263.167,511.5 248.833,511.5 234.5,511.5C 196.033,508.294 161.033,495.46 129.5,473C 87.0302,441.952 58.1969,401.452 43,351.5C 38.165,331.821 35.9983,311.821 36.5,291.5C 57.5,291.5 78.5,291.5 99.5,291.5C 101.884,353.967 130.051,400.634 184,431.5C 205.276,441.744 227.776,446.911 251.5,447C 312.151,448.07 358.484,422.904 390.5,371.5C 419.927,316.273 418.927,261.94 387.5,208.5C 356.361,163.819 313.361,139.986 258.5,137C 259.4,146.942 259.734,156.776 259.5,166.5C 258.975,167.192 258.308,167.692 257.5,168C 259.967,170.043 259.967,172.21 257.5,174.5C 258.489,175.468 259.156,176.635 259.5,178C 258.397,179.889 258.397,181.723 259.5,183.5C 259.471,185.029 258.804,186.196 257.5,187C 260.091,190.369 260.091,193.703 257.5,197C 258.428,197.388 259.095,198.055 259.5,199C 258.167,200.333 258.167,201.667 259.5,203C 259.095,203.945 258.428,204.612 257.5,205C 260.156,207.229 259.823,209.062 256.5,210.5C 205.294,176.228 155.128,141.561 106,106.5C 105.219,105.056 105.386,103.723 106.5,102.5C 156.409,68.135 205.743,33.8016 254.5,-0.5 Z"/></g>
</svg>
