<?xml version="1.0" encoding="UTF-8"?>
<!DOCTYPE svg PUBLIC "-//W3C//DTD SVG 1.1//EN" "http://www.w3.org/Graphics/SVG/1.1/DTD/svg11.dtd">
<svg xmlns="http://www.w3.org/2000/svg" version="1.1" width="512px" height="512px" style="shape-rendering:geometricPrecision; text-rendering:geometricPrecision; image-rendering:optimizeQuality; fill-rule:evenodd; clip-rule:evenodd" xmlns:xlink="http://www.w3.org/1999/xlink">
<g><path style="opacity:0.992" fill="#000000" d="M 233.5,-0.5 C 248.167,-0.5 262.833,-0.5 277.5,-0.5C 377.805,11.9821 449.305,63.9821 492,155.5C 502.297,180.687 508.797,206.687 511.5,233.5C 511.5,248.167 511.5,262.833 511.5,277.5C 499.018,377.805 447.018,449.305 355.5,492C 330.313,502.297 304.313,508.797 277.5,511.5C 262.833,511.5 248.167,511.5 233.5,511.5C 133.195,499.018 61.6947,447.018 19,355.5C 8.70332,330.313 2.20332,304.313 -0.5,277.5C -0.5,262.833 -0.5,248.167 -0.5,233.5C 11.9821,133.195 63.9821,61.6947 155.5,19C 180.687,8.70332 206.687,2.20332 233.5,-0.5 Z M 178.5,149.5 C 191.504,149.333 204.504,149.5 217.5,150C 228.456,153.049 234.956,160.216 237,171.5C 237.667,227.167 237.667,282.833 237,338.5C 235.396,350.104 228.896,357.271 217.5,360C 203.111,360.93 188.778,360.597 174.5,359C 167.268,356.101 162.435,350.934 160,343.5C 158.358,286.531 158.024,229.531 159,172.5C 160.853,160.743 167.353,153.077 178.5,149.5 Z M 293.5,149.5 C 305.838,149.333 318.171,149.5 330.5,150C 340.601,152.436 347.101,158.603 350,168.5C 350.667,226.167 350.667,283.833 350,341.5C 347.202,350.965 341.035,357.132 331.5,360C 318.5,360.667 305.5,360.667 292.5,360C 281.533,356.907 275.033,349.74 273,338.5C 272.333,282.833 272.333,227.167 273,171.5C 275.231,159.772 282.065,152.438 293.5,149.5 Z"/></g>
</svg>
