<?xml version="1.0" encoding="UTF-8"?>
<!DOCTYPE svg PUBLIC "-//W3C//DTD SVG 1.1//EN" "http://www.w3.org/Graphics/SVG/1.1/DTD/svg11.dtd">
<svg xmlns="http://www.w3.org/2000/svg" version="1.1" width="512px" height="512px" style="shape-rendering:geometricPrecision; text-rendering:geometricPrecision; image-rendering:optimizeQuality; fill-rule:evenodd; clip-rule:evenodd" xmlns:xlink="http://www.w3.org/1999/xlink">
<g><path style="opacity:0.987" fill="#000000" d="M 242.5,-0.5 C 251.167,-0.5 259.833,-0.5 268.5,-0.5C 365.324,7.47311 437.157,53.8064 484,138.5C 499.91,171.146 509.076,205.479 511.5,241.5C 511.5,250.833 511.5,260.167 511.5,269.5C 506.202,339.269 478.202,398.102 427.5,446C 381.748,485.526 328.748,507.359 268.5,511.5C 259.833,511.5 251.167,511.5 242.5,511.5C 151.915,504.025 82.4149,462.025 34,385.5C 24.9799,368.776 17.3132,351.443 11,333.5C 4.45869,312.58 0.625361,291.247 -0.5,269.5C -0.5,260.167 -0.5,250.833 -0.5,241.5C 7.65382,146.517 53.1538,75.5169 136,28.5C 169.563,11.4027 205.063,1.73605 242.5,-0.5 Z M 220.5,163.5 C 229.87,164.436 239.037,166.436 248,169.5C 275.408,184.574 302.575,200.074 329.5,216C 362.833,242.333 362.833,268.667 329.5,295C 302.575,310.926 275.408,326.426 248,341.5C 240.327,344.19 232.493,346.19 224.5,347.5C 200.922,344.422 187.422,331.089 184,307.5C 183.333,272.833 183.333,238.167 184,203.5C 186.016,188.021 193.516,176.188 206.5,168C 211.343,166.602 216.01,165.102 220.5,163.5 Z"/></g>
</svg>
