<?xml version="1.0" standalone="no"?>
<!DOCTYPE svg PUBLIC "-//W3C//DTD SVG 20010904//EN"
 "http://www.w3.org/TR/2001/REC-SVG-20010904/DTD/svg10.dtd">
<svg version="1.0" xmlns="http://www.w3.org/2000/svg"
 width="512.000000pt" height="512.000000pt" viewBox="0 0 512.000000 512.000000"
 preserveAspectRatio="xMidYMid meet">

<g transform="translate(0.000000,512.000000) scale(0.100000,-0.100000)"
fill="#000000" stroke="none">
<path d="M3473 5004 l-442 -114 -42 45 c-57 62 -133 97 -222 103 -63 4 -98 -3
-277 -48 -113 -29 -227 -64 -254 -78 -82 -44 -154 -143 -171 -235 -4 -21 -14
-39 -24 -41 -9 -3 -227 -60 -486 -126 -259 -67 -489 -128 -513 -137 -96 -36
-172 -149 -172 -259 0 -89 24 -150 84 -210 58 -57 121 -84 199 -84 33 0 339
74 871 211 452 116 1091 281 1421 366 384 98 620 163 655 181 137 69 190 238
119 380 -17 34 -47 75 -67 92 -49 40 -131 70 -190 69 -26 0 -246 -52 -489
-115z"/>
<path d="M1295 3590 c-162 -23 -289 -114 -357 -256 -61 -129 -65 -30 75 -1536
70 -750 132 -1389 138 -1422 16 -91 55 -163 129 -236 70 -71 139 -110 228
-129 38 -8 354 -11 1085 -11 1137 0 1088 -2 1209 62 115 61 209 197 229 330 5
35 57 668 115 1408 117 1480 115 1409 56 1533 -54 115 -148 197 -275 241 l-62
21 -1255 1 c-690 1 -1282 -2 -1315 -6z m499 -472 c54 -16 128 -90 144 -144 17
-57 18 -2178 1 -2235 -26 -86 -126 -159 -219 -159 -87 0 -182 64 -217 147 -11
27 -13 231 -13 1130 0 1048 1 1100 19 1138 50 107 167 158 285 123z m809 1
c49 -13 115 -73 138 -124 18 -38 19 -97 19 -1140 0 -1240 6 -1144 -79 -1216
-117 -101 -292 -64 -357 75 l-24 51 0 1084 c0 825 3 1094 12 1125 15 50 89
127 138 143 46 14 106 15 153 2z m832 -8 c49 -22 91 -63 116 -113 18 -36 19
-76 19 -1140 0 -1244 6 -1147 -79 -1220 -109 -93 -270 -67 -346 56 l-30 49 0
1111 0 1111 22 40 c27 51 57 79 113 104 56 26 132 27 185 2z"/>
</g>
</svg>
