<?xml version="1.0" standalone="no"?>
<!DOCTYPE svg PUBLIC "-//W3C//DTD SVG 20010904//EN"
 "http://www.w3.org/TR/2001/REC-SVG-20010904/DTD/svg10.dtd">
<svg version="1.0" xmlns="http://www.w3.org/2000/svg"
 width="512.000000pt" height="512.000000pt" viewBox="0 0 512.000000 512.000000"
 preserveAspectRatio="xMidYMid meet">

<g transform="translate(0.000000,512.000000) scale(0.100000,-0.100000)"
fill="#000000" stroke="none">
<path d="M4150 5097 c-19 -12 -637 -624 -1372 -1359 l-1338 -1338 0 -480 0
-480 480 0 480 0 1338 1338 c736 736 1348 1354 1360 1374 26 42 30 124 8 166
-22 42 -767 780 -799 792 -48 17 -118 12 -157 -13z m247 -699 c84 -84 153
-156 153 -160 0 -5 -519 -527 -1154 -1162 l-1154 -1154 -161 -1 -162 -2 2 162
1 161 1154 1154 c635 635 1157 1154 1161 1154 4 0 76 -69 160 -152z"/>
<path d="M355 4800 c-111 -6 -137 -11 -181 -33 -65 -33 -125 -101 -152 -173
l-22 -56 0 -2145 0 -2144 24 -52 c34 -74 118 -152 189 -177 56 -20 81 -20
2194 -20 l2138 1 55 24 c106 45 166 117 191 230 20 88 20 2191 1 2280 -39 173
-259 242 -390 122 -82 -76 -76 13 -80 -1145 l-4 -1032 -1916 2 -1917 3 -3
1917 -2 1916 1032 4 c1158 4 1069 -2 1144 80 66 72 80 182 33 268 -10 19 -21
43 -25 53 -3 9 -11 17 -17 17 -6 0 -20 9 -31 19 -47 42 -74 44 -1126 46 -553
2 -1063 -1 -1135 -5z"/>
</g>
</svg>
