<?xml version="1.0" standalone="no"?>
<!DOCTYPE svg PUBLIC "-//W3C//DTD SVG 20010904//EN"
 "http://www.w3.org/TR/2001/REC-SVG-20010904/DTD/svg10.dtd">
<svg version="1.0" xmlns="http://www.w3.org/2000/svg"
 width="512.000000pt" height="512.000000pt" viewBox="0 0 512.000000 512.000000"
 preserveAspectRatio="xMidYMid meet">

<g transform="translate(0.000000,512.000000) scale(0.100000,-0.100000)"
fill="#000000" stroke="none">
<path d="M361 5109 c-172 -34 -318 -182 -351 -358 -14 -74 -14 -3708 0 -3782
34 -180 179 -325 359 -359 34 -6 382 -10 950 -10 l896 0 429 -286 c237 -158
445 -293 463 -300 18 -8 44 -14 59 -14 41 0 99 38 123 80 20 36 21 52 21 278
l0 239 123 6 c136 6 176 16 260 65 111 64 194 180 217 301 6 34 10 584 10
1533 0 1630 3 1555 -62 1668 -22 40 -141 164 -421 440 -214 212 -411 402 -438
422 -27 20 -75 47 -107 60 l-57 23 -1215 2 c-668 0 -1235 -3 -1259 -8z m2349
-679 c0 -372 1 -393 20 -430 13 -26 34 -47 60 -60 37 -19 58 -20 435 -20 l395
0 -2 -1459 c-3 -1457 -3 -1460 -24 -1487 -49 -67 -57 -69 -277 -74 -229 -6
-252 -12 -287 -80 -18 -35 -20 -59 -20 -215 l0 -175 -332 221 c-182 122 -346
228 -364 235 -28 12 -197 14 -964 14 -913 0 -932 0 -970 20 -26 13 -47 34 -60
60 -20 39 -20 55 -20 1880 0 1824 0 1841 20 1880 12 24 35 47 58 59 36 20 62
20 1185 21 l1147 0 0 -390z m500 -15 l195 -195 -198 0 -197 0 0 195 c0 107 1
195 3 195 1 0 90 -88 197 -195z"/>
<path d="M1588 3899 c-66 -34 -78 -74 -78 -247 l0 -150 -28 -11 c-15 -6 -48
-25 -72 -41 -42 -28 -46 -29 -68 -14 -93 61 -240 134 -270 134 -40 0 -102 -32
-122 -63 -71 -111 -321 -558 -326 -583 -8 -42 10 -95 43 -128 14 -14 74 -53
134 -87 l109 -61 0 -88 0 -88 -109 -61 c-60 -34 -120 -73 -134 -87 -33 -33
-51 -86 -43 -128 5 -25 255 -472 326 -583 20 -31 82 -63 122 -63 30 0 177 73
270 134 22 15 26 14 68 -14 24 -16 57 -35 72 -41 l28 -11 0 -150 c0 -175 12
-213 80 -248 37 -19 58 -20 370 -20 312 0 333 1 370 20 68 35 80 73 80 248 l0
150 28 11 c15 6 48 25 72 41 42 28 46 29 68 14 93 -61 240 -134 270 -134 40 0
102 32 122 63 71 111 321 558 326 583 8 42 -10 95 -43 128 -14 14 -74 53 -134
87 l-109 61 0 88 0 88 109 61 c60 34 120 73 134 87 33 33 51 86 43 128 -5 25
-255 472 -326 583 -20 31 -82 63 -122 63 -30 0 -177 -73 -270 -134 -22 -15
-26 -14 -68 14 -24 16 -57 35 -72 41 l-28 11 0 150 c0 175 -12 213 -80 248
-37 19 -58 20 -372 20 -312 -1 -335 -2 -370 -21z m524 -413 c4 -168 7 -172
144 -241 55 -27 128 -71 162 -97 67 -51 120 -66 167 -48 17 6 69 34 116 61 48
27 89 49 91 49 6 0 148 -243 148 -253 0 -3 -40 -28 -89 -56 -149 -86 -162
-108 -148 -252 5 -51 5 -127 0 -178 -14 -144 -1 -166 148 -252 49 -28 89 -53
89 -56 0 -10 -142 -253 -148 -253 -2 0 -43 22 -91 49 -47 27 -99 55 -116 61
-46 18 -100 3 -166 -47 -33 -25 -106 -69 -162 -97 -139 -70 -141 -74 -145
-242 l-4 -134 -148 0 -148 0 -4 134 c-4 168 -6 172 -145 242 -56 28 -129 72
-162 97 -66 50 -120 65 -166 47 -17 -6 -69 -34 -116 -61 -48 -27 -89 -49 -91
-49 -6 0 -148 243 -148 253 0 3 40 28 89 56 149 86 162 108 148 252 -5 51 -5
127 0 178 14 144 1 166 -148 252 -49 28 -89 53 -89 56 0 10 142 253 148 253 2
0 43 -22 91 -49 47 -27 99 -55 116 -61 46 -18 100 -3 166 47 33 25 106 69 162
97 139 70 141 74 145 242 l4 134 148 0 148 0 4 -134z"/>
<path d="M1871 2999 c-227 -44 -391 -278 -353 -505 32 -196 180 -344 376 -376
289 -48 556 219 508 508 -42 255 -281 422 -531 373z m159 -309 c45 -23 80 -80
80 -130 0 -76 -74 -150 -150 -150 -50 0 -107 35 -130 80 -25 50 -25 90 0 140
37 73 124 99 200 60z"/>
<path d="M4581 4809 c-172 -34 -318 -182 -351 -358 -6 -35 -10 -587 -10 -1590
l0 -1536 156 -468 c170 -509 177 -525 255 -548 30 -9 48 -9 78 0 78 23 86 39
255 548 l156 469 0 1536 c0 1002 -4 1554 -10 1589 -47 244 -285 406 -529 358z
m159 -309 c26 -13 47 -34 60 -60 18 -36 20 -58 20 -280 l0 -240 -150 0 -150 0
0 240 c0 222 2 244 20 280 37 73 124 99 200 60z m80 -1940 l0 -1060 -150 0
-150 0 0 1060 0 1060 150 0 150 0 0 -1060z m-63 -1372 c-2 -7 -22 -66 -43
-130 -21 -65 -41 -118 -44 -118 -3 0 -23 53 -44 118 -21 64 -41 123 -43 130
-4 9 17 12 87 12 70 0 91 -3 87 -12z"/>
</g>
</svg>
