<?xml version="1.0" encoding="UTF-8"?>
<!DOCTYPE svg PUBLIC "-//W3C//DTD SVG 1.1//EN" "http://www.w3.org/Graphics/SVG/1.1/DTD/svg11.dtd">
<svg xmlns="http://www.w3.org/2000/svg" version="1.1" width="774px" height="758px" style="shape-rendering:geometricPrecision; text-rendering:geometricPrecision; image-rendering:optimizeQuality; fill-rule:evenodd; clip-rule:evenodd" xmlns:xlink="http://www.w3.org/1999/xlink">
<g><path style="opacity:0.985" fill="#000000" d="M 335.5,-0.5 C 353.167,-0.5 370.833,-0.5 388.5,-0.5C 518.215,13.4046 615.715,76.7379 681,189.5C 703.857,232.055 717.69,277.555 722.5,326C 722.167,327.5 721.833,329 721.5,330.5C 720.914,330.291 720.414,329.957 720,329.5C 719.751,330.624 719.251,331.624 718.5,332.5C 648.173,278.94 570.173,263.774 484.5,287C 408.081,311.946 353.581,361.112 321,434.5C 293.673,502.15 293.673,569.816 321,637.5C 334.554,668.216 352.721,695.883 375.5,720.5C 375.291,721.086 374.957,721.586 374.5,722C 262.805,725.674 168.972,686.841 93,605.5C 37.4945,543.467 6.32781,470.8 -0.5,387.5C -0.5,370.167 -0.5,352.833 -0.5,335.5C 11.5842,215.468 67.5842,121.968 167.5,55C 218.969,23.0106 274.969,4.51058 335.5,-0.5 Z M 344.5,16.5 C 379.69,15.9186 414.356,19.7519 448.5,28C 449.833,28.6667 449.833,29.3333 448.5,30C 441.263,33.5676 434.263,37.5676 427.5,42C 419.5,48.3333 411.5,54.6667 403.5,61C 334.441,56.2407 269.775,70.4074 209.5,103.5C 191.596,97.8747 173.929,91.7081 156.5,85C 196.513,54.8656 241.18,34.5322 290.5,24C 308.533,20.6857 326.533,18.1857 344.5,16.5 Z M 348.5,84.5 C 363.837,84.3334 379.17,84.5001 394.5,85C 398.219,85.3884 401.886,86.0551 405.5,87C 433.333,114.833 461.167,142.667 489,170.5C 489.667,172.167 489.667,173.833 489,175.5C 477.099,208.383 464.932,241.049 452.5,273.5C 408.236,292.245 370.569,320.078 339.5,357C 320.527,360.83 301.527,364.663 282.5,368.5C 280.157,367.523 277.99,366.19 276,364.5C 237.485,324.266 198.818,284.266 160,244.5C 159.362,243.391 158.862,242.225 158.5,241C 166.174,200.939 182.508,164.939 207.5,133C 250.83,106.168 297.83,90.001 348.5,84.5 Z M 574.5,91.5 C 594.393,106.223 612.226,123.223 628,142.5C 656.109,176.772 676.609,215.106 689.5,257.5C 668.567,222.068 642.4,191.068 611,164.5C 604.249,137.387 592.083,113.053 574.5,91.5 Z M 511.5,181.5 C 540.864,182.791 570.197,184.624 599.5,187C 629.762,211.917 654.095,241.583 672.5,276C 660.869,272.233 649.203,268.233 637.5,264C 585.98,248.987 534.48,248.82 483,263.5C 492.472,236.344 501.972,209.011 511.5,181.5 Z M 45.5,225.5 C 45.0702,244.051 45.7369,262.551 47.5,281C 29.664,325.854 22.4973,372.354 26,420.5C 23.4417,417.178 21.4417,413.511 20,409.5C 12.2376,350.116 18.9043,292.45 40,236.5C 41.5716,232.563 43.4049,228.896 45.5,225.5 Z M 140.5,260.5 C 141.675,260.281 142.675,260.614 143.5,261.5C 182.538,302.703 222.038,343.37 262,383.5C 258.217,429.177 254.05,474.844 249.5,520.5C 210.488,532.961 171.655,545.961 133,559.5C 104.62,537.111 80.2864,510.778 60,480.5C 44.2563,419.875 46.2563,359.875 66,300.5C 68.8173,297.353 71.984,294.52 75.5,292C 95.9533,278.772 117.62,268.272 140.5,260.5 Z M 258.5,541.5 C 265.002,542.829 271.168,545.163 277,548.5C 279.642,602.926 296.142,652.593 326.5,697.5C 325.975,698.192 325.308,698.692 324.5,699C 315.144,699.516 305.811,699.85 296.5,700C 240.533,688.758 190.366,665.591 146,630.5C 145.076,614.811 143.91,599.145 142.5,583.5C 142.833,582.5 143.167,581.5 143.5,580.5C 182.143,568.064 220.476,555.064 258.5,541.5 Z"/></g>
<g><path style="opacity:0.996" fill="#000000" d="M 773.5,514.5 C 773.5,529.5 773.5,544.5 773.5,559.5C 762.53,635.283 724.196,692.783 658.5,732C 633.044,745.43 606.044,753.93 577.5,757.5C 562.5,757.5 547.5,757.5 532.5,757.5C 459.669,747.479 404.169,711.146 366,648.5C 335.643,592.619 328.976,533.952 346,472.5C 365.963,409.414 405.796,363.581 465.5,335C 525.146,309.028 584.812,309.028 644.5,335C 718.374,371.905 760.874,431.405 772,513.5C 772.383,514.056 772.883,514.389 773.5,514.5 Z M 613.5,384.5 C 622.289,383.19 630.289,385.023 637.5,390C 658.723,410.888 679.556,432.055 700,453.5C 706.807,463.958 707.14,474.624 701,485.5C 644.835,543.332 588.335,600.832 531.5,658C 529.112,659.861 526.446,661.194 523.5,662C 500.167,662.667 476.833,662.667 453.5,662C 440.089,657.247 432.589,647.747 431,633.5C 430.333,613.5 430.333,593.5 431,573.5C 431.534,569.232 432.867,565.232 435,561.5C 490.111,504.722 545.611,448.222 601.5,392C 605.093,388.711 609.093,386.211 613.5,384.5 Z"/></g>
<g><path style="opacity:0.993" fill="#000000" d="M 614.5,409.5 C 617.978,409.184 621.312,409.684 624.5,411C 642.862,430.034 661.362,449.2 680,468.5C 681.04,472.533 680.374,476.199 678,479.5C 670.167,487.333 662.333,495.167 654.5,503C 653.5,503.667 652.5,503.667 651.5,503C 630.485,481.148 609.151,459.315 587.5,437.5C 595.794,427.539 604.794,418.205 614.5,409.5 Z"/></g>
<g><path style="opacity:0.999" fill="#000000" d="M 573.5,450.5 C 596.257,472.256 618.257,494.589 639.5,517.5C 604.448,554.051 568.948,590.051 533,625.5C 510.968,603.8 489.135,581.633 467.5,559C 502.298,522.368 537.632,486.201 573.5,450.5 Z"/></g>
<g><path style="opacity:0.969" fill="#000000" d="M 452.5,575.5 C 473.051,595.55 493.551,615.884 514,636.5C 515.438,637.9 516.271,639.567 516.5,641.5C 497.497,641.667 478.497,641.5 459.5,641C 455.766,640.267 453.266,638.1 452,634.5C 451.18,614.76 451.347,595.093 452.5,575.5 Z"/></g>
</svg>
