<?xml version="1.0" encoding="UTF-8"?>
<!DOCTYPE svg PUBLIC "-//W3C//DTD SVG 1.1//EN" "http://www.w3.org/Graphics/SVG/1.1/DTD/svg11.dtd">
<svg xmlns="http://www.w3.org/2000/svg" version="1.1" width="980px" height="980px" style="shape-rendering:geometricPrecision; text-rendering:geometricPrecision; image-rendering:optimizeQuality; fill-rule:evenodd; clip-rule:evenodd" xmlns:xlink="http://www.w3.org/1999/xlink">
<g><path style="opacity:0.992" fill="#000000" d="M 55.5,145.5 C 345.221,145.934 635.221,146.101 925.5,146C 928.88,147.371 931.713,149.538 934,152.5C 934.667,348.833 934.667,545.167 934,741.5C 932.167,743.333 930.333,745.167 928.5,747C 907.564,748.632 886.564,748.966 865.5,748C 827.2,725.516 789.2,702.516 751.5,679C 730.796,677.548 711.129,677.715 692.5,679.5C 675.108,739.151 639.108,783.651 584.5,813C 539.813,834.669 493.147,840.336 444.5,830C 376.225,812.389 327.391,771.556 298,707.5C 293.905,697.786 290.739,687.786 288.5,677.5C 268.826,677.645 249.159,678.145 229.5,679C 192,702.251 154.333,725.251 116.5,748C 96.1667,748.667 75.8333,748.667 55.5,748C 52.1199,746.629 49.2866,744.462 47,741.5C 45.8414,686.044 45.3414,630.544 45.5,575C 45.9428,439.818 45.9428,304.818 45.5,170C 45.4337,164.102 45.9337,158.269 47,152.5C 49.4639,149.519 52.2972,147.186 55.5,145.5 Z M 92.5,171.5 C 362.084,171.521 634.084,171.521 908.5,171.5C 909.037,355.168 909.037,538.835 908.5,722.5C 899.5,722.5 890.5,722.5 881.5,722.5C 881.667,550.5 881.5,378.5 881,206.5C 879.01,202.51 875.843,200.01 871.5,199C 855.5,198.833 839.5,198.667 823.5,198.5C 601.49,198.504 379.99,198.504 159,198.5C 142.5,198.667 126,198.833 109.5,199C 105.157,200.01 101.99,202.51 100,206.5C 99.5,378.5 99.3333,550.5 99.5,722.5C 89.9774,722.653 80.6441,721.82 71.5,720C 72.2739,537.294 72.2739,354.961 71.5,173C 78.6787,172.829 85.6787,172.329 92.5,171.5 Z M 151.5,224.5 C 219.429,225.496 287.429,225.83 355.5,225.5C 362.948,246.342 371.282,266.842 380.5,287C 330.493,287.766 280.493,287.432 230.5,286C 207.013,267.757 183.346,249.757 159.5,232C 156.494,229.699 153.828,227.199 151.5,224.5 Z M 383.5,224.5 C 454.755,225.48 526.088,225.813 597.5,225.5C 589.455,245.805 581.122,265.971 572.5,286C 565.586,286.186 558.753,286.686 552,287.5C 511,287.5 470,287.5 429,287.5C 422,286.833 415,286.167 408,285.5C 399.533,265.263 391.367,244.929 383.5,224.5 Z M 628.5,224.5 C 695.379,225.792 761.879,225.792 828,224.5C 828.5,225 829,225.5 829.5,226C 802.987,245.757 776.654,265.757 750.5,286C 700.507,287.432 650.507,287.766 600.5,287C 610.07,267.024 618.403,246.524 625.5,225.5C 626.791,225.737 627.791,225.404 628.5,224.5 Z M 125.5,238.5 C 154.29,261.067 183.29,283.4 212.5,305.5C 213.183,312.723 213.849,319.89 214.5,327C 214.37,372.75 214.37,420.917 214.5,471.5C 184.69,471.673 155.023,471.673 125.5,471.5C 125.5,393.833 125.5,316.167 125.5,238.5 Z M 854.5,239.5 C 855.499,316.665 855.833,393.998 855.5,471.5C 825.833,471.5 796.167,471.5 766.5,471.5C 766.167,416.496 766.5,361.496 767.5,306.5C 796.749,284.389 825.749,262.055 854.5,239.5 Z M 240.5,313.5 C 289.167,313.5 337.833,313.5 386.5,313.5C 386.5,357.833 386.5,402.167 386.5,446.5C 374.052,452.571 362.718,460.404 352.5,470C 345.253,470.185 338.087,470.685 331,471.5C 303.25,471.274 273.083,471.274 240.5,471.5C 240.5,418.833 240.5,366.167 240.5,313.5 Z M 412.5,313.5 C 464.5,313.5 516.5,313.5 568.5,313.5C 568.667,353.501 568.5,393.501 568,433.5C 543.394,422.546 517.561,417.546 490.5,418.5C 463.856,417.762 438.189,422.429 413.5,432.5C 412.5,392.839 412.167,353.172 412.5,313.5 Z M 594.5,313.5 C 643.167,313.5 691.833,313.5 740.5,313.5C 740.5,366.167 740.5,418.833 740.5,471.5C 707.917,471.274 677.75,471.274 650,471.5C 642.913,470.685 635.747,470.185 628.5,470C 618.473,460.808 607.473,452.975 595.5,446.5C 594.5,402.172 594.167,357.838 594.5,313.5 Z M 513.5,445.5 C 543.397,449.686 570.73,460.353 595.5,477.5C 595.833,479.5 596.167,481.5 596.5,483.5C 595.496,504.572 593.829,525.572 591.5,546.5C 578.828,553.834 566.495,561.667 554.5,570C 551.899,571.471 549.233,572.637 546.5,573.5C 525.002,566.223 503.668,558.557 482.5,550.5C 479.001,532.669 474.334,515.169 468.5,498C 481.454,481.924 494.287,465.758 507,449.5C 508.792,447.372 510.958,446.039 513.5,445.5 Z M 380.5,480.5 C 401.026,488.679 421.692,496.679 442.5,504.5C 447.804,521.58 452.804,538.746 457.5,556C 456.312,559.544 454.478,562.71 452,565.5C 439.977,580.022 428.144,594.689 416.5,609.5C 413.833,609.833 411.167,610.167 408.5,610.5C 392.495,609.967 376.495,609.3 360.5,608.5C 348.291,589.914 335.957,571.414 323.5,553C 332.741,532.669 345.074,514.503 360.5,498.5C 366.914,492.079 373.581,486.079 380.5,480.5 Z M 125.5,497.5 C 155.167,497.5 184.833,497.5 214.5,497.5C 214.365,546.417 214.365,592.917 214.5,637C 213.686,643.753 213.186,650.586 213,657.5C 184,675.5 155,693.5 126,711.5C 125.5,640.167 125.333,568.834 125.5,497.5 Z M 240.5,497.5 C 269.169,497.333 297.835,497.5 326.5,498C 291.399,543.162 277.066,594.329 283.5,651.5C 269.167,651.5 254.833,651.5 240.5,651.5C 240.5,600.167 240.5,548.833 240.5,497.5 Z M 654.5,498.5 C 682.995,497.502 711.662,497.169 740.5,497.5C 740.5,548.833 740.5,600.167 740.5,651.5C 726.167,651.5 711.833,651.5 697.5,651.5C 702.98,604.4 693.814,560.4 670,519.5C 665.3,512.076 660.134,505.076 654.5,498.5 Z M 766.5,497.5 C 796.167,497.5 825.833,497.5 855.5,497.5C 855.667,568.834 855.5,640.167 855,711.5C 826,693.5 797,675.5 768,657.5C 767.814,650.586 767.314,643.753 766.5,637C 766.635,592.917 766.635,546.417 766.5,497.5 Z M 605.5,568.5 C 608.947,568.814 612.28,569.648 615.5,571C 633.217,578.696 651.217,585.53 669.5,591.5C 673.501,621.855 671.834,651.855 664.5,681.5C 642.898,686.31 621.398,691.643 600,697.5C 586.132,687.646 572.798,676.979 560,665.5C 559.314,643.796 559.981,622.129 562,600.5C 562.202,598.744 562.702,597.078 563.5,595.5C 577.565,586.476 591.565,577.476 605.5,568.5 Z M 371.5,635.5 C 385.772,636.345 400.105,637.178 414.5,638C 427.407,656.329 439.407,675.163 450.5,694.5C 445.329,711.169 439.329,727.502 432.5,743.5C 411.616,749.407 390.782,755.407 370,761.5C 358.983,753.483 349.65,743.816 342,732.5C 332.791,718.916 325.291,704.416 319.5,689C 332.125,671.599 345.125,654.432 358.5,637.5C 362.982,636.833 367.316,636.166 371.5,635.5 Z M 539.5,685.5 C 543.256,686.545 546.589,688.378 549.5,691C 560.833,700.333 572.167,709.667 583.5,719C 581.65,741.115 579.816,763.281 578,785.5C 552.057,800.61 524.224,807.776 494.5,807C 482.268,788.945 470.268,770.778 458.5,752.5C 464.171,735.673 470.504,719.173 477.5,703C 498.373,697.452 519.04,691.619 539.5,685.5 Z"/></g>
</svg>
