<?xml version="1.0" encoding="UTF-8"?>
<!DOCTYPE svg PUBLIC "-//W3C//DTD SVG 1.1//EN" "http://www.w3.org/Graphics/SVG/1.1/DTD/svg11.dtd">
<svg xmlns="http://www.w3.org/2000/svg" version="1.1" width="980px" height="980px" style="shape-rendering:geometricPrecision; text-rendering:geometricPrecision; image-rendering:optimizeQuality; fill-rule:evenodd; clip-rule:evenodd" xmlns:xlink="http://www.w3.org/1999/xlink">
<g><path style="opacity:0.948" fill="#000000" d="M 346.5,162.5 C 363.437,158.713 374.937,164.713 381,180.5C 390.623,269.732 399.123,359.065 406.5,448.5C 400.907,448.807 395.407,448.473 390,447.5C 381.334,360.17 372.667,272.837 364,185.5C 362.962,181.409 360.296,179.409 356,179.5C 273.495,187.698 190.995,196.198 108.5,205C 107.308,206.912 106.308,208.912 105.5,211C 118.356,335.744 130.856,460.578 143,585.5C 143.5,586.5 144,587.5 144.5,588.5C 147.5,588.833 150.5,589.167 153.5,589.5C 168.804,587.851 184.138,587.017 199.5,587C 192.794,593.374 185.794,599.374 178.5,605C 166.574,607.066 154.574,607.733 142.5,607C 132.718,603.55 126.884,596.717 125,586.5C 113.201,466.514 101.535,346.514 90,226.5C 89.0867,217.424 89.42,208.424 91,199.5C 95.3532,191.801 101.853,187.301 110.5,186C 189.343,178.425 268.01,170.591 346.5,162.5 Z"/></g>
<g><path style="opacity:0.981" fill="#000000" d="M 313.5,306.5 C 323.419,307.267 326.252,312.267 322,321.5C 307,339.5 292,357.5 277,375.5C 273.705,379.929 270.538,384.429 267.5,389C 268.776,391.281 270.443,393.281 272.5,395C 294.292,412.456 315.792,430.29 337,448.5C 338.088,459.073 333.588,462.573 323.5,459C 300.667,440.167 277.833,421.333 255,402.5C 235.861,426.967 216.028,450.8 195.5,474C 184.687,474.186 181.52,469.353 186,459.5C 204.879,436.956 223.379,414.123 241.5,391C 217.734,372.242 194.234,353.075 171,333.5C 169,323.836 172.833,319.669 182.5,321C 205.692,340.085 229.025,358.918 252.5,377.5C 271.456,355.615 289.956,333.282 308,310.5C 309.5,308.531 311.333,307.198 313.5,306.5 Z"/></g>
<g><path style="opacity:0.994" fill="#000000" d="M 288.5,463.5 C 363.167,463.333 437.834,463.5 512.5,464C 573.489,479.987 613.322,518.154 632,578.5C 635.281,591.636 637.115,604.97 637.5,618.5C 642.493,618.916 647.493,619.249 652.5,619.5C 651.173,571.374 633.84,530.207 600.5,496C 621.021,494.838 641.687,494.338 662.5,494.5C 683.072,494.503 703.572,494.836 724,495.5C 724.5,574.499 724.667,653.499 724.5,732.5C 684.25,732.672 646.417,732.672 611,732.5C 603.913,733.315 596.747,733.815 589.5,734C 563.937,759.114 533.27,774.114 497.5,779C 460.167,779.667 422.833,779.667 385.5,779C 406.333,760.833 427.167,742.667 448,724.5C 458.235,711.561 461.901,696.895 459,680.5C 450.391,653.285 431.891,640.619 403.5,642.5C 406.944,602.953 388.944,581.953 349.5,579.5C 348.876,575.987 349.876,573.153 352.5,571C 367.548,569.375 382.548,567.542 397.5,565.5C 399.001,562.516 400.001,559.349 400.5,556C 397.441,547.08 400.608,543.913 410,546.5C 413.167,546.667 416.333,546.833 419.5,547C 438.083,588.127 469.75,605.46 514.5,599C 522.058,597.718 524.225,593.552 521,586.5C 519.093,585.07 516.926,584.404 514.5,584.5C 477.094,591.219 450.261,577.552 434,543.5C 433.333,540.833 432.667,538.167 432,535.5C 431.5,534.333 430.667,533.5 429.5,533C 399.17,532.167 368.837,531.5 338.5,531C 319.189,513.429 298.189,510.762 275.5,523C 274.056,523.781 272.723,523.614 271.5,522.5C 261.931,513.128 258.765,501.795 262,488.5C 266.522,475.475 275.356,467.141 288.5,463.5 Z"/></g>
<g><path style="opacity:0.999" fill="#000000" d="M 740.5,481.5 C 784.833,481.5 829.167,481.5 873.5,481.5C 873.5,573.833 873.5,666.167 873.5,758.5C 828.928,758.83 784.428,758.497 740,757.5C 739.169,665.43 739.336,573.43 740.5,481.5 Z"/></g>
<g><path style="opacity:0.993" fill="#000000" d="M 292.5,530.5 C 313.536,527.402 327.702,535.735 335,555.5C 336.897,565.876 335.23,575.542 330,584.5C 297.795,613.04 265.295,641.207 232.5,669C 213.443,678.086 197.609,674.253 185,657.5C 178.484,644.099 179.15,631.099 187,618.5C 218.192,591.304 249.359,564.138 280.5,537C 284.434,534.536 288.434,532.369 292.5,530.5 Z"/></g>
<g><path style="opacity:0.992" fill="#000000" d="M 349.5,594.5 C 373.212,594.049 386.545,605.549 389.5,629C 389.134,636.432 386.967,643.265 383,649.5C 351.462,677.374 319.628,704.874 287.5,732C 268.563,740.197 253.063,736.03 241,719.5C 235,707.5 235,695.5 241,683.5C 272.896,653.938 305.73,625.438 339.5,598C 342.98,596.897 346.313,595.731 349.5,594.5 Z"/></g>
<g><path style="opacity:0.992" fill="#000000" d="M 401.5,657.5 C 419.179,654.428 432.679,660.428 442,675.5C 447.396,688.084 446.396,700.084 439,711.5C 430.5,719.333 422,727.167 413.5,735C 389.206,754.958 365.206,775.291 341.5,796C 323.256,804.697 307.756,801.197 295,785.5C 287.463,771.957 287.796,758.623 296,745.5C 326.833,718.667 357.667,691.833 388.5,665C 392.602,661.954 396.935,659.454 401.5,657.5 Z"/></g>
</svg>
