<?xml version="1.0" standalone="no"?>
<!DOCTYPE svg PUBLIC "-//W3C//DTD SVG 20010904//EN"
 "http://www.w3.org/TR/2001/REC-SVG-20010904/DTD/svg10.dtd">
<svg version="1.0" xmlns="http://www.w3.org/2000/svg"
 width="3000.000000pt" height="3000.000000pt" viewBox="0 0 3000.000000 3000.000000"
 preserveAspectRatio="xMidYMid meet">

<g transform="translate(0.000000,3000.000000) scale(0.100000,-0.100000)"
fill="#000000" stroke="none">
<path d="M7316 26099 c-264 -28 -471 -135 -618 -319 -76 -95 -143 -248 -169
-383 -8 -43 -11 -215 -10 -568 l3 -506 -348 -6 c-191 -4 -498 -7 -683 -7 -474
0 -1024 -17 -1142 -35 -374 -56 -678 -293 -794 -619 -81 -225 -92 -374 -89
-1181 2 -482 5 -596 30 -914 221 -2899 1785 -5758 4159 -7602 510 -396 1013
-717 1585 -1012 476 -245 1019 -470 1470 -607 444 -136 956 -455 1280 -797
333 -352 467 -675 589 -1418 57 -347 58 -371 31 -890 -5 -104 -14 -341 -20
-525 -29 -905 -41 -1194 -51 -1238 -29 -120 -119 -261 -188 -297 -15 -7 -138
-43 -276 -80 -574 -153 -759 -217 -1090 -376 -407 -195 -878 -542 -1155 -850
-290 -323 -436 -552 -588 -919 -105 -254 -191 -559 -230 -812 -25 -167 -24
-605 2 -743 35 -191 105 -377 177 -472 84 -111 275 -234 434 -278 85 -24 458
-32 1845 -39 635 -4 1740 -11 2455 -17 715 -5 1410 -7 1545 -5 135 3 751 8
1370 11 619 4 1661 10 2315 15 1287 10 1250 8 1401 65 172 65 340 207 406 345
139 290 179 700 113 1142 -20 131 -82 390 -130 538 -48 146 -160 414 -231 549
-189 359 -554 770 -949 1067 -268 202 -552 364 -885 505 -269 113 -265 112
-790 254 -135 36 -268 73 -296 81 -104 28 -192 140 -233 294 -21 81 -20 55
-46 860 -20 596 -32 917 -47 1177 -13 240 -7 324 43 628 87 537 178 835 331
1095 64 108 230 312 339 415 142 134 377 311 564 424 206 125 444 231 675 302
161 49 445 152 650 236 931 378 1788 891 2595 1553 291 238 474 406 790 724
458 460 776 835 1167 1376 208 287 523 785 668 1055 24 44 62 114 85 155 79
141 248 485 352 720 496 1115 783 2236 878 3440 22 276 33 1339 16 1611 -18
284 -70 469 -177 631 -135 202 -374 358 -639 414 -123 26 -349 34 -1294 44
-509 6 -927 13 -930 16 -4 3 -6 238 -7 522 -1 496 -2 521 -23 607 -59 241
-221 446 -436 550 -109 53 -214 81 -360 95 -134 12 -15318 12 -15439 -1z
m14565 -1766 c0 -43 3 -283 5 -533 4 -483 7 -510 56 -648 77 -214 275 -406
486 -472 149 -47 183 -48 1202 -54 919 -6 1289 -13 1300 -23 10 -10 4 -675 -9
-838 -120 -1630 -705 -3197 -1714 -4595 -98 -135 -97 -134 -272 -355 -686
-866 -1531 -1605 -2461 -2150 -371 -218 -813 -430 -1194 -575 -41 -16 -104
-42 -140 -58 -36 -16 -137 -55 -225 -85 -639 -222 -755 -269 -1045 -419 -193
-100 -245 -133 -400 -252 -176 -134 -289 -236 -467 -422 -340 -356 -468 -529
-686 -929 -206 -376 -345 -815 -451 -1415 -62 -351 -88 -562 -93 -755 -6 -224
80 -2885 98 -3040 23 -198 66 -419 98 -502 73 -188 202 -345 356 -432 157 -90
230 -110 675 -191 96 -17 265 -53 375 -80 110 -27 253 -60 318 -74 228 -48
539 -158 762 -268 296 -147 577 -393 738 -644 42 -66 97 -186 97 -211 0 -14
-2129 -28 -4175 -28 -1513 0 -4306 14 -4314 21 -9 9 57 154 103 224 144 221
366 428 621 578 211 124 612 273 894 332 80 17 205 46 276 65 142 36 367 82
600 121 472 80 718 264 843 630 21 61 60 275 81 444 18 142 103 2774 98 3030
-5 245 -26 414 -107 865 -84 467 -216 899 -366 1197 -187 373 -352 622 -590
888 -380 426 -674 666 -1044 854 -307 155 -413 198 -1020 408 -80 28 -185 68
-235 90 -49 21 -124 52 -165 68 -268 101 -681 293 -950 440 -1556 850 -2873
2226 -3720 3885 -546 1069 -861 2180 -945 3335 -15 207 -22 836 -10 849 3 3
502 9 1108 13 606 4 1143 12 1192 18 166 18 295 65 420 155 160 114 279 317
314 535 7 39 11 267 11 573 l0 507 6835 0 6835 0 1 -77z"/>
<path d="M7215 21700 c-267 -6 -286 -9 -381 -65 -69 -41 -149 -137 -178 -215
-35 -95 -50 -190 -43 -274 7 -82 81 -387 161 -664 239 -825 612 -1667 1053
-2374 62 -99 295 -448 342 -513 298 -406 568 -728 863 -1025 337 -341 567
-543 923 -809 310 -233 419 -297 581 -342 188 -53 398 -6 513 115 54 58 85
130 101 234 12 76 22 32 -115 537 -47 176 -117 435 -155 575 -38 140 -107 399
-155 575 -48 176 -133 493 -190 705 -104 385 -232 862 -326 1210 -28 102 -97
358 -154 570 -57 212 -154 572 -215 800 -159 588 -193 683 -284 778 -48 51
-138 115 -192 137 -122 48 -124 48 -1039 50 -473 1 -972 -1 -1110 -5z"/>
<path d="M20932 21700 c-151 -16 -248 -54 -350 -139 -79 -66 -121 -133 -171
-271 -22 -63 -218 -774 -435 -1580 -217 -806 -539 -2000 -716 -2655 -320
-1185 -322 -1190 -317 -1270 10 -169 88 -281 239 -343 105 -43 200 -57 290
-42 151 26 269 78 443 198 589 403 1199 974 1696 1587 841 1036 1458 2286
1806 3655 55 214 58 231 58 350 0 113 -3 133 -29 207 -50 142 -145 235 -286
283 -65 21 -70 21 -1105 25 -572 2 -1077 0 -1123 -5z"/>
</g>
</svg>
