<?xml version="1.0" standalone="no"?>
<!DOCTYPE svg PUBLIC "-//W3C//DTD SVG 20010904//EN"
 "http://www.w3.org/TR/2001/REC-SVG-20010904/DTD/svg10.dtd">
<svg version="1.0" xmlns="http://www.w3.org/2000/svg"
 width="3068.000000pt" height="475.000000pt" viewBox="0 0 3068.000000 475.000000"
 preserveAspectRatio="xMidYMid meet">

<g transform="translate(0.000000,475.000000) scale(0.100000,-0.100000)"
fill="#000000" stroke="none">
<path d="M3203 4723 c-4 -9 -1 -57 5 -107 21 -165 110 -300 245 -368 93 -46
155 -48 312 -8 116 30 132 32 180 21 64 -14 90 -32 113 -76 l17 -35 70 61 c39
34 103 86 143 116 39 31 72 58 72 62 0 10 -92 69 -150 95 -109 50 -194 52
-507 16 -102 -12 -186 -2 -259 29 -50 22 -163 127 -189 175 -21 39 -42 46 -52
19z"/>
<path d="M5660 4599 c-301 -14 -600 -94 -879 -234 -652 -327 -1087 -916 -1208
-1634 -25 -149 -25 -523 0 -672 165 -980 939 -1724 1931 -1854 168 -22 447
-20 613 4 248 37 454 101 678 210 652 319 1101 919 1220 1631 23 133 30 419
16 563 -28 263 -98 508 -217 747 -223 450 -561 785 -1019 1010 -365 180 -707
249 -1135 229z m446 -158 c72 -11 160 -27 195 -36 107 -27 309 -97 309 -106 0
-5 -19 -9 -41 -9 -23 0 -84 -7 -137 -16 -87 -15 -103 -15 -196 -1 -226 36
-477 48 -748 36 l-201 -9 -58 32 c-32 18 -55 35 -51 39 19 17 245 65 387 82
17 2 116 5 220 5 142 2 223 -3 321 -17z m-36 -281 c63 -7 121 -15 130 -20 16
-9 157 -248 248 -419 l45 -84 -64 -61 c-35 -33 -162 -154 -283 -270 l-218
-210 -391 20 c-241 13 -392 25 -394 31 -2 6 -60 109 -129 229 -69 121 -139
242 -154 269 l-28 50 151 166 c84 91 180 196 214 234 l62 68 98 8 c128 10 566
3 713 -11z m-1963 -606 c-17 -70 -34 -108 -73 -170 -76 -117 -87 -138 -143
-263 -66 -146 -106 -259 -126 -358 -10 -46 -24 -86 -35 -98 -20 -19 -20 -19
-20 5 0 50 50 263 89 378 45 135 116 289 189 409 54 88 132 197 137 191 2 -2
-6 -44 -18 -94z m767 -209 c67 -115 132 -226 143 -245 l22 -35 -150 -330 c-83
-181 -156 -335 -162 -342 -11 -11 -566 -223 -584 -223 -11 0 -50 59 -172 260
-76 123 -101 174 -101 199 0 83 120 415 204 565 35 62 134 211 171 258 15 19
76 47 220 103 110 43 207 81 215 86 17 9 7 24 194 -296z m2668 203 c206 -311
314 -614 349 -973 11 -119 6 -374 -9 -444 l-8 -35 -34 55 c-45 69 -117 158
-192 235 l-59 60 -44 170 c-47 182 -170 596 -185 625 -7 12 0 37 25 92 19 41
49 125 67 186 18 61 33 111 34 111 1 0 26 -37 56 -82z m-762 -50 c127 -44 367
-157 392 -185 9 -10 30 -52 46 -93 46 -117 222 -720 222 -761 0 -8 -20 -41
-45 -74 -63 -84 -347 -397 -393 -433 l-38 -31 -155 70 c-85 39 -242 109 -349
156 -107 47 -196 87 -198 88 -2 2 -48 185 -102 407 l-98 403 36 37 c20 20 140
133 267 252 265 250 218 231 415 164z m-1755 -1504 c159 -135 302 -255 316
-268 l26 -24 7 -308 c4 -170 9 -331 12 -359 l6 -50 -169 -59 c-92 -33 -207
-74 -255 -93 l-87 -34 -83 48 c-168 96 -533 393 -609 494 l-25 34 0 334 1 333
110 39 c61 21 180 65 265 98 85 32 164 59 175 60 12 0 132 -94 310 -245z
m1371 48 c88 -40 240 -110 339 -155 l180 -82 8 -50 c4 -27 7 -159 5 -294 l-3
-243 -81 -77 c-119 -113 -376 -293 -556 -390 l-95 -51 -89 25 c-181 52 -502
179 -578 228 l-23 16 -8 356 c-4 196 -5 358 -3 360 13 13 734 435 739 433 4
-2 78 -36 165 -76z m-2203 -899 c169 -161 348 -299 518 -403 69 -42 88 -59
116 -107 19 -32 47 -70 61 -85 33 -36 25 -35 -51 3 -267 135 -539 361 -720
597 -65 85 -75 102 -57 102 13 0 64 -41 133 -107z m3270 -7 c-4 -8 -42 -53
-82 -100 -227 -261 -557 -480 -897 -595 -119 -40 -302 -86 -311 -77 -2 2 9 30
25 62 16 33 37 82 46 110 16 50 20 53 99 94 169 88 465 293 582 402 73 68 73
68 131 68 88 0 271 19 334 34 75 19 83 19 73 2z"/>
<path d="M20505 4419 c-313 -3 -602 -11 -642 -16 -89 -13 -132 -37 -158 -88
-20 -39 -20 -63 -23 -1016 -3 -940 -2 -977 16 -999 14 -17 25 -21 43 -17 13 4
136 116 272 249 l248 243 -1 531 0 531 227 6 c124 4 359 7 522 7 166 0 311 4
331 10 26 7 100 74 284 253 233 227 249 244 242 270 -4 17 -17 32 -32 37 -27
11 -369 10 -1329 -1z"/>
<path d="M14875 4409 c-313 -3 -602 -11 -642 -16 -89 -13 -132 -37 -158 -88
-20 -39 -20 -63 -23 -1016 -3 -940 -2 -977 16 -999 14 -17 25 -21 43 -17 13 4
136 116 272 249 l248 243 -1 531 0 531 227 6 c124 4 359 7 522 7 166 0 311 4
331 10 26 7 100 74 284 253 233 227 249 244 242 270 -4 17 -17 32 -32 37 -27
11 -369 10 -1329 -1z"/>
<path d="M12530 4399 c-294 -5 -659 -12 -810 -17 -311 -9 -329 -13 -351 -79
-17 -52 -13 -384 6 -429 14 -35 51 -59 100 -67 28 -4 606 3 1341 18 344 6 351
8 465 66 46 23 365 322 385 361 20 39 18 101 -5 129 l-19 24 -289 1 c-158 1
-529 -3 -823 -7z"/>
<path d="M9150 4387 c-245 -9 -365 -29 -461 -76 -91 -43 -134 -82 -168 -154
-63 -129 -61 -82 -68 -1912 l-5 -1660 30 30 c16 17 123 131 237 255 115 124
231 249 259 278 l51 53 5 1237 5 1237 21 40 c30 56 52 73 130 101 67 23 74 24
284 18 232 -6 279 -12 410 -51 182 -54 313 -152 403 -301 64 -105 92 -194 117
-361 35 -243 43 -446 37 -916 -9 -709 -32 -845 -180 -1064 -73 -108 -170 -201
-251 -241 l-68 -34 -326 2 -327 2 -264 -260 c-145 -143 -261 -263 -257 -267
19 -20 209 -35 559 -45 354 -10 401 -10 525 6 222 29 370 81 533 189 210 139
312 254 419 472 123 250 145 341 154 655 21 672 14 1266 -20 1545 -45 382
-169 673 -371 872 -184 183 -375 280 -652 333 -125 24 -421 31 -761 17z"/>
<path d="M17016 4379 c-83 -13 -97 -37 -108 -168 -4 -61 -7 -861 -6 -1779 3
-1397 5 -1672 17 -1685 8 -10 28 -17 48 -17 31 0 55 21 263 222 192 186 232
229 245 267 13 39 15 203 15 1313 l0 1268 549 0 550 0 80 25 c91 29 115 49
394 324 136 135 157 160 157 187 0 23 -6 34 -25 42 -31 14 -2098 15 -2179 1z"/>
<path d="M22566 4365 c-21 -7 -43 -18 -48 -23 -20 -20 -28 -94 -28 -266 -1
-208 9 -242 70 -262 35 -12 662 -10 740 2 29 5 71 41 263 232 126 125 235 239
243 254 12 23 12 29 -5 50 l-19 23 -589 2 c-482 2 -595 0 -627 -12z"/>
<path d="M24469 4366 c-106 -30 -133 -54 -692 -606 -120 -118 -226 -231 -236
-250 -53 -105 -51 -39 -54 -1621 -2 -1369 -1 -1466 15 -1491 26 -40 77 -52
223 -52 193 0 262 10 296 43 26 26 27 32 33 172 3 79 7 776 9 1550 l2 1405 33
65 c44 88 106 150 189 191 l67 33 286 5 c190 3 292 9 305 17 38 22 77 71 86
109 4 22 9 108 9 192 0 243 -4 246 -315 249 -148 1 -223 -2 -256 -11z"/>
<path d="M26225 4370 c-546 -6 -565 -9 -687 -90 -113 -74 -178 -151 -211 -250
-46 -138 -45 -114 -54 -1635 -11 -2035 -13 -1871 15 -1923 34 -64 97 -128 154
-156 l51 -25 671 -3 c369 -2 844 -3 1056 -3 l385 0 48 28 c57 34 82 78 97 173
16 94 4 241 -21 283 -25 42 -92 71 -183 81 -39 5 -419 11 -845 15 -572 4 -778
9 -792 18 -11 7 -32 36 -46 65 l-26 54 6 321 c4 177 7 419 7 538 l0 217 508 5
c344 3 519 8 545 16 67 21 96 120 97 328 0 121 -17 176 -62 199 -52 27 -185
34 -641 34 l-448 0 6 473 c4 259 11 486 16 504 16 50 65 111 111 135 l43 23
800 5 c896 6 860 3 891 75 19 46 37 231 32 320 -6 95 -25 126 -90 156 l-53 24
-455 0 c-250 0 -666 -2 -925 -5z"/>
<path d="M28064 4366 c-17 -8 -41 -26 -53 -42 -37 -47 -21 -105 84 -302 34
-64 92 -175 130 -247 37 -71 87 -166 110 -210 205 -386 652 -1238 670 -1275
l16 -35 -271 -520 c-150 -286 -363 -694 -475 -906 -112 -212 -206 -396 -209
-407 -9 -28 16 -84 49 -110 26 -21 38 -22 229 -22 190 0 204 1 251 24 84 39
34 -45 500 851 121 231 227 433 236 448 l17 28 55 -103 c30 -57 80 -152 112
-213 32 -60 75 -141 95 -180 21 -38 68 -128 105 -200 37 -71 80 -152 95 -180
15 -27 60 -113 100 -190 100 -192 106 -201 174 -235 l59 -30 203 0 202 0 31
26 c17 14 36 43 42 64 12 41 18 29 -161 365 -235 442 -783 1491 -783 1499 0 6
108 218 240 471 698 1335 744 1424 755 1480 10 51 9 59 -9 83 -10 15 -36 35
-57 46 -34 17 -54 18 -242 11 -200 -7 -205 -8 -240 -34 -30 -22 -93 -134 -403
-726 -202 -385 -371 -699 -376 -698 -4 0 -176 320 -381 710 -284 539 -381 714
-405 733 -28 22 -45 25 -153 31 -193 12 -308 10 -342 -5z"/>
<path d="M2605 4343 c-16 -2 -65 -13 -107 -23 -178 -44 -311 -144 -532 -402
-69 -80 -126 -148 -126 -150 0 -2 30 10 68 28 146 70 398 114 553 96 159 -19
349 -120 509 -269 48 -46 91 -83 94 -83 10 0 -24 83 -59 141 -78 127 -201 272
-298 350 -106 85 9 22 238 -130 271 -181 319 -201 480 -201 194 0 311 66 434
245 51 73 104 175 96 183 -2 3 -35 -10 -72 -28 -99 -47 -149 -60 -229 -60 -98
0 -172 25 -397 131 -230 109 -322 147 -407 165 -61 13 -178 16 -245 7z"/>
<path d="M1328 4136 c-64 -23 -122 -62 -180 -124 -67 -70 -79 -107 -25 -74 56
35 104 36 222 7 122 -30 153 -27 190 17 87 103 -59 227 -207 174z"/>
<path d="M21997 3953 c-308 -307 -301 -293 -316 -614 -6 -123 -13 -317 -17
-431 l-7 -207 -391 -4 c-424 -4 -474 -9 -584 -63 -71 -35 -116 -78 -568 -541
-369 -379 -383 -395 -403 -455 -20 -60 -21 -79 -21 -622 0 -534 1 -563 20
-604 31 -69 76 -83 255 -83 201 0 247 10 277 63 10 18 14 170 18 673 5 534 8
656 20 683 8 18 18 31 22 30 7 -3 258 -267 824 -868 210 -223 404 -426 431
-452 58 -54 112 -73 244 -88 111 -13 355 2 398 24 59 31 75 83 47 149 -7 18
-67 88 -132 157 -177 187 -890 943 -1121 1189 -163 174 -199 217 -185 223 9 3
240 7 512 8 551 1 751 9 796 33 36 19 66 51 89 96 20 40 17 -28 51 1054 21
647 23 821 14 832 -7 8 -26 15 -43 15 -27 0 -58 -27 -230 -197z"/>
<path d="M16367 3943 c-308 -307 -301 -293 -316 -614 -6 -123 -13 -317 -17
-431 l-7 -207 -391 -4 c-424 -4 -474 -9 -584 -63 -71 -35 -116 -78 -568 -541
-369 -379 -383 -395 -403 -455 -20 -60 -21 -79 -21 -622 0 -534 1 -563 20
-604 31 -69 76 -83 255 -83 201 0 247 10 277 63 10 18 14 169 18 673 5 644 5
650 27 698 84 179 196 271 399 328 76 21 102 22 714 29 349 4 642 10 650 13 8
3 27 8 42 11 37 8 85 51 110 99 24 48 19 -40 54 1060 21 647 23 821 14 832 -7
8 -26 15 -43 15 -27 0 -58 -27 -230 -197z"/>
<path d="M19328 3883 c-39 -38 -146 -148 -239 -246 -164 -173 -169 -180 -191
-250 l-23 -72 0 -1220 0 -1220 -565 -5 c-511 -5 -570 -8 -620 -24 -49 -16 -75
-38 -239 -200 -267 -263 -294 -303 -240 -357 20 -20 22 -20 1062 -16 791 2
1051 6 1079 15 43 15 72 51 90 113 17 62 24 3514 7 3535 -22 27 -51 14 -121
-53z"/>
<path d="M2305 3624 c-150 -25 -284 -89 -472 -228 -78 -58 -160 -114 -182
-126 -98 -50 -296 -66 -415 -35 -109 29 -221 89 -291 156 -36 34 -68 59 -71
56 -11 -10 22 -87 65 -152 137 -207 301 -333 505 -385 141 -36 268 -25 466 40
232 75 431 34 571 -118 33 -36 58 -66 57 -68 -2 -1 -32 5 -68 12 -44 10 -94
13 -155 9 -194 -13 -293 -49 -469 -173 -161 -114 -272 -179 -351 -207 -131
-46 -284 -31 -575 58 -306 93 -508 100 -678 22 -74 -34 -232 -134 -232 -147 0
-6 9 -7 23 -3 134 42 271 43 417 2 138 -39 256 -108 510 -297 206 -153 330
-200 528 -201 178 -1 254 22 524 160 202 103 302 135 423 136 75 0 103 -5 168
-29 199 -73 345 -224 401 -414 15 -51 14 -54 -2 -47 -9 3 -55 18 -102 33 -78
24 -99 26 -260 26 -164 0 -180 -2 -255 -27 -170 -57 -315 -169 -393 -303 -48
-85 -88 -184 -96 -244 l-7 -45 33 40 c80 98 148 145 261 180 232 74 530 -16
900 -271 108 -75 379 -286 373 -291 -2 -3 -44 0 -93 6 -196 24 -443 7 -567
-40 -72 -26 -190 -105 -242 -160 -42 -45 -94 -117 -94 -131 0 -15 27 -8 71 16
110 61 297 83 424 51 87 -22 234 -101 393 -209 226 -155 301 -192 472 -236
287 -73 568 -25 758 130 l63 52 -118 70 c-181 108 -334 228 -488 382 -298 299
-499 631 -613 1011 -49 165 -62 227 -93 444 -11 80 -22 148 -24 151 -2 3 -13
89 -25 190 -54 469 -151 724 -356 936 -94 96 -229 177 -344 203 -52 12 -231
22 -275 15z"/>
<path d="M570 3077 c-47 -25 -106 -89 -96 -105 4 -7 17 -6 36 1 24 9 44 8 100
-7 59 -15 73 -16 97 -4 23 11 29 20 31 55 3 39 0 44 -30 63 -43 26 -85 25
-138 -3z"/>
<path d="M11384 2904 c-66 -35 -93 -61 -118 -114 -21 -45 -21 -51 -24 -1054
l-3 -1009 48 43 c27 24 144 137 261 252 l214 207 5 553 c2 304 6 558 8 565 3
9 100 13 372 15 248 2 377 7 394 15 15 6 120 103 233 215 l207 203 -3 45 c-3
38 -7 47 -38 65 -34 20 -50 20 -771 23 l-735 2 -50 -26z"/>
<path d="M1684 1565 c-19 -29 -11 -60 21 -81 53 -35 115 44 70 90 -25 25 -72
20 -91 -9z"/>
<path d="M1260 1365 c-67 -17 -136 -19 -179 -4 -58 20 -59 -3 -3 -63 130 -137
315 -180 372 -85 29 46 26 90 -8 128 -23 26 -37 32 -78 35 -27 2 -74 -3 -104
-11z"/>
<path d="M12785 980 c-209 -4 -468 -8 -575 -9 l-196 -1 -282 -276 c-155 -152
-282 -279 -282 -284 0 -22 178 -25 948 -13 566 8 834 15 858 23 45 15 139 103
269 251 125 142 185 222 185 247 0 11 -9 30 -19 43 l-19 24 -254 1 c-139 0
-424 -2 -633 -6z"/>
</g>
</svg>
