<svg width="1280" height="198" xmlns="http://www.w3.org/2000/svg" xmlns:xlink="http://www.w3.org/1999/xlink" xml:space="preserve" overflow="hidden"><g transform="matrix(1 0 0 1 0 -261)"><path d="M133.515 196.875C133.348 196.499 133.473 194.499 133.723 192.414 134.598 185.536 138.308 179.909 143.936 177.075 147.812 175.157 150.397 175.074 156.941 176.741 161.776 177.992 162.443 178.075 164.444 177.616 167.112 177.033 168.196 176.283 169.155 174.448L169.863 172.989 172.781 175.532C174.407 176.949 177.075 179.117 178.742 180.368 180.368 181.66 181.743 182.785 181.743 182.952 181.743 183.369 177.908 185.828 175.491 186.912 170.947 188.996 167.404 189.08 154.357 187.579 150.105 187.079 146.603 187.496 143.56 188.788 141.476 189.705 136.766 194.082 135.682 196.083 134.807 197.708 133.931 198 133.515 196.875Z" fill="#ADEE00" transform="matrix(1.00027 0 0 -1 0.388962 459)"/><path d="M235.933 191.706C223.386 191.122 210.922 187.787 199.292 181.952 172.114 168.321 153.981 143.769 148.938 113.84 147.896 107.629 147.896 92.0387 148.938 85.8278 155.816 44.9773 188.079 13.9642 229.43 8.54526 236.433 7.62821 248.063 7.71158 254.982 8.712 265.32 10.2543 273.907 12.9221 283.244 17.4657 310.422 30.7629 329.139 55.7735 334.099 85.4526 335.058 90.9966 335.349 102.918 334.766 108.921 333.599 119.884 330.681 130.096 325.72 140.059 316.425 158.817 302.336 172.781 283.244 182.16 268.029 189.663 253.773 192.539 235.933 191.706ZM254.524 185.12C257.525 184.661 261.193 183.994 262.652 183.619 267.112 182.493 275.533 179.576 275.533 179.2 275.533 178.992 274.741 178.825 273.824 178.825 272.865 178.825 270.322 178.533 268.113 178.158 264.486 177.533 263.819 177.533 259.943 178.117 250.522 179.617 240.059 180.117 228.763 179.617L220.384 179.242 217.967 180.576C216.633 181.326 215.674 182.035 215.841 182.202 216.633 182.91 226.053 184.911 231.973 185.62 232.681 185.703 236.808 185.828 241.143 185.828 247.062 185.912 250.439 185.703 254.524 185.12ZM253.023 173.406C255.649 173.115 258.067 172.781 258.442 172.573 259.109 172.197 264.987 162.235 268.78 155.107L270.656 151.605 267.988 149.063C266.529 147.687 261.235 142.643 256.191 137.808L247.104 129.054 230.805 129.888C220.76 130.43 214.465 130.93 214.382 131.18 214.299 131.43 211.881 135.724 209.005 140.726 206.128 145.77 203.211 150.813 202.585 151.939L201.418 154.023 207.712 160.943C211.214 164.736 215.216 169.113 216.633 170.697L219.217 173.531 223.302 173.865C228.638 174.282 246.896 173.99 253.023 173.406ZM171.197 148.146C170.488 145.228 169.78 143.644 168.154 141.059 164.986 136.182 164.528 135.307 162.193 130.096 159.442 124.011 157.775 119.3 156.941 115.173 156.524 113.256 155.941 111.589 155.482 111.088 154.648 110.296 154.648 110.296 154.648 111.297 154.648 113.381 156.733 122.26 158.358 127.053 160.234 132.681 163.194 139.1 166.237 144.102 168.488 147.771 171.739 152.314 171.947 152.064 172.031 151.981 171.697 150.23 171.197 148.146ZM203.169 139.434C205.962 134.64 208.671 130.013 209.13 129.221L210.047 127.762 203.794 114.006C200.334 106.461 197.291 100.042 197.041 99.7503 196.583 99.2918 173.448 90.4547 172.698 90.4547 172.239 90.4547 170.613 92.9141 165.528 101.293 162.36 106.42 161.318 108.546 161.318 109.588 161.318 113.048 166.32 126.887 169.821 133.139 171.28 135.724 175.407 141.935 176.949 143.894 177.575 144.686 180.117 145.853 186.12 148.187 190.705 149.98 194.749 151.564 195.082 151.772 195.791 152.147 195.374 152.773 203.169 139.434ZM314.382 147.896C322.969 134.932 327.471 122.301 328.93 107.337 329.389 102.376 329.18 91.7469 328.555 88.8291L328.221 87.3701 326.804 89.6627C324.928 92.5389 321.927 96.2488 318.801 99.4585L316.341 101.96 314.507 109.046C312.548 116.632 307.421 133.89 306.796 135.099 306.504 135.599 306.796 136.641 307.838 138.933 308.63 140.643 309.88 144.144 310.631 146.687 311.381 149.229 312.006 151.314 312.048 151.314 312.09 151.314 313.132 149.771 314.382 147.896ZM282.619 145.811C287.913 143.977 297.917 139.267 298.959 138.1 299.334 137.683 300.21 135.932 300.877 134.223 302.794 129.346 310.131 104.211 310.131 102.501 310.131 102.168 309.297 100.792 308.255 99.4168 305.629 95.9154 293.79 82.8682 291.873 81.3676L290.289 80.0754 283.828 82.9933C280.285 84.6189 273.74 87.5368 269.28 89.496 264.82 91.4552 261.11 93.1225 261.027 93.1642 260.943 93.2476 259.026 100.876 256.775 110.13L252.69 126.928 254.19 128.471C255.024 129.304 260.026 134.015 265.32 138.975 276.366 149.396 274.407 148.604 282.619 145.811ZM209.463 83.1183C216.091 77.4909 222.052 72.4888 222.635 71.9469L223.719 70.9465 224.011 58.1078C224.178 51.0215 224.386 44.3103 224.511 43.1432L224.761 41.0589 217.717 38.5996C213.882 37.224 209.088 35.5149 207.087 34.7229L203.461 33.3057 200.001 35.3065C192.998 39.3082 177.783 51.6884 174.615 55.8985L173.573 57.3158 173.573 71.2383 173.615 85.1192 178.2 86.7448C180.743 87.6202 185.703 89.4543 189.246 90.8299 192.789 92.1638 196.083 93.2893 196.541 93.3309 197.041 93.3309 202.043 89.4126 209.463 83.1183ZM266.612 85.1192C270.28 83.4518 276.616 80.5339 280.743 78.6581L288.246 75.24 288.58 73.1558C288.747 72.0303 288.872 66.528 288.788 60.9006L288.663 50.7714 285.287 47.5617C280.326 42.8514 269.613 35.3482 262.11 31.3048L258.15 29.1789 254.44 30.2211C246.896 32.3886 233.515 37.6825 230.347 39.7251L229.388 40.392 229.055 55.2316C228.888 63.4017 228.846 70.1545 228.93 70.2379 229.472 70.7798 259.526 88.3705 259.734 88.2872 259.901 88.2038 262.986 86.7865 266.612 85.1192ZM174.782 47.6451C181.827 40.9339 189.288 35.1815 196.374 30.8463 199.251 29.0956 200.043 28.3869 201.21 26.3861 202.002 25.0522 203.169 23.4682 203.752 22.8429 205.128 21.3423 204.795 21.384 201.627 22.968 190.497 28.5954 179.159 38.016 171.614 47.8535 168.904 51.3966 168.488 52.1053 169.238 52.1053 169.78 52.1053 171.906 50.3962 174.782 47.6451ZM311.089 47.3533C310.923 47.0198 309.339 45.144 307.671 43.1848 298.209 32.3053 284.453 23.1764 270.28 18.3827 265.32 16.7154 257.692 14.7979 257.317 15.1731 257.233 15.2564 257.692 16.4236 258.359 17.7575 259.026 19.1331 259.901 21.1756 260.276 22.3427 260.943 24.4269 261.11 24.552 264.403 26.2611 271.448 29.9293 283.786 38.4745 288.663 43.0181 291.706 45.8526 291.706 45.8526 294.124 45.8526 297.792 45.8526 305.42 46.6446 308.046 47.2699 311.173 48.0619 311.506 48.0619 311.089 47.3533Z" fill="#ADEE00" transform="matrix(1.00027 0 0 -1 0.388962 459)"/><path d="M854.735 184.203C841.688 184.077 829.641 183.744 827.973 183.536 824.264 182.994 822.471 181.993 821.387 179.867 820.554 178.242 820.554 177.241 820.429 137.516 820.304 98.3331 820.345 96.7907 821.096 95.8737 821.679 95.1651 822.138 94.9983 822.888 95.1651 823.43 95.3318 828.557 100 834.226 105.544L844.564 115.674 844.522 137.808 844.522 159.942 853.984 160.192C859.153 160.359 868.949 160.484 875.744 160.484 882.663 160.484 888.707 160.651 889.541 160.901 890.625 161.193 893.709 163.986 901.379 171.447 911.092 180.909 911.759 181.618 911.467 182.702 911.3 183.411 910.758 184.036 910.133 184.244 909.008 184.703 894.752 184.661 854.735 184.203Z" fill="#ADEE00" transform="matrix(1.00027 0 0 -1 0.388962 459)"/><path d="M620.053 183.786C607.005 183.661 594.959 183.327 593.291 183.119 589.581 182.577 587.789 181.576 586.705 179.451 585.872 177.825 585.872 176.824 585.747 137.099 585.621 97.9162 585.663 96.3739 586.413 95.4568 586.997 94.7482 587.456 94.5815 588.206 94.7482 588.748 94.9149 593.875 99.5836 599.544 105.128L609.882 115.257 609.84 137.391 609.84 159.525 619.302 159.776C624.471 159.942 634.267 160.067 641.061 160.067 647.981 160.067 654.025 160.234 654.859 160.484 655.943 160.776 659.027 163.569 666.697 171.03 676.41 180.493 677.077 181.201 676.785 182.285 676.618 182.994 676.076 183.619 675.451 183.827 674.326 184.286 660.069 184.244 620.053 183.786Z" fill="#ADEE00" transform="matrix(1.00027 0 0 -1 0.388962 459)"/><path d="M522.303 183.369C510.048 183.16 494.833 182.869 488.539 182.66 475.575 182.285 474.825 182.118 473.908 179.367 473.199 177.2 473.366 163.36 474.158 161.485 474.741 160.026 476.284 159.025 478.326 158.692 479.493 158.525 503.587 158.817 534.225 159.442 548.564 159.692 548.856 159.776 553.608 162.193 555.525 163.152 568.823 175.616 569.656 177.241 570.49 178.867 570.407 181.451 569.448 182.619L568.656 183.619 556.609 183.661C550.023 183.702 534.558 183.536 522.303 183.369Z" fill="#ADEE00" transform="matrix(1.00027 0 0 -1 0.388962 459)"/><path d="M381.411 182.869C371.198 182.493 366.196 181.66 362.194 179.701 358.401 177.908 356.608 176.283 355.191 173.281 352.565 167.904 352.648 169.863 352.357 93.5811L352.148 24.3853 353.399 25.6358C354.066 26.3444 358.526 31.0964 363.278 36.2653 368.072 41.4341 372.907 46.6446 374.074 47.8535L376.2 50.0627 376.408 101.626 376.617 153.189 377.492 154.857C378.743 157.191 379.66 157.9 382.911 159.067 385.704 160.026 385.996 160.067 394.749 159.817 404.42 159.567 406.379 159.317 411.84 157.691 419.427 155.44 424.887 151.355 428.639 145.144 431.307 140.768 432.474 137.058 433.516 130.096 434.975 119.967 435.308 111.505 435.058 91.9137 434.683 62.3596 433.724 56.6905 427.555 47.5617 424.512 43.0598 420.469 39.1832 417.092 37.5158L414.258 36.0985 400.669 36.1819 387.038 36.2653 376.033 25.4274C369.989 19.4665 365.154 14.4644 365.32 14.2977 366.112 13.464 374.032 12.8387 388.622 12.4219 403.378 12.0051 405.337 12.0051 410.506 12.672 419.76 13.8808 425.929 16.0484 432.724 20.5503 441.477 26.3444 445.729 31.1381 450.189 40.2253 455.317 50.6463 456.234 54.4396 456.609 67.5284 457.484 95.5402 457.192 120.301 455.775 131.931 453.899 147.854 448.731 159.984 440.31 168.279 432.64 175.907 424.679 179.951 413.132 182.16 407.922 183.16 395.583 183.452 381.411 182.869Z" fill="#ADEE00" transform="matrix(1.00027 0 0 -1 0.388962 459)"/><path d="M709.299 182.535C705.839 181.993 705.255 180.993 704.797 175.532 704.63 172.989 704.505 139.642 704.547 101.376 704.672 43.1432 704.755 31.68 705.255 31.1381 705.589 30.7213 706.422 30.4295 707.256 30.4295 708.548 30.4295 709.549 31.3048 718.219 39.6834 726.222 47.4366 727.89 49.2291 728.432 50.8131 728.973 52.4387 729.057 59.2749 729.057 105.544L729.057 158.4 751.941 158.4 774.868 158.4 778.203 159.442C781.996 160.651 782.996 161.485 794.626 172.948 800.295 178.575 801.171 179.617 801.171 180.743 801.171 181.701 800.92 182.16 800.128 182.493 798.836 183.077 712.675 183.119 709.299 182.535Z" fill="#ADEE00" transform="matrix(1.00027 0 0 -1 0.388962 459)"/><path d="M940.646 181.952C939.771 181.66 938.853 181.201 938.645 180.993 937.811 180.159 937.478 177.075 937.478 169.905 937.436 161.235 937.853 159.817 940.396 158.984 941.855 158.483 967.991 158.567 971.242 159.067 972.451 159.275 974.202 160.776 982.205 168.738 987.457 173.948 992.001 178.7 992.334 179.325 992.835 180.284 992.835 180.534 992.126 181.41L991.334 182.368 966.782 182.452C946.69 182.535 941.98 182.452 940.646 181.952Z" fill="#ADEE00" transform="matrix(1.00027 0 0 -1 0.388962 459)"/><path d="M1019.97 181.993C1015.55 180.743 1014.43 179.742 991.125 156.733 986.123 151.814 981.705 147.104 981.288 146.312 979.079 141.935 979.162 144.686 979.037 78.7415 978.954 21.6758 978.995 17.6324 979.662 16.5903 980.746 14.9229 982.872 14.4227 988.958 14.4227 997.003 14.4227 999.879 14.8396 1001.3 16.2152 1002.38 17.2989 1002.42 17.5491 1002.67 23.3848 1002.8 26.6779 1002.96 55.7318 1003.05 87.9954L1003.13 146.562 1004.51 149.271C1006.34 152.939 1008.92 155.524 1012.38 157.233L1015.18 158.608 1027.1 158.817C1035.02 158.942 1039.27 159.192 1039.81 159.525 1041.4 160.443 1043.02 162.485 1043.4 164.069 1043.56 164.986 1043.77 168.571 1043.77 172.072 1043.77 182.202 1043.61 182.327 1030.64 182.452 1024.47 182.493 1021.35 182.368 1019.97 181.993Z" fill="#ADEE00" transform="matrix(1.00027 0 0 -1 0.388962 459)"/><path d="M1093.17 182.16C1070.41 181.91 1069.62 181.785 1064.53 178.408 1059.82 175.324 1057.11 172.114 1055.74 167.987 1053.82 162.235 1053.86 163.235 1053.49 99.8337 1053.03 15.0063 1052.94 21.8425 1054.11 19.6749 1055.53 17.0072 1058.15 14.3394 1060.53 13.1722L1062.66 12.1301 1090.63 12.0051C1106.01 11.9217 1125.81 11.88 1134.64 11.88L1150.69 11.88 1152.69 13.0472C1155.07 14.4644 1156.11 16.2985 1156.74 20.2585 1157.4 24.1768 1156.9 30.3044 1155.86 32.0552 1154.82 33.8059 1152.03 35.0147 1148.23 35.4316 1146.61 35.64 1130.77 35.8901 1113.01 36.0568 1089.17 36.2236 1080.58 36.432 1080 36.8072 1079.54 37.0989 1078.66 38.3078 1078.08 39.5166L1076.99 41.7676 1077.24 55.1482C1077.41 62.5263 1077.54 72.6139 1077.54 77.5743L1077.54 86.6198 1098.71 86.8282C1113.05 86.9533 1120.35 87.1617 1121.43 87.4952 1124.22 88.3705 1125.43 92.4973 1125.47 101.168 1125.47 106.211 1124.77 108.504 1122.89 109.463 1120.72 110.588 1115.18 110.88 1096.17 110.88L1077.5 110.88 1077.75 130.597C1077.91 141.393 1078.2 150.855 1078.41 151.605 1079.08 153.69 1081.12 156.232 1083.04 157.233L1084.83 158.192 1118.18 158.4C1155.53 158.65 1154.03 158.525 1155.32 161.526 1156.11 163.444 1156.86 171.155 1156.65 174.865 1156.4 178.825 1155.61 180.117 1152.9 181.368L1150.69 182.368 1131.73 182.368C1121.31 182.368 1103.96 182.285 1093.17 182.16Z" fill="#ADEE00" transform="matrix(1.00027 0 0 -1 0.388962 459)"/><path d="M1169.83 181.993C1169.12 181.66 1168.12 180.909 1167.62 180.243 1166.07 178.283 1166.74 175.866 1171.12 167.654 1172.54 164.986 1174.95 160.359 1176.54 157.358 1178.08 154.398 1180.16 150.438 1181.12 148.604 1189.67 132.514 1208.3 96.9992 1209.05 95.4568L1209.72 93.9979 1198.42 72.3221C1192.17 60.4004 1183.29 43.3933 1178.62 34.5562 1173.95 25.7192 1170.03 18.0493 1169.91 17.5907 1169.53 16.4236 1170.58 14.0893 1171.95 13.0055 1173.04 12.1301 1173.54 12.0884 1181.5 12.0884 1189.42 12.0884 1190 12.1301 1191.96 13.0888 1195.46 14.7145 1193.38 11.2131 1212.8 48.5621 1217.85 58.1912 1222.26 66.6114 1222.64 67.2366L1223.35 68.4038 1225.64 64.1103C1226.89 61.7343 1228.98 57.7743 1230.31 55.2316 1231.64 52.7305 1233.44 49.3541 1234.27 47.7284 1235.14 46.1444 1237.1 42.3928 1238.65 39.3916 1240.19 36.432 1241.98 33.0556 1242.61 31.8884 1243.23 30.7629 1245.11 27.1781 1246.77 23.9684 1250.94 15.9651 1251.19 15.5899 1254.03 14.1726L1256.49 12.9221 1264.95 12.9221 1273.37 12.9221 1274.66 14.0059C1275.37 14.5895 1276.16 15.7983 1276.41 16.6737 1276.91 18.3827 1277.16 17.8825 1269.7 31.8884 1259.91 50.3128 1237.06 94.0396 1237.06 94.3731 1237.06 94.6232 1241.56 103.46 1247.07 114.006 1276.16 169.655 1278.08 173.365 1278.54 175.699 1278.95 177.825 1278.91 178.158 1278.16 179.159 1277.75 179.784 1276.66 180.618 1275.79 181.076 1274.37 181.785 1273.54 181.827 1265.7 181.535 1257.36 181.243 1257.15 181.201 1255.7 180.117 1254.44 179.2 1251.82 174.532 1238.9 149.855 1230.48 133.806 1223.43 120.717 1223.22 120.759 1223.06 120.759 1215.89 134.098 1207.34 150.355 1195.5 172.823 1191.46 180.117 1190.46 180.909 1189.29 181.827 1188.58 181.952 1184.08 182.202 1176.04 182.702 1171.24 182.619 1169.83 181.993Z" fill="#ADEE00" transform="matrix(1.00027 0 0 -1 0.388962 459)"/><path d="M108.587 181.035C107.92 180.951 105.878 180.493 104.127 180.076 96.7074 178.242 91.1634 174.073 81.9512 163.319 79.0749 159.984 76.6989 157.149 76.6989 157.066 76.6989 156.983 77.9495 157.483 79.5335 158.233 85.6194 161.151 96.1238 162.985 102.585 162.235 109.213 161.443 117.133 157.233 123.802 151.022 125.803 149.104 127.595 147.562 127.72 147.562 128.137 147.562 126.72 151.022 125.261 153.44 122.01 158.733 116.883 164.778 112.839 168.029 108.421 171.572 113.214 168.946 122.76 162.61 134.056 155.065 136.057 154.232 142.768 154.232 150.855 154.232 155.732 156.983 160.859 164.444 162.985 167.487 165.195 171.739 164.861 172.072 164.778 172.197 163.402 171.656 161.86 170.905 157.733 168.946 155.649 168.404 152.314 168.404 148.229 168.404 145.144 169.446 135.765 173.865 126.178 178.408 122.343 179.992 118.8 180.743 116.257 181.285 111.38 181.41 108.587 181.035Z" fill="#ADEE00" transform="matrix(1.00027 0 0 -1 0.388962 459)"/><path d="M55.3566 172.406C52.6888 171.447 50.2712 169.821 47.8535 167.237 45.0606 164.319 44.5604 162.777 46.8114 164.152 49.1457 165.611 51.1465 165.653 56.0653 164.444 61.1507 163.194 62.4429 163.319 63.9853 165.153 67.6118 169.446 61.5259 174.615 55.3566 172.406Z" fill="#ADEE00" transform="matrix(1.00027 0 0 -1 0.388962 459)"/><path d="M916.928 164.778C904.089 151.981 904.381 152.564 903.755 139.184 903.505 134.056 903.213 125.97 903.047 121.218L902.755 112.589 886.456 112.422C868.782 112.256 866.698 112.047 862.113 109.796 859.153 108.337 857.277 106.545 838.436 87.245 823.055 71.4467 822.471 70.7798 821.637 68.2787 820.804 65.7777 820.762 64.9857 820.762 42.3512 820.762 20.0918 820.804 18.8829 821.596 17.1739 822.888 14.2977 824.764 13.7141 832.225 13.7141 840.604 13.7141 842.521 14.1309 843.772 16.3402 844.189 17.0905 844.355 23.4265 844.522 44.3937 844.731 66.6531 844.856 71.7385 845.356 72.864 845.689 73.6143 846.106 74.1562 846.273 74.1145 846.565 73.9895 857.027 62.9848 880.621 37.9326 889.374 28.6371 897.461 20.1752 898.587 19.0914 901.004 16.8404 903.255 16.0484 908.757 15.4232 913.384 14.8813 923.555 15.5065 925.348 16.4236 927.807 17.7158 928.474 19.8834 927.307 22.6345 927.015 23.3848 924.514 26.3027 921.805 29.1789 914.427 36.9739 884.706 68.4872 875.077 78.7415 868.282 85.9945 866.781 87.7869 867.365 88.037 867.74 88.1621 877.369 88.3288 888.707 88.3705 911.675 88.4122 920.012 88.7457 921.888 89.7461 923.389 90.5381 924.639 91.872 925.598 93.7478 926.432 95.4152 926.307 92.5806 927.724 137.683 928.599 164.653 928.682 171.906 928.307 172.364 928.016 172.698 927.224 172.989 926.515 172.989 925.389 172.989 924.097 171.864 916.928 164.778Z" fill="#ADEE00" transform="matrix(1.00027 0 0 -1 0.388962 459)"/><path d="M682.245 164.361C669.407 151.564 669.699 152.147 669.073 138.767 668.823 133.64 668.531 125.553 668.365 120.801L668.073 112.172 651.774 112.005C634.1 111.839 632.016 111.63 627.431 109.379 624.471 107.92 622.595 106.128 603.754 86.8282 588.373 71.0299 587.789 70.3629 586.955 67.8619 586.122 65.3608 586.08 64.5688 586.08 41.9343 586.08 19.6749 586.122 18.4661 586.914 16.7571 588.206 13.8808 590.082 13.2973 597.543 13.2973 605.922 13.2973 607.839 13.7141 609.09 15.9234 609.507 16.6737 609.673 22.968 609.84 43.9768 610.048 70.8215 610.048 71.0716 610.965 73.0724 614.467 80.5339 619.136 84.3688 627.597 86.7448 630.765 87.6202 631.849 87.6619 657.36 87.9537 671.908 88.1204 684.121 88.3705 684.455 88.4956 684.788 88.6206 685.58 88.8291 686.205 88.9541 687.748 89.2876 689.749 91.08 690.791 93.0808 691.791 95.0817 691.583 91.4135 693.042 137.266 693.917 164.236 694 171.489 693.625 171.947 693.333 172.281 692.541 172.573 691.833 172.573 690.707 172.573 689.415 171.447 682.245 164.361Z" fill="#ADEE00" transform="matrix(1.00027 0 0 -1 0.388962 459)"/><path d="M805.672 161.86C804.047 160.276 799.587 155.691 795.71 151.605 788.874 144.394 788.665 144.102 787.748 141.184L786.789 138.183 786.789 87.3284 786.789 36.4737 763.238 36.2653C741.937 36.0568 739.478 35.9318 737.394 35.2648 735.351 34.5979 734.267 33.6808 727.431 26.928 716.301 15.9651 715.176 14.2977 717.427 12.0467 718.261 11.2131 718.344 11.2131 761.696 11.3798 794.668 11.4632 805.506 11.6299 806.673 12.0051 808.465 12.6303 809.674 14.1309 810.424 16.7154 811.133 19.2998 811.425 163.194 810.716 164.069 809.799 165.195 808.59 164.653 805.672 161.86Z" fill="#ADEE00" transform="matrix(1.00027 0 0 -1 0.388962 459)"/><path d="M96.0821 151.064C89.8295 150.021 84.2438 147.354 76.4072 141.56 73.1558 139.142 69.7377 136.808 68.8206 136.307 64.7356 134.223 56.4821 133.556 51.5217 134.848 46.9781 136.057 42.3095 138.558 39.3916 141.351 37.8909 142.768 36.5571 143.811 36.432 143.685 35.9735 143.269 37.3491 140.059 39.1415 137.349 44.8522 128.721 51.6884 123.469 60.192 121.301 66.0695 119.8 71.3634 120.259 79.6168 122.968 89.2876 126.095 97.5827 124.386 103.419 118.05 104.794 116.549 105.836 115.299 105.795 115.215 105.711 115.173 104.461 115.424 102.96 115.715 101.126 116.132 99.0417 116.257 96.4989 116.091 88.4122 115.549 84.2855 114.048 76.9491 108.879 70.2379 104.127 65.6109 101.418 62.3179 100.251 56.8573 98.3331 50.4796 98.9583 38.3495 102.668 25.5941 106.545 17.1739 106.837 10.0876 103.585 7.00295 102.168 0.416842 97.9996 0.416842 97.4577 0.416842 97.2076 0.792 97.1659 1.37558 97.3326 6.96126 99.0834 12.672 99.1251 18.7579 97.416 24.5103 95.7903 29.4291 92.9141 40.0168 85.0358 48.6038 78.6581 53.7726 76.6989 62.0261 76.6573 69.4459 76.6156 72.6139 77.5743 83.8686 83.3267 92.2888 87.6202 96.4573 88.9541 101.501 88.9958 104.627 88.9958 105.795 88.7874 108.504 87.7869 116.799 84.744 122.885 78.4497 125.219 70.5297 125.845 68.4038 125.803 68.2787 125.136 68.5705 124.761 68.6956 122.843 69.3208 120.884 69.9461 117.633 70.9465 116.757 71.0299 110.046 71.0299 103.21 71.0299 102.543 70.9465 99.4168 69.9044 92.3305 67.5284 86.2863 62.8598 83.035 57.2741 81.0341 53.7309 79.3667 49.6042 79.0333 47.1032L78.7415 45.2274 80.1171 46.8947C83.4518 50.9798 86.2863 52.9389 90.9966 54.3979 100.667 57.4825 113.089 53.7309 128.512 43.1015 133.014 39.9752 144.311 31.1798 144.061 30.9714 143.977 30.8463 142.227 30.9714 140.184 31.2215 132.014 32.2219 121.718 31.5133 116.549 29.5541 113.548 28.4703 108.629 25.1773 106.461 22.8846 104.711 21.0088 102.543 18.0076 102.543 17.424 102.543 16.7987 103.669 17.0905 105.503 18.0909 110.088 20.6337 117.883 21.5507 123.177 20.2168 126.803 19.2998 132.931 16.0067 139.559 11.5048 148.979 5.04379 152.106 3.50147 159.234 1.66737 171.197-1.37558 182.91 0.625263 190.83 7.08632L193.456 9.25389 188.538 12.1718C180.993 16.6737 174.615 21.6758 168.196 28.0952 155.774 40.5587 147.395 54.3979 142.643 70.2379 140.601 77.1158 140.059 79.7002 138.767 88.7457 138.308 92.0804 137.85 94.9149 137.766 95.04 137.683 95.1651 137.224 98.7499 136.724 102.96 134.473 122.51 130.43 133.139 121.885 141.976 117.966 145.978 112.339 149.355 107.545 150.438 105.378 150.939 97.9162 151.355 96.0821 151.064Z" fill="#ADEE00" transform="matrix(1.00027 0 0 -1 0.388962 459)"/><path d="M23.76 128.262C21.8008 127.22 19.3415 124.552 19.7583 123.885 19.9251 123.594 20.4669 123.635 21.2589 123.927 22.2594 124.302 23.0931 124.261 25.4274 123.635 27.8867 123.01 28.4703 122.968 29.4707 123.469 30.4295 123.927 30.6796 124.302 30.7629 125.761 30.888 127.387 30.7629 127.595 29.5124 128.387 27.72 129.471 25.9693 129.429 23.76 128.262Z" fill="#ADEE00" transform="matrix(1.00027 0 0 -1 0.388962 459)"/><path d="M474.533 121.051C471.782 119.592 470.656 118.508 469.614 116.299 468.739 114.423 468.739 114.173 468.614 72.3638L468.489 30.3044 470.49 32.0968C471.615 33.0973 476.492 37.8076 481.369 42.6013L490.29 51.2299 490.498 74.2813C490.581 86.9533 490.748 97.5411 490.832 97.8328 490.957 98.208 495 98.3747 506.338 98.4581 516.676 98.5415 522.053 98.7499 522.762 99.0834 523.387 99.3335 527.764 103.377 532.474 108.045L541.103 116.507 540.978 118.383C540.853 119.967 540.686 120.342 539.394 121.093 537.976 121.926 537.309 121.926 507.255 122.051L476.617 122.135 474.533 121.051Z" fill="#ADEE00" transform="matrix(1.00027 0 0 -1 0.388962 459)"/><path d="M70.1962 65.2358C69.4042 64.0269 69.7377 62.7347 71.0716 61.8594 73.2808 60.4004 75.8653 63.6935 73.9895 65.6109 72.9474 66.6531 70.9882 66.4446 70.1962 65.2358Z" fill="#ADEE00" transform="matrix(1.00027 0 0 -1 0.388962 459)"/><path d="M52.5221 56.8989C49.7293 56.1903 46.8531 56.1069 45.0606 56.7322 42.6429 57.5659 42.6013 56.6072 44.9356 54.1061 50.3545 48.3954 58.0661 46.6029 60.4421 50.5629 61.6509 52.4804 61.5259 54.3145 60.1086 55.8985 59.1499 56.9823 58.5663 57.2324 56.8573 57.3575 55.7318 57.4408 53.7726 57.2324 52.5221 56.8989Z" fill="#ADEE00" transform="matrix(1.00027 0 0 -1 0.388962 459)"/><path d="M532.933 40.8505C524.221 40.6838 513.424 40.5171 508.964 40.4754L500.794 40.4337 489.039 28.9288C482.578 22.5928 477.284 17.2989 477.284 17.0905 477.284 16.1735 484.704 16.0484 516.801 16.5486 540.394 16.8821 551.565 17.1739 552.566 17.5074 554.442 18.1326 558.36 21.8008 563.779 27.9701 568.989 33.8893 571.491 37.224 571.491 38.2661 571.491 38.7246 571.115 39.5166 570.699 40.0585L569.906 41.0589 559.319 41.1006C553.525 41.1006 541.645 41.0173 532.933 40.8505Z" fill="#ADEE00" transform="matrix(1.00027 0 0 -1 0.388962 459)"/></g></svg>