<?xml version="1.0" standalone="no"?>
<!DOCTYPE svg PUBLIC "-//W3C//DTD SVG 20010904//EN"
 "http://www.w3.org/TR/2001/REC-SVG-20010904/DTD/svg10.dtd">
<svg version="1.0" xmlns="http://www.w3.org/2000/svg"
 width="3000.000000pt" height="3000.000000pt" viewBox="0 0 3000.000000 3000.000000"
 preserveAspectRatio="xMidYMid meet">

<g transform="translate(0.000000,3000.000000) scale(0.100000,-0.100000)"
fill="#000000" stroke="none">
<path d="M15487 27130 c7 -25 19 -34 28 -20 7 11 -11 40 -25 40 -5 0 -6 -9 -3
-20z"/>
<path d="M12515 26229 c-951 -42 -1877 -273 -2742 -685 -152 -72 -225 -117
-277 -168 -30 -31 -36 -44 -36 -79 0 -34 6 -49 28 -70 56 -54 109 -58 297 -21
354 68 336 66 637 71 318 6 456 -3 688 -43 550 -97 864 -253 1376 -684 148
-125 392 -370 464 -465 148 -198 271 -416 353 -625 241 -612 393 -1303 449
-2040 16 -215 16 -849 0 -1055 -114 -1419 -548 -2597 -1283 -3480 -115 -138
-352 -373 -484 -479 -252 -202 -558 -380 -818 -475 -148 -54 -327 -101 -347
-91 -33 18 -291 263 -374 356 -787 881 -1257 2081 -1383 3529 -21 248 -24 879
-5 1125 70 901 264 1668 612 2415 135 290 144 327 89 390 -63 72 -112 50 -394
-176 -373 -300 -681 -586 -994 -924 -1144 -1239 -1994 -2815 -2476 -4595 -223
-821 -363 -1689 -421 -2605 -23 -365 -23 -1162 0 -1535 79 -1267 318 -2444
721 -3560 907 -2505 2549 -4460 4594 -5468 516 -255 988 -447 1368 -556 304
-87 435 -108 703 -109 212 -2 303 26 357 107 88 133 -8 291 -252 414 -57 28
-237 102 -250 102 -4 0 -58 22 -121 50 -63 27 -158 66 -212 86 -191 72 -628
297 -897 463 -156 97 -385 255 -505 350 -252 198 -663 644 -956 1036 -143 191
-238 329 -366 530 -202 318 -440 756 -586 1076 -530 1163 -848 2393 -957 3694
-23 275 -24 303 -31 707 -12 648 26 1188 126 1802 38 233 112 597 136 665 3 8
38 -84 79 -206 293 -873 703 -1604 1241 -2213 213 -242 568 -558 765 -682 140
-88 314 -149 543 -190 314 -56 765 1 1181 150 61 22 205 73 320 114 316 113
486 185 733 311 992 506 1951 1374 2723 2467 158 223 249 361 421 640 267 431
614 1123 803 1600 20 52 43 109 51 125 33 76 168 447 244 673 32 96 61 176 64
179 6 7 37 -54 145 -291 472 -1025 762 -2101 885 -3286 39 -368 51 -639 51
-1115 0 -488 -12 -722 -56 -1145 -63 -599 -138 -1005 -323 -1740 -124 -491
-153 -674 -135 -856 27 -289 117 -437 340 -557 119 -65 189 -82 324 -81 187 1
280 26 496 135 75 38 194 106 265 151 71 45 197 123 279 173 83 50 186 113
230 140 318 194 736 528 1074 859 107 106 390 406 418 445 21 29 -30 -209
-112 -519 -488 -1855 -1395 -3528 -2530 -4665 -421 -422 -815 -724 -1275 -980
-192 -107 -220 -129 -250 -190 -40 -83 -19 -169 54 -214 47 -29 197 -40 481
-36 285 4 433 25 800 115 260 63 450 131 905 322 208 88 555 277 765 418 616
412 1220 999 1746 1695 77 101 89 119 237 331 150 215 371 566 482 764 26 47
60 108 76 135 75 134 114 209 232 445 116 232 172 349 231 483 12 26 29 66 40
90 64 145 97 224 132 312 22 55 44 109 48 120 59 135 173 448 264 725 231 696
369 1247 526 2085 45 242 112 740 145 1080 8 79 36 465 46 630 8 150 6 1219
-3 1285 -3 19 -8 82 -12 140 -42 688 -200 1606 -347 2015 -67 186 -191 386
-321 518 -99 101 -169 154 -262 200 -108 53 -141 61 -256 62 -100 0 -107 -1
-141 -27 -20 -15 -41 -42 -47 -60 -11 -34 -29 -191 -56 -483 -22 -240 -20
-223 -54 -515 -44 -375 -88 -622 -177 -1009 -38 -161 -153 -546 -199 -666 -15
-38 -44 -118 -65 -176 -85 -236 -344 -789 -452 -962 -26 -43 -48 -80 -48 -82
0 -9 -114 -192 -164 -264 -29 -42 -74 -107 -100 -145 -115 -169 -344 -438
-511 -600 -129 -126 -390 -335 -402 -322 -3 3 18 130 45 283 124 674 187 1288
212 2055 15 460 -11 1106 -66 1643 -332 3259 -1868 6137 -4158 7789 -1069 772
-2300 1247 -3534 1366 -185 18 -636 42 -702 38 -14 0 -110 -5 -215 -9z"/>
</g>
</svg>
