<?xml version="1.0" standalone="no"?>
<!DOCTYPE svg PUBLIC "-//W3C//DTD SVG 20010904//EN"
 "http://www.w3.org/TR/2001/REC-SVG-20010904/DTD/svg10.dtd">
<svg version="1.0" xmlns="http://www.w3.org/2000/svg"
 width="980.000000pt" height="980.000000pt" viewBox="0 0 980.000000 980.000000"
 preserveAspectRatio="xMidYMid meet">

<g transform="translate(0.000000,980.000000) scale(0.100000,-0.100000)"
fill="#000000" stroke="none">
<path d="M4636 9294 c-315 -49 -618 -181 -861 -377 -110 -89 -267 -254 -347
-367 -84 -118 -197 -342 -242 -480 -212 -644 -54 -1343 413 -1833 149 -156
321 -280 524 -377 632 -303 1366 -216 1913 226 267 216 473 514 580 840 145
445 114 932 -87 1353 -263 552 -777 930 -1380 1016 -129 18 -393 18 -513 -1z"/>
<path d="M6272 6147 c-341 -345 -773 -545 -1246 -576 -553 -37 -1074 159
-1475 556 l-104 103 -328 0 c-254 0 -344 -3 -400 -15 -144 -30 -265 -94 -363
-190 -107 -105 -132 -164 -170 -405 -48 -308 -87 -546 -92 -572 l-6 -28 2812
0 2812 0 -6 28 c-3 15 -32 191 -65 392 -34 210 -68 388 -80 420 -58 154 -243
295 -456 349 -71 18 -117 21 -413 23 l-332 3 -88 -88z"/>
<path d="M1761 4915 c-86 -27 -150 -117 -151 -210 0 -27 36 -390 80 -805 44
-415 125 -1178 180 -1695 54 -517 103 -952 109 -966 15 -40 69 -98 115 -122
l41 -22 2744 -3 c1866 -1 2756 1 2782 8 52 14 119 68 146 116 24 43 18 -7 178
1494 103 963 205 1957 205 1995 0 94 -66 184 -154 210 -72 22 -6206 21 -6275
0z m3254 -810 c130 -34 247 -129 303 -245 171 -360 -133 -751 -520 -669 -234
50 -400 295 -360 531 48 276 312 452 577 383z"/>
<path d="M1725 981 c-83 -38 -105 -89 -105 -243 0 -137 18 -184 84 -223 l43
-25 3152 0 c2694 0 3156 2 3179 14 38 20 77 65 91 105 6 19 11 81 11 138 0
144 -23 197 -105 234 -39 18 -154 19 -3175 19 -3021 0 -3136 -1 -3175 -19z"/>
</g>
</svg>
