<?xml version="1.0" standalone="no"?>
<!DOCTYPE svg PUBLIC "-//W3C//DTD SVG 20010904//EN"
 "http://www.w3.org/TR/2001/REC-SVG-20010904/DTD/svg10.dtd">
<svg version="1.0" xmlns="http://www.w3.org/2000/svg"
 width="980.000000pt" height="980.000000pt" viewBox="0 0 980.000000 980.000000"
 preserveAspectRatio="xMidYMid meet">

<g transform="translate(0.000000,980.000000) scale(0.100000,-0.100000)"
fill="#000000" stroke="none">
<path d="M4362 9284 c-58 -29 -96 -69 -126 -134 -19 -42 -21 -66 -24 -316 l-3
-271 -107 -28 c-291 -75 -641 -225 -863 -368 l-54 -35 -195 192 c-173 172
-201 195 -249 211 -66 22 -150 16 -208 -13 -60 -31 -690 -674 -717 -732 -14
-30 -20 -66 -21 -110 0 -107 26 -147 233 -354 l180 -178 -61 -102 c-72 -120
-169 -321 -225 -466 -35 -90 -119 -367 -136 -452 l-6 -27 -283 -3 -284 -3 -49
-30 c-59 -37 -108 -107 -123 -175 -15 -69 -15 -891 0 -960 15 -68 64 -138 123
-175 l49 -30 284 -3 283 -3 6 -27 c22 -103 84 -308 126 -422 58 -157 175 -401
247 -515 l50 -80 -123 -125 c-283 -289 -290 -299 -290 -410 0 -45 6 -79 20
-110 22 -47 148 -190 167 -190 7 0 25 35 41 78 76 204 213 454 328 598 72 90
191 201 279 259 l69 47 353 60 c193 33 358 62 366 64 9 3 -4 23 -41 62 -64 68
-124 146 -200 262 -155 234 -256 497 -309 796 -30 172 -33 492 -5 659 86 521
332 958 729 1291 270 227 597 380 957 446 156 29 534 32 680 5 404 -75 724
-227 1025 -488 355 -308 589 -730 682 -1229 27 -149 25 -535 -4 -695 -73 -401
-244 -751 -517 -1060 -20 -22 -32 -42 -28 -46 4 -3 165 -33 357 -65 l350 -59
85 -57 c236 -156 446 -452 595 -838 18 -46 37 -86 42 -87 6 -2 44 32 85 75 57
60 80 92 93 132 21 63 17 148 -10 205 -11 23 -94 117 -202 226 -101 102 -183
189 -183 192 0 4 18 37 41 74 63 103 182 345 233 475 44 112 95 276 133 423
l18 70 281 5 281 5 48 30 c66 41 101 89 120 162 14 53 16 129 13 525 l-3 463
-27 51 c-15 28 -42 64 -61 81 -66 58 -95 63 -387 65 l-265 3 -36 139 c-79 297
-203 592 -351 834 -21 34 -38 66 -38 70 0 4 79 86 176 182 96 96 187 194 201
217 47 81 41 211 -14 285 -47 65 -668 678 -702 695 -54 25 -140 29 -203 7 -47
-16 -76 -41 -246 -211 l-192 -194 -43 29 c-207 142 -602 310 -894 382 l-93 22
0 262 c0 295 -5 323 -67 396 -21 24 -60 53 -87 66 l-51 24 -486 0 -485 0 -52
-26z"/>
<path d="M4649 7125 c-372 -60 -686 -221 -949 -485 -153 -153 -239 -272 -329
-455 -75 -150 -117 -270 -153 -436 -20 -92 -22 -132 -22 -339 0 -266 11 -343
84 -561 168 -506 577 -915 1081 -1083 201 -67 287 -80 539 -80 197 0 238 2
330 22 713 155 1235 693 1361 1403 29 164 31 414 5 574 -62 376 -235 706 -512
975 -236 229 -529 384 -853 452 -128 26 -456 34 -582 13z"/>
<path d="M3284 3816 l-540 -91 -65 -43 c-325 -215 -584 -714 -743 -1427 -106
-479 -173 -1062 -189 -1657 l-3 -108 3160 0 3159 0 -7 173 c-26 642 -97 1219
-207 1676 -32 135 -105 377 -142 476 -69 181 -78 202 -137 319 -104 206 -229
374 -363 486 -128 108 -93 98 -682 194 -291 48 -539 89 -550 91 -11 3 -49 -15
-95 -44 -181 -116 -394 -204 -621 -255 -17 -4 -41 -27 -68 -66 -41 -58 -43
-64 -37 -113 3 -29 60 -535 126 -1125 l120 -1073 -58 -67 c-33 -37 -144 -164
-247 -282 -103 -118 -190 -216 -194 -217 -3 -1 -117 126 -252 283 l-245 285
103 917 c56 504 113 1011 126 1125 l23 208 -44 59 c-36 49 -51 62 -85 70 -242
60 -446 146 -620 261 -32 22 -64 38 -70 38 -7 -1 -255 -42 -553 -93z"/>
</g>
</svg>
