<?xml version="1.0" standalone="no"?>
<!DOCTYPE svg PUBLIC "-//W3C//DTD SVG 20010904//EN"
 "http://www.w3.org/TR/2001/REC-SVG-20010904/DTD/svg10.dtd">
<svg version="1.0" xmlns="http://www.w3.org/2000/svg"
 width="512.000000pt" height="512.000000pt" viewBox="0 0 512.000000 512.000000"
 preserveAspectRatio="xMidYMid meet">

<g transform="translate(0.000000,512.000000) scale(0.100000,-0.100000)"
fill="#000000" stroke="none">
<path d="M2370 5004 c-114 -11 -276 -38 -388 -65 -890 -217 -1584 -911 -1801
-1801 -52 -214 -65 -329 -65 -578 0 -249 13 -364 65 -578 217 -890 911 -1584
1801 -1801 214 -52 329 -65 578 -65 249 0 364 13 578 65 890 217 1584 911
1801 1801 52 214 65 329 65 578 0 249 -13 364 -65 578 -197 807 -792 1463
-1577 1736 -126 44 -314 90 -452 111 -101 15 -447 27 -540 19z m405 -414 c708
-79 1322 -517 1629 -1160 224 -471 258 -1012 94 -1505 -278 -838 -1060 -1405
-1938 -1405 -786 0 -1503 455 -1844 1170 -262 551 -262 1189 0 1740 204 428
546 770 974 974 198 94 429 160 640 185 107 12 339 13 445 1z"/>
<path d="M2497 3770 c-41 -13 -94 -56 -115 -93 -15 -29 -18 -78 -22 -472 l-5
-440 -440 -5 c-498 -6 -479 -3 -540 -89 -26 -37 -30 -51 -30 -111 0 -60 4 -74
30 -111 61 -86 42 -83 540 -89 l440 -5 5 -440 c6 -498 3 -479 89 -540 37 -26
51 -30 111 -30 60 0 74 4 111 30 86 61 83 42 89 540 l5 440 440 5 c498 6 479
3 540 89 26 37 30 51 30 111 0 60 -4 74 -30 111 -61 86 -42 83 -540 89 l-440
5 -5 440 c-5 421 -6 442 -25 475 -32 54 -91 90 -156 95 -29 3 -67 0 -82 -5z"/>
</g>
</svg>
