<?xml version="1.0" standalone="no"?>
<!DOCTYPE svg PUBLIC "-//W3C//DTD SVG 20010904//EN"
 "http://www.w3.org/TR/2001/REC-SVG-20010904/DTD/svg10.dtd">
<svg version="1.0" xmlns="http://www.w3.org/2000/svg"
 width="980.000000pt" height="980.000000pt" viewBox="0 0 980.000000 980.000000"
 preserveAspectRatio="xMidYMid meet">

<g transform="translate(0.000000,980.000000) scale(0.100000,-0.100000)"
fill="#000000" stroke="none">
<path d="M4866 8423 c-120 -1193 -251 -1833 -466 -2263 -237 -477 -574 -739
-1195 -928 -374 -115 -974 -212 -1827 -298 -153 -15 -278 -30 -278 -34 0 -3
125 -18 278 -34 1311 -134 1928 -270 2372 -524 222 -127 413 -307 547 -515
229 -357 371 -864 488 -1737 20 -149 80 -687 96 -857 7 -73 15 -133 19 -133 3
0 16 102 29 228 182 1819 395 2477 936 2893 126 97 362 221 545 287 431 156
1136 278 2158 373 72 7 132 15 132 19 0 4 -60 12 -132 19 -298 28 -793 86
-1043 122 -1188 171 -1734 436 -2061 999 -256 441 -396 1069 -530 2383 -16
152 -31 277 -34 277 -4 0 -19 -125 -34 -277z"/>
</g>
</svg>
