<?xml version="1.0" standalone="no"?>
<!DOCTYPE svg PUBLIC "-//W3C//DTD SVG 20010904//EN"
 "http://www.w3.org/TR/2001/REC-SVG-20010904/DTD/svg10.dtd">
<svg version="1.0" xmlns="http://www.w3.org/2000/svg"
 width="980.000000pt" height="980.000000pt" viewBox="0 0 980.000000 980.000000"
 preserveAspectRatio="xMidYMid meet">

<g transform="translate(0.000000,980.000000) scale(0.100000,-0.100000)"
fill="#000000" stroke="none">
<path d="M4575 9304 c-544 -56 -894 -138 -1336 -314 -1295 -517 -2292 -1670
-2624 -3034 -98 -401 -130 -697 -122 -1136 7 -401 39 -645 128 -1003 79 -314
171 -563 324 -872 429 -871 1117 -1561 1991 -1998 464 -232 941 -371 1509
-439 149 -18 749 -18 910 0 1027 115 1941 550 2660 1267 366 365 637 748 866
1220 215 445 353 931 411 1450 18 162 18 748 0 910 -81 723 -315 1376 -708
1975 -411 627 -988 1145 -1659 1491 -483 249 -953 393 -1515 465 -119 15 -733
28 -835 18z m500 -984 c511 -29 974 -155 1415 -387 126 -66 305 -174 370 -223
19 -15 74 -56 121 -91 204 -152 456 -401 622 -614 633 -814 865 -1865 635
-2875 -110 -487 -336 -955 -658 -1364 -111 -141 -359 -394 -483 -494 -40 -31
-74 -60 -77 -63 -17 -21 -245 -178 -350 -241 -444 -267 -917 -424 -1445 -479
-144 -15 -509 -15 -655 0 -942 97 -1773 552 -2359 1292 -766 967 -949 2278
-478 3425 88 215 177 380 323 599 415 625 1032 1098 1749 1342 284 96 648 164
950 176 39 2 86 4 105 5 19 1 116 -3 215 -8z"/>
<path d="M4876 6998 c-97 -961 -215 -1363 -476 -1617 -203 -199 -518 -314
-1080 -395 -193 -28 -619 -76 -671 -76 -19 0 -29 -4 -23 -9 5 -5 65 -14 134
-20 1063 -102 1487 -241 1732 -564 153 -204 251 -505 322 -997 25 -173 59
-463 72 -612 4 -43 10 -78 14 -78 3 0 12 57 19 128 20 208 69 592 96 747 148
861 427 1134 1309 1285 139 24 536 74 719 91 70 7 127 15 127 19 0 4 -57 12
-127 19 -1212 118 -1610 277 -1840 736 -129 256 -216 680 -284 1388 -7 70 -15
127 -19 127 -3 0 -14 -78 -24 -172z"/>
</g>
</svg>
