<?xml version="1.0" standalone="no"?>
<!DOCTYPE svg PUBLIC "-//W3C//DTD SVG 20010904//EN"
 "http://www.w3.org/TR/2001/REC-SVG-20010904/DTD/svg10.dtd">
<svg version="1.0" xmlns="http://www.w3.org/2000/svg"
 width="3000.000000pt" height="3000.000000pt" viewBox="0 0 3000.000000 3000.000000"
 preserveAspectRatio="xMidYMid meet">

<g transform="translate(0.000000,3000.000000) scale(0.100000,-0.100000)"
fill="#000000" stroke="none">
<path d="M6945 27415 c-190 -30 -324 -85 -446 -182 -145 -116 -253 -288 -305
-488 l-27 -100 3 -546 c1 -301 -2 -549 -7 -552 -4 -3 -373 -8 -818 -11 -815
-7 -1266 -18 -1405 -37 -369 -50 -691 -290 -819 -611 -39 -97 -77 -256 -91
-378 -13 -118 -20 -1158 -10 -1450 42 -1170 280 -2338 708 -3475 172 -458 393
-941 647 -1415 284 -530 634 -1070 1021 -1575 1273 -1661 2908 -2893 4749
-3577 44 -16 175 -61 290 -99 116 -38 278 -99 360 -136 153 -68 464 -246 545
-312 25 -20 79 -61 120 -91 290 -208 545 -500 684 -782 137 -277 207 -535 290
-1063 52 -337 54 -395 26 -935 -5 -107 -14 -350 -20 -540 -36 -1185 -39 -1252
-60 -1329 -36 -130 -101 -234 -172 -274 -40 -23 -120 -47 -688 -206 -224 -63
-245 -70 -475 -169 -272 -116 -387 -176 -623 -324 -264 -165 -583 -423 -775
-628 -96 -102 -296 -350 -364 -451 -202 -300 -366 -687 -474 -1122 -62 -249
-80 -387 -86 -657 -6 -261 7 -403 52 -583 26 -102 81 -245 118 -307 89 -150
298 -298 487 -346 112 -28 207 -32 952 -33 400 -1 733 -3 740 -5 7 -3 551 -7
1208 -10 657 -3 1443 -9 1745 -14 836 -11 1440 -9 3395 13 245 3 1001 8 1680
11 679 3 1278 10 1330 14 126 13 197 32 305 84 112 53 229 146 294 234 187
249 259 799 175 1332 -23 145 -107 481 -155 615 -57 162 -157 395 -230 535
-148 283 -432 636 -714 887 -369 330 -739 563 -1205 761 -214 90 -270 110
-475 167 -688 191 -691 192 -749 268 -33 43 -84 154 -102 219 -9 34 -17 154
-24 333 -5 154 -14 395 -20 535 -6 140 -15 404 -20 585 -10 302 -19 504 -36
801 -8 133 5 273 52 559 70 423 129 666 215 891 113 294 328 579 634 836 331
279 716 498 1085 615 130 41 372 127 550 196 538 206 1227 561 1765 910 1291
836 2392 1938 3283 3287 643 975 1133 2032 1457 3145 222 764 353 1501 411
2320 22 310 26 1574 6 1749 -40 331 -162 588 -356 749 -137 113 -313 199 -471
232 -137 28 -312 34 -1315 45 -536 6 -981 13 -988 16 -11 3 -13 102 -11 541 1
476 0 547 -16 618 -42 198 -149 388 -278 498 -124 104 -224 155 -386 195
l-106 27 -7990 1 c-6445 2 -8005 0 -8070 -11z m15096 -1952 c6 -903 7 -951 30
-1040 46 -184 118 -312 242 -430 88 -83 169 -134 277 -174 153 -55 180 -57
1225 -63 528 -4 1053 -9 1167 -13 l208 -6 6 -35 c11 -57 -4 -730 -20 -932
-150 -1855 -865 -3645 -2070 -5180 -802 -1022 -1788 -1858 -2882 -2444 -135
-71 -576 -286 -589 -286 -5 0 -310 -127 -440 -183 -45 -19 -141 -56 -215 -81
-74 -26 -162 -57 -195 -71 -33 -13 -121 -45 -195 -71 -349 -120 -820 -350
-1003 -488 -265 -201 -394 -318 -624 -566 -302 -326 -421 -487 -607 -822 -162
-293 -227 -440 -314 -713 -128 -400 -183 -652 -273 -1265 -26 -177 -32 -256
-36 -445 -4 -194 12 -885 32 -1370 3 -71 17 -492 30 -935 26 -823 32 -919 80
-1198 50 -288 183 -518 375 -649 121 -82 292 -148 475 -182 61 -11 198 -37
305 -57 107 -19 283 -58 390 -84 107 -27 247 -61 310 -75 354 -79 753 -246
1005 -421 284 -196 511 -456 605 -691 17 -41 29 -77 28 -78 -2 -1 -984 -9
-2184 -16 -1739 -11 -2515 -12 -3835 -3 -909 7 -1903 12 -2206 13 -388 1 -553
4 -553 12 0 25 74 180 118 246 149 227 340 409 606 578 199 127 651 305 911
360 44 9 177 41 295 70 118 29 303 70 410 90 373 69 416 78 514 112 258 89
403 206 517 418 79 146 104 242 154 588 25 171 120 2953 112 3282 -5 218 -26
392 -98 805 -79 459 -191 880 -310 1165 -118 284 -355 700 -526 925 -127 166
-491 554 -637 678 -129 111 -299 242 -381 294 -202 129 -597 313 -920 428
-365 130 -521 187 -595 219 -91 40 -348 147 -411 172 -96 37 -460 213 -624
301 -755 404 -1435 911 -2076 1548 -501 498 -874 952 -1278 1560 -927 1393
-1469 2948 -1593 4575 -11 154 -18 888 -8 898 11 11 389 17 1335 23 1186 6
1157 4 1370 112 74 38 107 63 185 142 76 76 104 113 142 185 45 87 75 175 96
280 6 29 12 279 13 608 l2 557 7064 0 7063 0 1 -177z"/>
<path d="M6920 22780 c-307 -5 -317 -7 -416 -65 -56 -33 -123 -97 -157 -151
-54 -87 -94 -259 -84 -369 16 -184 264 -1062 400 -1415 127 -332 211 -539 259
-645 30 -66 70 -154 89 -195 107 -238 337 -666 517 -965 589 -972 1380 -1859
2227 -2496 295 -222 403 -286 561 -331 182 -51 394 -10 515 99 64 57 112 168
124 284 6 60 0 91 -94 452 -56 213 -119 451 -140 530 -22 78 -85 318 -141 532
-56 215 -126 480 -155 590 -30 110 -113 423 -184 695 -71 272 -161 612 -199
755 -38 143 -95 359 -127 480 -31 121 -94 360 -140 530 -45 171 -113 427 -150
570 -151 585 -206 763 -265 855 -45 71 -142 155 -225 196 -141 69 -114 67
-1070 69 -473 0 -988 -1 -1145 -5z"/>
<path d="M21068 22780 c-167 -16 -275 -63 -387 -166 -79 -73 -122 -148 -169
-294 -27 -83 -159 -577 -427 -1595 -73 -277 -325 -1234 -590 -2235 -530 -2008
-498 -1878 -492 -1960 7 -100 51 -208 109 -267 84 -87 272 -151 403 -139 79 8
190 39 271 76 175 79 629 426 1019 779 140 127 534 533 677 698 772 891 1355
1881 1787 3033 139 369 271 800 360 1170 66 276 73 318 66 395 -24 253 -131
409 -331 481 l-69 25 -1070 4 c-588 2 -1109 0 -1157 -5z"/>
</g>
</svg>
