<?xml version="1.0" standalone="no"?>
<!DOCTYPE svg PUBLIC "-//W3C//DTD SVG 20010904//EN"
 "http://www.w3.org/TR/2001/REC-SVG-20010904/DTD/svg10.dtd">
<svg version="1.0" xmlns="http://www.w3.org/2000/svg"
 width="3000.000000pt" height="3000.000000pt" viewBox="0 0 3000.000000 3000.000000"
 preserveAspectRatio="xMidYMid meet">

<g transform="translate(0.000000,3000.000000) scale(0.100000,-0.100000)"
fill="#000000" stroke="none">
<path d="M15058 26837 c-129 -37 -197 -131 -253 -352 -73 -286 -143 -515 -263
-860 -180 -520 -451 -1075 -754 -1544 -617 -955 -1425 -1712 -2398 -2246 -107
-59 -217 -117 -245 -130 -27 -12 -106 -50 -175 -82 -69 -33 -154 -72 -190 -86
-309 -123 -342 -135 -590 -215 -309 -100 -677 -189 -1045 -251 -116 -20 -452
-60 -645 -77 -144 -13 -302 -18 -600 -18 -963 -2 -1214 18 -1717 139 -93 22
-152 19 -209 -11 -129 -67 -179 -157 -337 -595 -363 -1005 -556 -2210 -531
-3314 5 -235 31 -760 39 -805 2 -14 14 -117 25 -230 39 -378 147 -1021 231
-1370 80 -330 115 -467 156 -610 25 -85 56 -193 70 -240 136 -476 438 -1273
668 -1765 162 -346 398 -808 505 -990 26 -44 91 -156 145 -250 434 -753 1106
-1676 1696 -2330 192 -214 307 -333 574 -601 332 -333 548 -533 851 -789 188
-160 291 -243 619 -500 22 -18 139 -103 260 -190 568 -409 1195 -790 1805
-1095 202 -101 287 -141 605 -282 301 -134 895 -352 1205 -443 69 -20 167 -50
217 -65 51 -15 162 -45 247 -66 l155 -37 128 33 c534 137 1165 369 1763 648
504 235 1181 620 1600 911 421 291 664 473 975 728 924 757 1774 1662 2490
2650 179 247 528 775 679 1026 364 606 701 1268 943 1852 132 318 163 395 249
635 47 129 91 251 98 270 68 175 303 987 359 1240 14 63 42 185 61 270 20 85
40 180 45 210 6 30 26 138 45 240 42 226 110 698 131 915 31 319 35 373 45
560 53 1038 -27 2000 -244 2922 -126 534 -344 1188 -448 1348 -19 29 -58 67
-91 90 -54 37 -64 40 -125 40 -44 0 -138 -16 -272 -47 -363 -83 -584 -100
-1335 -102 -569 -1 -666 4 -1085 60 -264 35 -556 89 -745 139 -264 70 -368
101 -550 164 -541 188 -1006 417 -1462 722 -1207 807 -2132 2046 -2640 3539
-133 391 -156 463 -243 775 -52 185 -111 331 -156 383 -48 57 -112 84 -209 88
-48 2 -99 -1 -127 -9z m1872 -6261 c551 -165 1130 -442 1599 -764 819 -561
1478 -1289 1962 -2167 49 -87 86 -161 84 -163 -2 -2 -171 88 -377 199 -690
374 -756 408 -799 418 -102 23 -231 -16 -284 -85 -53 -69 -93 -170 -99 -252
-7 -85 -68 -1079 -91 -1482 -8 -140 -22 -369 -31 -508 -15 -236 -15 -260 1
-340 10 -53 27 -104 44 -132 23 -37 592 -803 1217 -1635 78 -104 155 -199 171
-211 15 -12 57 -36 93 -55 56 -29 75 -34 135 -34 125 0 212 67 300 231 192
357 429 791 436 799 24 25 -5 -486 -46 -815 -87 -704 -316 -1463 -632 -2094
-117 -233 -284 -524 -396 -688 -24 -35 -62 -91 -86 -126 -24 -35 -45 -62 -47
-60 -2 3 26 236 61 519 42 324 63 529 59 554 -8 56 -45 134 -82 177 -45 50
-111 76 -218 83 l-89 7 -225 -72 c-124 -39 -353 -112 -510 -161 -419 -132
-857 -271 -1090 -346 -113 -36 -238 -76 -279 -89 -85 -27 -193 -89 -238 -136
-17 -18 -119 -177 -228 -353 -109 -176 -255 -412 -325 -525 -586 -944 -658
-1064 -676 -1125 -26 -89 -24 -199 4 -257 24 -49 91 -112 152 -143 24 -12 204
-42 580 -96 300 -43 556 -81 568 -85 20 -6 4 -15 -90 -54 -422 -175 -904 -306
-1358 -370 -329 -47 -570 -63 -935 -63 -389 -1 -573 10 -905 53 -420 55 -798
143 -1215 283 -154 52 -375 139 -375 147 0 4 194 34 430 68 469 66 482 69 559
143 61 59 85 117 84 204 -1 116 -22 170 -129 342 -198 320 -539 871 -604 978
-176 288 -485 783 -502 804 -10 14 -53 46 -94 73 -82 53 -26 33 -999 341 -165
53 -437 139 -605 192 -704 223 -646 207 -735 202 -44 -2 -99 -10 -123 -17 -86
-26 -159 -117 -183 -229 -8 -41 -4 -103 31 -377 22 -181 43 -342 46 -359 5
-27 4 -28 -10 -15 -8 8 -45 62 -82 120 -443 700 -763 1543 -893 2355 -48 302
-94 756 -78 771 3 3 25 -32 50 -78 268 -495 343 -628 370 -656 18 -18 57 -48
87 -65 48 -28 64 -32 125 -32 63 0 78 4 143 40 40 22 85 51 101 65 15 15 140
177 278 361 137 184 437 585 666 892 229 306 426 575 437 597 11 22 27 76 35
119 15 74 14 112 -14 573 -17 271 -40 648 -51 838 -11 190 -30 489 -40 665
l-20 320 -36 75 c-19 41 -46 89 -60 107 -51 67 -191 106 -290 80 -28 -7 -154
-69 -280 -137 -126 -68 -339 -184 -474 -257 -134 -73 -246 -131 -248 -128 -6
5 110 203 216 370 777 1217 1943 2134 3295 2590 103 35 187 59 187 54 0 -5
-127 -138 -282 -295 -155 -157 -293 -301 -306 -321 -58 -85 -69 -215 -26 -301
31 -62 119 -145 188 -178 28 -13 112 -46 186 -73 299 -110 510 -188 825 -306
182 -68 391 -146 465 -173 74 -28 251 -93 392 -146 240 -89 263 -95 355 -102
l98 -6 440 165 c242 91 688 258 990 372 303 114 574 216 604 227 84 30 122 52
179 103 59 53 95 109 112 173 14 56 -10 175 -49 231 -14 21 -157 173 -317 337
-300 308 -352 364 -337 364 5 0 74 -20 153 -44z"/>
<path d="M14938 17091 c-93 -30 -15 35 -1173 -977 -209 -182 -528 -461 -710
-619 -574 -500 -639 -559 -667 -612 -35 -63 -51 -163 -46 -276 4 -83 10 -104
57 -215 71 -168 238 -561 326 -767 40 -93 109 -258 155 -365 45 -107 122 -287
170 -400 48 -113 122 -287 164 -387 81 -191 165 -329 229 -377 74 -55 173 -94
492 -191 66 -20 170 -52 230 -70 727 -226 803 -245 953 -245 114 0 207 23 629
155 202 64 427 134 498 157 459 143 495 162 598 316 47 70 68 115 222 487 385
925 518 1245 714 1710 l46 110 -1 130 c-2 173 -20 223 -113 314 -57 56 -871
782 -2001 1785 -396 352 -392 350 -585 353 -104 2 -141 -1 -187 -16z"/>
<path d="M4245 20269 c-1189 -146 -2233 -774 -2922 -1757 -279 -399 -499 -878
-623 -1359 -226 -874 -169 -1777 165 -2624 310 -784 862 -1469 1560 -1936 527
-352 1115 -575 1747 -662 158 -22 250 -59 335 -135 105 -95 173 -288 173 -494
0 -144 -45 -215 -244 -383 -606 -512 -1148 -1171 -1558 -1894 -189 -333 -273
-508 -433 -905 -199 -492 -348 -1025 -439 -1575 -87 -519 -111 -834 -111
-1420 0 -310 11 -501 48 -834 l22 -194 140 -53 c558 -213 1236 -398 1930 -527
183 -34 522 -90 615 -101 25 -4 128 -17 230 -31 102 -13 264 -31 360 -40 96
-9 245 -22 330 -30 347 -32 602 -40 1255 -40 419 0 737 5 870 13 212 13 807
65 945 82 424 54 668 91 1030 160 882 166 1705 419 2403 738 92 42 166 80 165
84 -2 4 -94 52 -206 107 -796 393 -1548 888 -2312 1521 -962 796 -1899 1812
-2694 2920 -1584 2209 -2647 4795 -2955 7190 -75 582 -96 912 -96 1505 1 585
26 937 101 1420 60 387 174 875 274 1169 16 50 30 91 30 93 0 5 -58 1 -135 -8z"/>
<path d="M25670 20179 c0 -7 15 -60 34 -118 151 -467 275 -1088 325 -1631 59
-635 56 -1339 -10 -2030 -113 -1191 -430 -2497 -909 -3744 -117 -306 -282
-700 -386 -925 -25 -53 -59 -127 -77 -166 -43 -95 -357 -723 -405 -810 -21
-38 -71 -131 -111 -205 -283 -521 -710 -1201 -1080 -1720 -633 -888 -1251
-1603 -2036 -2355 -915 -876 -1995 -1644 -2994 -2128 l-184 -89 69 -33 c1411
-673 3298 -1047 5304 -1052 599 -2 1230 34 1826 102 777 88 1582 252 2269 461
205 63 747 253 762 267 3 4 31 256 49 447 31 341 26 1035 -11 1429 -26 283
-111 801 -176 1071 -182 764 -466 1470 -857 2135 -374 635 -934 1298 -1482
1756 -187 157 -239 248 -226 404 16 203 71 352 163 443 92 91 159 118 376 152
215 34 288 49 462 95 1156 303 2139 1114 2664 2200 220 454 355 928 413 1450
17 155 17 681 0 830 -63 548 -201 1025 -431 1485 -213 425 -440 740 -785 1086
-344 345 -666 578 -1086 788 -410 204 -875 344 -1310 395 -52 7 -110 14 -127
17 -22 3 -33 1 -33 -7z"/>
</g>
</svg>
