<?xml version="1.0" standalone="no"?>
<!DOCTYPE svg PUBLIC "-//W3C//DTD SVG 20010904//EN"
 "http://www.w3.org/TR/2001/REC-SVG-20010904/DTD/svg10.dtd">
<svg version="1.0" xmlns="http://www.w3.org/2000/svg"
 width="3000.000000pt" height="3000.000000pt" viewBox="0 0 3000.000000 3000.000000"
 preserveAspectRatio="xMidYMid meet">

<g transform="translate(0.000000,3000.000000) scale(0.100000,-0.100000)"
fill="#000000" stroke="none">
<path d="M15150 25251 c-41 -14 -67 -33 -101 -71 -55 -61 -64 -83 -124 -305
-166 -625 -403 -1208 -694 -1709 -538 -927 -1301 -1675 -2223 -2179 -97 -53
-200 -107 -230 -121 -29 -13 -98 -45 -153 -71 -252 -119 -709 -278 -1035 -359
-553 -137 -1059 -196 -1680 -197 -724 0 -972 19 -1360 107 -169 39 -197 38
-266 -1 -97 -57 -146 -145 -272 -491 -267 -733 -415 -1488 -458 -2329 -19
-378 3 -999 50 -1420 132 -1157 495 -2407 1008 -3465 39 -80 86 -179 106 -220
61 -129 295 -557 412 -755 678 -1141 1485 -2113 2510 -3026 356 -317 831 -680
1284 -982 189 -126 217 -143 471 -297 149 -90 193 -115 365 -208 36 -19 70
-38 75 -43 18 -13 547 -275 613 -303 34 -15 91 -39 125 -55 431 -197 1058
-416 1549 -540 l147 -37 124 32 c419 108 1018 322 1417 506 41 19 113 52 160
74 291 133 739 380 1085 597 1719 1081 3220 2716 4204 4581 61 115 261 514
261 520 0 2 20 46 44 98 77 166 92 200 189 433 81 195 268 693 292 775 4 14
31 102 60 195 129 408 238 836 309 1210 20 105 41 210 46 235 23 109 81 547
104 780 69 706 59 1424 -29 2075 -73 543 -203 1094 -371 1573 -118 334 -163
422 -247 476 -76 50 -97 51 -243 17 -316 -73 -470 -93 -814 -106 -168 -6 -835
-6 -890 0 -25 2 -106 9 -180 15 -361 29 -759 98 -1103 191 -1250 340 -2309
1082 -3067 2149 -279 392 -516 830 -703 1295 -103 258 -236 649 -313 924 -51
184 -93 299 -130 352 -58 85 -207 122 -324 80z m1648 -5352 c566 -171 1115
-449 1585 -802 216 -162 360 -288 583 -511 328 -329 546 -600 770 -961 85
-138 214 -368 209 -373 -2 -3 -23 7 -47 20 -24 14 -92 51 -153 83 -60 32 -162
86 -225 120 -63 34 -160 86 -215 115 -55 29 -152 81 -217 116 -118 64 -190 89
-237 80 -14 -3 -43 -7 -64 -11 -53 -9 -112 -65 -152 -145 -35 -70 -41 -100
-50 -250 -15 -269 -25 -452 -30 -510 -3 -36 -16 -252 -30 -480 -14 -228 -29
-476 -34 -550 -11 -174 -8 -333 8 -392 14 -49 76 -134 671 -918 135 -179 307
-406 382 -505 155 -206 170 -221 256 -265 56 -29 69 -32 130 -28 56 3 76 9
124 40 65 42 51 20 319 508 l184 335 3 -95 c4 -112 -12 -344 -38 -560 -100
-818 -367 -1582 -795 -2270 -108 -175 -215 -326 -215 -304 0 10 23 195 51 409
28 215 51 419 52 455 1 115 -65 219 -159 251 -22 7 -77 13 -124 13 -75 0 -103
-6 -230 -48 -80 -26 -244 -78 -365 -116 -1357 -420 -1415 -440 -1488 -518 -14
-15 -135 -202 -269 -417 -134 -214 -365 -583 -513 -820 -285 -454 -295 -475
-295 -593 0 -77 16 -118 65 -165 61 -59 105 -75 295 -101 96 -14 306 -43 467
-66 161 -22 302 -44 314 -48 44 -17 -426 -185 -727 -260 -450 -113 -825 -156
-1349 -155 -547 0 -945 48 -1417 167 -274 70 -741 229 -721 246 4 4 67 15 138
25 493 65 608 85 650 109 55 33 110 94 125 141 15 44 8 151 -14 211 -11 32
-982 1594 -1043 1679 -10 14 -49 45 -88 69 -59 37 -128 62 -440 159 -203 63
-624 195 -935 293 -538 169 -569 178 -640 176 -88 -2 -153 -22 -194 -60 -38
-36 -86 -138 -86 -185 0 -20 16 -160 35 -310 19 -149 35 -281 35 -292 0 -12
-22 12 -56 65 -444 683 -727 1462 -828 2280 -18 147 -40 420 -34 426 3 2 78
-130 167 -294 90 -163 179 -313 198 -333 87 -91 191 -108 306 -49 37 19 80 48
96 65 16 16 154 194 305 395 152 201 410 543 574 760 164 217 304 405 310 417
7 12 19 54 27 94 15 68 14 102 -10 479 -13 223 -38 632 -55 910 -43 719 -36
661 -82 752 -56 112 -112 148 -232 148 -46 0 -75 -7 -121 -28 -46 -22 -766
-404 -809 -430 -25 -14 160 286 300 488 536 776 1340 1449 2194 1835 228 104
692 277 705 264 2 -2 -111 -121 -251 -264 -147 -151 -262 -277 -273 -300 -52
-106 -36 -200 47 -288 70 -73 82 -79 334 -171 112 -41 523 -192 913 -336 l710
-261 95 -2 95 -2 405 152 c223 83 594 222 825 308 632 235 598 221 662 279 60
54 103 130 103 181 0 42 -25 131 -46 163 -10 15 -133 144 -275 287 -246 249
-308 315 -294 315 3 0 68 -19 143 -41z"/>
<path d="M15097 16929 c-68 -16 -135 -58 -249 -156 -136 -117 -800 -689 -913
-787 -44 -38 -138 -119 -210 -181 -910 -784 -841 -721 -878 -795 -30 -61 -32
-70 -32 -180 l0 -115 151 -350 c83 -192 264 -611 401 -930 281 -653 271 -630
325 -705 51 -69 79 -94 150 -130 67 -35 1071 -343 1206 -371 112 -23 201 -24
302 -5 41 8 296 83 565 167 270 83 506 156 525 161 60 17 184 85 211 115 76
85 92 115 252 493 677 1600 658 1554 664 1620 7 70 -12 191 -36 239 -25 48
-86 106 -411 391 -146 128 -332 292 -415 364 -946 833 -1237 1087 -1273 1111
-73 48 -231 69 -335 44z"/>
<path d="M5747 19630 c-655 -87 -1267 -349 -1792 -766 -135 -107 -433 -405
-539 -537 -349 -438 -587 -927 -710 -1459 -248 -1075 9 -2186 710 -3065 106
-132 404 -430 539 -537 516 -411 1100 -663 1755 -760 119 -18 170 -30 214 -52
166 -81 248 -238 250 -474 1 -85 -3 -113 -18 -144 -25 -49 -110 -136 -256
-258 -234 -196 -555 -532 -781 -818 -488 -618 -864 -1352 -1083 -2112 -93
-322 -125 -460 -176 -764 -67 -402 -88 -640 -94 -1084 -5 -303 2 -448 37 -789
l22 -213 95 -35 c926 -339 1911 -545 3020 -632 387 -31 547 -36 1095 -36 568
0 694 5 1145 41 1130 90 2216 329 3105 684 150 60 432 184 443 194 2 3 -70 40
-160 83 -1114 540 -2203 1360 -3189 2403 -606 641 -1137 1320 -1637 2095
-1188 1838 -1938 3884 -2131 5810 -64 641 -61 1330 9 1903 55 445 155 908 270
1246 16 50 30 91 30 93 0 5 -26 2 -173 -17z"/>
<path d="M24350 19568 c0 -2 16 -51 35 -109 79 -233 173 -622 220 -910 72
-450 98 -786 98 -1289 0 -407 -9 -587 -48 -976 -263 -2581 -1536 -5369 -3445
-7539 -1047 -1191 -2275 -2155 -3490 -2738 l-144 -70 56 -28 c84 -42 395 -174
533 -226 828 -311 1802 -524 2825 -618 707 -64 1574 -72 2285 -19 1061 78
2073 280 2929 586 225 80 236 85 236 106 0 9 9 105 19 212 44 446 50 764 20
1205 -21 321 -86 755 -160 1065 -39 164 -147 534 -200 685 -60 171 -209 526
-289 690 -365 741 -892 1420 -1510 1948 -230 197 -253 249 -215 473 18 103 66
213 119 272 20 22 68 56 107 77 59 31 90 40 202 56 974 140 1806 630 2388
1404 380 507 612 1087 695 1740 23 174 26 634 6 795 -57 457 -164 829 -352
1213 -256 527 -662 1002 -1155 1354 -377 269 -872 484 -1327 577 -140 29 -438
72 -438 64z"/>
</g>
</svg>
