<?xml version="1.0" standalone="no"?>
<!DOCTYPE svg PUBLIC "-//W3C//DTD SVG 20010904//EN"
 "http://www.w3.org/TR/2001/REC-SVG-20010904/DTD/svg10.dtd">
<svg version="1.0" xmlns="http://www.w3.org/2000/svg"
 width="3000.000000pt" height="3000.000000pt" viewBox="0 0 3000.000000 3000.000000"
 preserveAspectRatio="xMidYMid meet">

<g transform="translate(0.000000,3000.000000) scale(0.100000,-0.100000)"
fill="#000000" stroke="none">
<path d="M14560 22984 c-900 -80 -1688 -434 -2324 -1045 -580 -557 -969 -1265
-1130 -2059 -56 -277 -70 -429 -71 -775 0 -204 5 -360 13 -430 100 -836 411
-1552 944 -2170 115 -133 345 -358 462 -450 47 -38 86 -71 86 -75 0 -3 -39
-23 -87 -45 -112 -50 -355 -175 -451 -231 -41 -24 -75 -44 -77 -44 -10 0 -265
-165 -385 -249 -206 -144 -426 -318 -595 -471 -70 -63 -434 -427 -475 -475
-19 -22 -65 -74 -101 -115 -258 -295 -564 -735 -766 -1105 -128 -233 -338
-686 -397 -855 -8 -25 -29 -83 -46 -130 -51 -139 -92 -265 -159 -495 -5 -16
-23 -88 -40 -160 -18 -71 -36 -144 -41 -160 -10 -33 -35 -276 -45 -450 -17
-269 52 -610 175 -871 138 -295 337 -505 955 -1013 57 -46 276 -206 390 -284
171 -117 505 -327 521 -327 2 0 21 -10 42 -23 95 -60 485 -258 647 -329 50
-22 108 -48 130 -58 205 -93 617 -242 890 -322 432 -128 750 -199 1197 -268
38 -6 96 -15 130 -20 35 -6 108 -15 163 -20 55 -5 168 -16 250 -24 387 -39
1151 -40 1535 -1 80 7 192 19 250 24 58 6 133 15 168 21 34 5 92 14 130 20 84
13 302 49 362 60 140 25 538 121 725 174 325 93 760 248 1000 356 22 10 81 36
130 58 236 104 596 292 850 445 336 202 793 534 951 691 206 207 331 455 384
763 25 149 43 405 35 503 -16 197 -66 535 -110 745 -8 39 -20 94 -26 124 -10
50 -25 111 -88 356 -28 106 -94 314 -143 450 -22 61 -44 124 -50 140 -6 17
-49 122 -96 235 -396 951 -1031 1822 -1799 2467 -402 338 -778 583 -1245 812
-109 53 -197 98 -198 102 0 3 40 38 90 78 126 102 325 295 447 434 450 512
759 1138 897 1817 56 277 70 429 71 775 0 204 -5 360 -13 430 -114 952 -511
1767 -1174 2411 -595 577 -1330 930 -2163 1040 -115 15 -617 27 -725 18z"/>
<path d="M9653 21065 c-947 -119 -1764 -686 -2190 -1520 -143 -282 -224 -532
-280 -870 -25 -156 -26 -628 0 -795 75 -482 258 -912 555 -1305 87 -114 386
-417 479 -485 34 -25 62 -48 63 -52 0 -4 -37 -24 -82 -45 -1036 -465 -1884
-1340 -2350 -2423 -121 -279 -242 -666 -274 -869 -25 -157 -29 -399 -10 -511
41 -237 143 -466 274 -615 56 -63 247 -239 367 -338 516 -425 1099 -754 1764
-996 l84 -31 -7 48 c-18 130 -26 390 -16 531 35 521 135 1034 292 1491 39 113
76 223 82 245 6 22 14 45 17 50 4 6 10 29 14 52 4 24 11 45 16 49 5 3 9 16 9
30 0 13 4 24 9 24 5 0 12 19 16 43 4 23 10 47 14 52 4 6 15 36 26 68 10 31 22
57 27 57 4 0 8 10 8 23 0 12 6 34 14 49 8 15 17 42 21 60 4 18 10 35 14 38 6
5 15 25 58 130 23 57 30 73 47 112 9 20 16 41 16 47 0 6 5 11 10 11 6 0 10 5
10 11 0 13 31 82 41 89 3 3 10 20 14 38 3 17 10 32 15 32 4 0 11 12 14 26 4
15 18 43 32 63 13 19 24 41 24 48 0 7 5 13 10 13 6 0 10 8 10 18 0 9 11 33 24
52 13 19 33 55 45 80 23 49 43 82 52 90 4 3 9 15 13 28 4 12 12 22 17 22 5 0
9 6 9 14 0 8 6 21 13 28 6 7 21 30 32 50 42 77 127 208 136 208 5 0 9 9 9 20
0 11 5 20 10 20 6 0 15 10 20 23 13 28 34 60 86 128 22 30 49 68 60 84 10 17
24 34 31 38 7 4 13 13 13 20 0 7 15 28 33 47 18 19 48 55 67 80 19 25 37 47
40 50 3 3 21 25 40 50 19 24 51 61 70 81 19 20 51 56 70 79 19 23 51 61 70 84
47 54 350 355 436 431 143 128 152 135 158 135 3 0 18 12 34 28 16 15 46 41
67 57 21 17 43 35 49 40 6 6 38 31 71 55 74 56 73 55 110 85 17 14 38 28 48
31 9 3 17 10 17 15 0 5 7 9 15 9 8 0 15 3 15 8 0 4 16 16 35 26 19 11 35 23
35 28 0 4 4 8 9 8 7 0 136 82 150 96 2 2 -17 35 -42 72 -98 147 -179 290 -335
593 -181 354 -251 518 -351 823 -164 501 -231 933 -231 1491 -1 629 92 1131
320 1740 27 71 48 130 47 131 -1 1 -54 10 -117 19 -155 24 -598 30 -757 10z"/>
<path d="M19420 21013 c-68 -7 -255 -34 -273 -39 -12 -4 -17 -12 -14 -22 3
-10 29 -82 57 -162 175 -496 260 -935 278 -1444 19 -536 -38 -1021 -178 -1507
-46 -157 -126 -394 -171 -501 -38 -92 -74 -183 -128 -323 -87 -224 -242 -521
-388 -741 -29 -44 -53 -85 -53 -91 0 -6 12 -14 27 -18 15 -3 34 -14 42 -24 9
-10 26 -21 39 -25 12 -4 22 -12 22 -17 0 -5 5 -9 10 -9 6 0 22 -10 35 -22 35
-33 74 -61 105 -75 8 -4 22 -15 31 -25 9 -10 21 -18 27 -18 5 0 25 -14 43 -30
45 -40 49 -43 84 -66 17 -10 39 -27 50 -37 11 -11 36 -31 55 -46 18 -14 46
-37 61 -51 14 -14 45 -41 68 -60 24 -19 56 -46 73 -60 16 -14 75 -69 130 -122
55 -54 103 -98 105 -98 10 0 270 -277 292 -310 9 -13 39 -48 66 -77 55 -57 80
-86 110 -127 11 -15 29 -38 40 -51 11 -13 29 -36 40 -50 11 -15 32 -39 48 -55
15 -16 27 -31 27 -35 0 -6 49 -74 60 -85 4 -3 17 -23 30 -45 13 -22 29 -44 35
-50 22 -20 65 -84 65 -97 0 -7 9 -19 20 -26 11 -7 20 -18 20 -25 0 -7 9 -20
20 -30 11 -9 20 -24 20 -32 0 -8 4 -15 8 -15 4 0 24 -27 43 -60 18 -33 37 -60
42 -60 4 0 7 -9 7 -20 0 -11 4 -20 9 -20 5 0 12 -11 15 -25 4 -14 11 -25 16
-25 6 0 10 -5 10 -12 0 -13 61 -111 72 -116 4 -2 10 -19 14 -38 3 -19 10 -34
14 -34 4 0 11 -11 14 -25 4 -14 11 -25 16 -25 6 0 10 -7 10 -15 0 -8 4 -15 9
-15 5 0 12 -16 15 -35 4 -19 11 -35 16 -35 6 0 10 -7 10 -15 0 -8 4 -15 8 -15
8 0 52 -92 52 -110 0 -6 5 -10 10 -10 6 0 10 -9 10 -20 0 -11 5 -20 10 -20 6
0 10 -6 10 -12 1 -7 9 -31 20 -53 11 -22 19 -46 20 -52 0 -7 5 -13 10 -13 6 0
10 -11 10 -25 0 -14 4 -25 10 -25 5 0 12 -16 16 -35 3 -19 10 -35 14 -35 4 0
11 -12 14 -27 10 -40 30 -83 38 -83 5 0 8 -8 8 -17 0 -10 7 -31 15 -46 8 -15
17 -43 21 -62 3 -19 10 -35 15 -35 5 0 9 -11 9 -25 0 -14 4 -25 9 -25 5 0 12
-18 16 -40 4 -22 10 -42 15 -45 5 -3 11 -23 15 -45 4 -22 11 -40 16 -40 5 0 9
-11 9 -24 0 -14 4 -27 9 -31 6 -3 13 -26 17 -50 3 -25 10 -45 15 -45 5 0 9
-12 9 -26 0 -14 6 -40 13 -57 18 -41 64 -187 128 -407 72 -249 84 -293 109
-405 12 -55 48 -212 80 -350 72 -307 143 -668 164 -835 14 -108 46 -440 46
-478 0 -16 16 -12 235 60 597 198 1119 463 1635 831 324 232 454 411 515 712
36 177 40 329 15 535 -96 781 -397 1557 -851 2192 -454 634 -1024 1122 -1712
1464 -104 52 -196 94 -203 94 -29 0 -11 27 49 70 90 66 383 360 467 470 301
393 478 799 562 1285 19 113 22 167 23 420 0 304 -5 366 -51 587 -51 242 -128
461 -246 691 -432 843 -1255 1411 -2204 1522 -117 14 -491 19 -594 8z"/>
<path d="M24881 16819 c0 -8 4 -23 8 -33 6 -16 9 -17 13 -5 3 8 0 23 -8 34
-10 13 -14 14 -13 4z"/>
</g>
</svg>
