<?xml version="1.0" standalone="no"?>
<!DOCTYPE svg PUBLIC "-//W3C//DTD SVG 20010904//EN"
 "http://www.w3.org/TR/2001/REC-SVG-20010904/DTD/svg10.dtd">
<svg version="1.0" xmlns="http://www.w3.org/2000/svg"
 width="3000.000000pt" height="3000.000000pt" viewBox="0 0 3000.000000 3000.000000"
 preserveAspectRatio="xMidYMid meet">

<g transform="translate(0.000000,3000.000000) scale(0.100000,-0.100000)"
fill="#000000" stroke="none">
<path d="M14505 27319 c-233 -22 -429 -47 -570 -74 -44 -9 -102 -20 -130 -24
-286 -52 -806 -218 -1103 -352 -35 -16 -65 -29 -67 -29 -2 0 -64 -29 -137 -64
-844 -408 -1599 -1037 -2173 -1811 -158 -213 -342 -499 -460 -715 -53 -97
-225 -445 -225 -454 0 -3 -13 -33 -29 -68 -126 -275 -310 -836 -371 -1133 -4
-22 -17 -85 -29 -140 -51 -251 -88 -520 -112 -820 -15 -178 -15 -769 0 -940
37 -441 96 -800 192 -1160 11 -44 25 -98 31 -120 19 -82 110 -357 172 -524
369 -987 1025 -1915 1814 -2565 50 -42 92 -82 92 -89 0 -7 -19 -21 -42 -32
-109 -46 -568 -281 -618 -315 -14 -9 -38 -24 -55 -32 -55 -27 -280 -160 -312
-184 -17 -13 -34 -24 -37 -24 -3 0 -25 -13 -48 -29 -24 -16 -105 -70 -180
-120 -392 -260 -824 -603 -1183 -941 -49 -47 -119 -112 -154 -145 -165 -156
-485 -503 -722 -785 -98 -117 -364 -462 -432 -560 -9 -14 -37 -54 -63 -90 -25
-36 -84 -123 -131 -195 -47 -71 -102 -155 -122 -185 -56 -81 -291 -475 -291
-487 0 -2 -11 -21 -25 -43 -51 -80 -282 -530 -350 -680 -119 -264 -179 -399
-191 -433 -7 -20 -20 -52 -28 -70 -35 -79 -123 -304 -142 -362 -7 -22 -29 -85
-49 -140 -51 -141 -87 -251 -130 -390 -20 -66 -47 -154 -60 -195 -13 -41 -40
-138 -61 -215 -38 -144 -46 -175 -63 -258 -6 -27 -13 -52 -16 -57 -3 -5 -10
-30 -15 -57 -5 -26 -17 -79 -25 -118 -34 -149 -47 -263 -76 -670 -20 -295 5
-609 71 -891 16 -63 63 -227 96 -329 84 -257 276 -599 455 -811 85 -101 445
-455 645 -634 290 -261 670 -568 944 -763 294 -209 426 -299 610 -412 52 -33
109 -69 125 -81 42 -30 389 -230 585 -337 91 -49 591 -300 655 -329 33 -14 92
-41 130 -58 108 -50 219 -98 340 -146 61 -25 121 -50 135 -56 39 -17 61 -26
120 -49 115 -45 156 -61 180 -69 14 -4 77 -27 140 -50 159 -57 439 -152 475
-161 27 -6 201 -58 315 -93 46 -14 61 -18 215 -59 108 -29 178 -47 225 -57 19
-4 69 -16 110 -28 41 -11 111 -27 155 -37 130 -27 204 -43 310 -66 113 -24
220 -44 315 -59 36 -5 106 -17 155 -25 50 -8 126 -20 170 -25 44 -6 96 -15
115 -20 19 -6 54 -10 77 -10 23 0 64 -4 90 -10 26 -5 93 -14 148 -19 55 -5
199 -18 320 -29 121 -12 292 -26 380 -33 227 -17 1165 -23 1410 -9 110 6 270
15 356 20 85 4 171 11 190 14 19 4 84 11 144 16 61 6 169 17 240 25 72 9 166
20 210 25 83 9 183 24 270 40 28 5 97 17 155 25 134 21 264 43 315 55 22 5 76
16 120 25 196 40 333 71 440 97 44 11 96 24 115 29 199 47 348 87 485 129 17
5 53 16 80 24 210 62 367 112 515 166 63 23 129 45 145 50 46 13 104 36 111
43 4 4 13 7 21 7 12 0 261 95 328 125 17 8 93 39 170 71 77 31 172 71 210 89
39 18 93 43 120 55 142 64 237 110 410 197 189 95 338 172 405 210 320 180
366 208 714 426 378 237 1048 737 1274 951 123 117 260 296 368 483 139 241
206 442 274 823 29 162 54 558 45 730 -3 69 -12 177 -21 240 -8 63 -19 153
-24 200 -10 85 -23 172 -41 285 -6 33 -14 89 -19 125 -14 100 -48 285 -75 405
-9 39 -21 95 -26 125 -26 136 -43 210 -84 365 -15 55 -31 118 -36 140 -4 22
-16 65 -25 95 -8 30 -19 71 -24 90 -4 19 -17 64 -28 100 -12 36 -38 119 -58
185 -44 145 -90 286 -139 420 -20 55 -42 118 -49 140 -7 22 -21 60 -31 85 -29
76 -116 293 -130 325 -7 17 -32 75 -55 130 -23 55 -57 132 -75 170 -17 39 -47
104 -66 145 -30 66 -92 190 -214 430 -21 41 -79 147 -128 235 -49 88 -101 180
-115 205 -14 25 -52 88 -84 140 -32 52 -62 101 -66 108 -25 43 -224 348 -263
402 -277 391 -446 608 -693 895 -266 307 -650 695 -931 940 -88 77 -162 142
-165 145 -20 23 -379 302 -530 412 -181 132 -378 268 -387 268 -2 0 -30 17
-61 39 -62 42 -308 193 -332 204 -8 4 -28 15 -45 25 -16 10 -57 34 -90 52 -33
18 -65 36 -70 41 -20 15 -550 279 -561 279 -6 0 -17 6 -23 14 -9 11 6 28 76
87 371 309 696 651 983 1034 473 631 820 1342 1028 2105 36 129 47 177 82 325
25 111 50 247 90 510 15 96 38 337 50 505 34 504 -17 1191 -124 1690 -39 184
-50 229 -96 395 -114 414 -250 774 -433 1141 -642 1293 -1682 2294 -2967 2859
-160 70 -458 178 -620 225 -41 12 -86 25 -100 30 -48 17 -316 79 -425 100 -60
11 -135 25 -165 31 -76 14 -268 37 -495 59 -128 12 -708 11 -840 -1z"/>
<path d="M7385 24313 c-1531 -33 -2964 -918 -3704 -2289 -281 -520 -448 -1046
-516 -1624 -17 -141 -35 -512 -29 -590 2 -25 5 -112 8 -195 16 -435 118 -912
295 -1373 267 -696 744 -1358 1309 -1817 61 -49 111 -95 111 -101 1 -6 -23
-22 -51 -34 -206 -88 -601 -301 -833 -449 -1296 -825 -2270 -2004 -2879 -3488
-170 -414 -365 -1070 -396 -1328 -39 -329 -39 -682 -1 -860 67 -313 166 -555
314 -774 154 -227 622 -659 1097 -1013 625 -466 1324 -853 2068 -1147 268
-106 322 -125 329 -117 4 4 1 39 -5 79 -33 200 -40 764 -12 1042 40 408 90
759 140 1000 6 28 17 86 25 130 8 44 21 107 29 140 8 33 21 89 29 125 66 291
245 895 314 1057 7 17 13 38 13 46 0 9 5 19 10 22 6 3 10 24 10 46 0 26 5 42
15 45 10 4 15 20 15 44 0 22 4 41 9 44 4 3 6 16 4 29 -3 14 3 29 16 41 13 12
21 31 21 53 0 22 5 33 14 33 11 0 17 19 22 70 4 39 13 75 20 81 8 6 14 24 14
40 0 16 4 29 9 29 5 0 11 18 15 40 3 22 11 40 16 40 6 0 10 11 10 25 0 16 6
25 15 25 11 0 15 11 15 39 0 22 4 43 10 46 5 3 10 14 10 24 0 10 6 24 14 30 8
7 17 39 21 71 5 42 11 60 21 60 8 0 14 9 14 19 0 11 4 22 9 26 5 3 12 19 16
35 4 17 11 30 16 30 5 0 9 13 9 29 0 16 6 34 14 40 7 6 16 30 20 52 4 23 13
48 21 56 8 8 15 24 15 36 0 12 9 33 19 46 10 14 17 30 14 37 -2 7 0 15 6 19 6
3 11 15 11 26 0 10 7 19 15 19 9 0 15 9 15 25 0 14 5 25 10 25 6 0 10 11 10
24 0 13 7 29 15 36 8 7 15 21 15 31 0 11 6 19 14 19 9 0 16 18 20 54 6 42 12
55 27 59 12 3 17 11 13 20 -3 8 -1 18 5 22 6 3 11 17 11 31 0 13 5 24 10 24 6
0 15 10 20 23 6 12 19 36 29 52 11 17 20 38 20 48 1 9 7 17 15 17 8 0 15 15
19 38 2 20 23 65 46 98 22 34 41 71 41 83 0 12 7 24 15 27 8 4 15 16 15 28 0
13 11 33 25 46 14 13 25 32 25 42 0 10 6 18 14 18 8 0 16 16 20 40 4 26 11 40
21 40 8 0 15 6 15 13 0 23 25 67 38 67 6 0 12 8 12 19 0 10 7 24 15 31 8 7 15
23 15 35 0 13 6 25 14 28 7 3 23 25 35 49 26 51 44 81 52 88 8 7 56 89 69 118
5 12 16 22 25 22 10 0 15 10 15 30 0 23 6 33 25 40 16 6 25 17 25 31 0 12 11
32 25 45 14 13 25 31 25 41 0 11 18 36 40 58 22 21 38 41 35 43 -4 4 16 32 58
82 15 18 33 48 46 77 6 13 22 32 36 45 14 12 25 29 25 37 0 9 18 34 40 56 21
22 39 46 40 53 0 6 7 12 15 12 8 0 15 6 15 13 0 8 11 24 25 37 14 13 25 29 25
35 0 7 9 20 20 30 11 10 20 24 20 32 0 7 7 13 15 13 8 0 15 5 15 10 0 14 80
114 145 182 30 31 55 62 55 68 0 5 5 10 10 10 6 0 10 4 10 9 0 12 56 71 68 71
5 0 13 8 16 18 12 33 34 64 75 106 23 23 41 47 41 54 0 7 7 12 15 12 9 0 19 8
22 18 4 9 39 49 77 89 39 39 99 103 134 142 35 39 70 71 78 71 8 0 14 7 14 15
0 8 6 15 13 15 16 0 57 42 57 58 0 6 9 16 21 22 24 14 59 47 59 58 0 10 66 62
79 62 6 0 11 5 11 12 0 12 140 148 152 148 13 0 48 34 48 46 0 6 12 17 28 25
15 8 31 20 35 26 4 7 17 13 27 13 11 0 20 6 20 13 0 13 89 97 103 97 12 0 37
27 37 39 0 6 6 11 14 11 8 0 16 7 20 15 3 8 12 15 20 15 8 0 19 6 23 13 11 18
129 117 139 117 13 1 54 37 54 47 0 5 16 15 35 23 19 8 35 20 35 27 0 7 7 13
15 13 8 0 15 4 15 10 0 5 15 16 34 25 19 9 37 23 40 31 3 8 15 14 26 14 11 0
20 7 20 15 0 8 5 15 12 15 6 0 26 11 44 25 18 14 37 25 43 25 6 0 11 7 11 15
0 8 7 15 16 15 9 0 33 14 53 30 56 48 60 50 69 50 5 0 15 6 21 14 7 8 28 22
47 31 31 15 35 20 29 43 -4 15 -13 34 -21 43 -8 8 -14 19 -14 23 0 4 -16 26
-35 48 -19 23 -32 44 -30 48 3 4 -2 14 -11 21 -9 7 -20 22 -26 34 -5 11 -20
38 -33 60 -14 22 -28 47 -32 55 -3 8 -16 29 -27 45 -41 60 -96 165 -96 184 0
6 -4 11 -9 11 -5 0 -37 57 -71 128 -73 150 -103 210 -118 237 -6 11 -21 41
-33 68 -12 26 -26 47 -31 47 -4 0 -8 5 -8 11 0 7 -29 71 -65 144 -36 73 -65
138 -65 144 0 6 -4 11 -10 11 -5 0 -10 4 -10 10 0 17 -34 90 -42 90 -5 0 -8 6
-8 13 0 7 -9 29 -20 50 -11 20 -20 43 -20 50 0 8 -11 35 -25 61 -14 26 -25 52
-25 59 0 7 -6 24 -14 39 -8 15 -17 40 -21 57 -4 17 -11 31 -16 31 -5 0 -9 10
-9 23 0 12 -7 31 -15 41 -8 11 -15 29 -15 40 0 12 -7 30 -15 40 -8 11 -15 30
-15 42 0 13 -4 25 -9 28 -5 4 -12 24 -16 46 -4 22 -10 42 -15 45 -5 3 -11 23
-15 45 -4 22 -10 42 -15 45 -4 3 -11 25 -14 50 -4 24 -11 47 -15 50 -5 2 -12
22 -16 42 -4 21 -10 43 -15 48 -4 6 -11 27 -14 49 -4 21 -11 46 -16 55 -19 38
-29 69 -35 106 -4 22 -10 45 -15 50 -4 6 -11 31 -14 57 -4 26 -11 50 -16 53
-4 3 -11 32 -15 65 -4 33 -10 60 -15 60 -4 0 -11 31 -14 70 -4 38 -11 72 -16
75 -4 3 -11 36 -15 75 -4 39 -11 73 -16 76 -5 3 -9 25 -9 49 0 24 -4 46 -9 49
-4 3 -12 43 -16 88 -4 46 -10 88 -15 93 -5 6 -12 60 -16 120 -4 61 -10 112
-15 115 -4 3 -11 66 -14 140 -4 74 -12 140 -17 146 -4 7 -11 160 -14 340 -3
206 -10 337 -16 352 -8 16 -8 28 0 45 6 13 13 141 16 336 3 172 10 319 15 325
5 6 12 67 16 135 4 69 11 132 16 140 4 9 11 64 15 124 3 59 10 110 15 113 5 3
9 24 9 48 0 23 3 46 7 50 4 4 6 24 4 45 -1 22 2 42 8 46 6 3 11 24 11 46 0 21
4 39 9 39 5 0 12 34 16 75 4 41 11 77 15 80 5 3 12 37 16 75 3 39 10 70 14 70
4 0 11 26 15 58 4 31 10 62 15 67 4 6 11 31 14 57 4 26 11 50 17 53 5 4 9 19
9 34 0 15 7 36 15 47 8 10 15 31 15 46 0 15 4 29 9 33 6 3 13 26 17 50 3 25
10 45 14 45 4 0 11 20 14 45 4 24 11 47 16 50 5 3 12 26 16 50 3 25 10 45 15
45 5 0 9 12 9 28 0 15 7 40 15 55 8 15 17 43 21 63 3 19 10 37 15 40 5 3 9 15
9 27 0 13 7 32 15 44 8 11 17 39 21 62 4 22 10 41 14 41 7 0 21 32 24 55 1 6
9 25 18 42 9 18 13 35 8 38 -18 11 -255 46 -410 59 -175 16 -351 22 -515 19z"/>
<path d="M22120 24213 c-154 -9 -557 -64 -582 -79 -12 -8 -10 -28 7 -60 8 -16
15 -36 15 -44 0 -8 7 -24 15 -34 8 -11 15 -30 15 -43 0 -13 4 -23 9 -23 5 0
12 -20 15 -45 4 -24 11 -47 16 -50 4 -3 11 -24 15 -48 4 -23 11 -46 15 -52 4
-5 11 -26 15 -45 4 -19 11 -42 16 -52 5 -10 13 -26 18 -37 5 -10 13 -36 17
-57 3 -22 10 -43 14 -49 5 -5 11 -32 15 -60 4 -27 12 -55 17 -62 5 -7 7 -17 4
-22 -4 -5 -2 -12 4 -16 5 -3 10 -19 10 -35 0 -16 4 -31 9 -35 6 -3 13 -26 17
-50 3 -25 10 -48 14 -50 5 -3 12 -30 15 -60 4 -31 11 -58 15 -60 5 -3 12 -34
15 -70 4 -36 11 -68 16 -70 4 -3 11 -37 15 -75 3 -39 11 -70 15 -70 5 0 9 -22
9 -48 0 -27 3 -52 7 -56 4 -4 6 -22 5 -41 -2 -18 1 -36 7 -40 6 -3 11 -23 11
-44 0 -20 4 -41 9 -47 6 -5 13 -60 17 -121 4 -62 10 -113 14 -113 5 0 11 -66
15 -147 4 -82 11 -151 16 -154 5 -3 12 -149 15 -325 3 -198 10 -328 16 -341 8
-17 8 -29 0 -45 -6 -14 -13 -142 -16 -337 -3 -172 -10 -319 -15 -325 -4 -6
-12 -71 -15 -145 -4 -73 -11 -141 -16 -150 -5 -9 -12 -60 -15 -113 -4 -54 -11
-100 -16 -104 -5 -3 -9 -25 -9 -49 0 -24 -5 -47 -10 -50 -6 -4 -11 -23 -11
-43 1 -55 -10 -136 -19 -147 -4 -5 -11 -38 -15 -73 -4 -34 -11 -64 -15 -67 -5
-3 -12 -34 -15 -70 -4 -36 -11 -67 -15 -70 -5 -3 -11 -32 -15 -65 -4 -33 -11
-60 -15 -60 -5 0 -12 -25 -15 -55 -4 -30 -11 -55 -16 -55 -5 0 -9 -11 -9 -24
0 -14 -4 -27 -10 -31 -5 -3 -7 -12 -3 -20 3 -9 1 -21 -5 -28 -6 -7 -14 -36
-18 -65 -3 -28 -10 -52 -15 -52 -5 0 -9 -11 -9 -24 0 -14 -5 -28 -10 -31 -6
-4 -8 -10 -5 -15 3 -5 1 -18 -5 -30 -5 -11 -14 -28 -19 -38 -5 -10 -12 -37
-16 -60 -4 -23 -10 -42 -15 -42 -4 0 -11 -20 -14 -45 -4 -24 -11 -47 -16 -50
-5 -3 -12 -26 -16 -50 -3 -25 -10 -45 -15 -45 -5 0 -12 -18 -15 -40 -4 -22
-10 -40 -15 -40 -5 0 -9 -10 -9 -23 0 -13 -7 -32 -15 -43 -8 -10 -15 -29 -15
-41 0 -13 -4 -23 -10 -23 -5 0 -10 -9 -10 -20 0 -17 -16 -55 -50 -120 -4 -9
-11 -30 -15 -48 -3 -18 -11 -32 -15 -32 -5 0 -12 -16 -16 -35 -3 -19 -10 -38
-15 -40 -4 -3 -11 -26 -15 -50 -3 -25 -10 -45 -15 -45 -5 0 -12 -18 -15 -40
-4 -22 -10 -40 -15 -40 -5 0 -9 -10 -9 -23 0 -13 -7 -32 -15 -43 -8 -10 -15
-27 -15 -37 0 -10 -11 -37 -24 -61 -13 -23 -27 -57 -31 -74 -3 -18 -10 -32
-15 -32 -5 0 -11 -13 -15 -30 -4 -16 -11 -32 -16 -35 -5 -4 -9 -13 -9 -22 0
-9 -34 -84 -75 -167 -41 -83 -75 -155 -75 -160 0 -5 -11 -24 -25 -42 -14 -18
-25 -39 -25 -47 0 -8 -6 -20 -14 -26 -8 -7 -18 -26 -21 -42 -4 -16 -10 -29
-14 -29 -4 0 -20 -26 -36 -57 -15 -32 -40 -74 -55 -93 -15 -19 -31 -46 -35
-60 -4 -14 -10 -27 -14 -30 -10 -8 -51 -69 -51 -76 0 -3 -23 -37 -50 -75 -59
-81 -74 -129 -42 -129 12 0 24 -4 27 -10 3 -5 15 -10 26 -10 10 0 19 -7 19
-15 0 -8 7 -15 15 -15 8 0 15 -7 15 -15 0 -8 6 -15 13 -15 23 0 67 -25 67 -37
0 -7 7 -13 16 -13 9 0 34 -17 56 -37 70 -67 78 -73 91 -73 8 0 24 -11 37 -25
13 -14 32 -25 42 -25 10 0 18 -7 18 -15 0 -8 7 -15 15 -15 8 0 15 -7 15 -15 0
-8 6 -15 13 -15 23 0 67 -25 67 -37 0 -7 7 -13 15 -13 8 0 15 -6 15 -13 0 -6
14 -18 30 -25 17 -8 30 -20 30 -28 0 -8 5 -14 11 -14 6 0 25 -11 43 -25 18
-14 38 -25 44 -25 7 0 12 -7 12 -15 0 -8 6 -15 14 -15 7 0 29 -17 48 -37 35
-40 61 -60 91 -69 9 -4 17 -11 17 -18 0 -14 111 -115 128 -116 6 0 12 -7 12
-15 0 -8 7 -15 15 -15 8 0 15 -6 15 -14 0 -8 10 -18 23 -21 28 -9 67 -44 67
-62 0 -7 7 -13 15 -13 17 0 85 -64 85 -80 0 -5 6 -10 13 -10 16 0 57 -42 57
-58 0 -7 7 -12 15 -12 8 0 15 -6 15 -14 0 -7 9 -16 20 -19 11 -3 20 -12 20
-21 0 -9 6 -16 13 -16 15 0 67 -54 67 -69 0 -6 9 -11 21 -11 12 0 23 -8 26
-19 3 -11 13 -21 24 -24 10 -3 19 -12 19 -21 0 -9 6 -16 14 -16 7 0 16 -9 19
-21 3 -11 15 -23 26 -26 12 -3 21 -9 21 -14 0 -5 26 -36 58 -70 31 -33 60 -69
64 -79 4 -10 16 -21 27 -25 12 -3 21 -13 21 -21 0 -8 7 -14 15 -14 8 0 15 -4
15 -9 0 -9 34 -51 82 -101 15 -16 30 -40 33 -53 4 -14 16 -27 27 -30 11 -3 22
-15 25 -26 3 -12 12 -21 19 -21 8 0 14 -5 14 -12 0 -7 20 -31 45 -55 25 -23
45 -49 45 -58 0 -8 5 -15 11 -15 17 0 53 -46 65 -82 4 -10 12 -18 19 -18 7 0
16 -11 19 -24 3 -13 17 -31 31 -40 14 -9 25 -23 25 -31 0 -8 18 -34 40 -56 22
-23 40 -48 40 -55 0 -8 6 -14 13 -14 8 0 19 -11 25 -25 6 -14 16 -25 22 -25 5
0 10 -8 10 -18 0 -10 11 -29 25 -42 14 -13 25 -29 25 -36 0 -6 7 -14 15 -18 8
-3 15 -12 15 -21 0 -8 6 -15 13 -15 7 0 20 -17 30 -37 33 -69 52 -98 90 -137
20 -22 37 -45 37 -51 0 -7 9 -20 20 -30 11 -10 20 -31 20 -47 0 -18 6 -31 18
-35 27 -10 52 -40 52 -64 0 -11 8 -23 18 -25 17 -5 42 -47 42 -71 0 -7 6 -13
14 -13 7 0 16 -8 20 -17 3 -10 20 -40 37 -68 16 -27 35 -62 42 -77 6 -16 17
-28 24 -28 8 0 13 -12 13 -30 0 -20 5 -30 15 -30 9 0 15 -9 15 -24 0 -13 11
-34 23 -47 13 -13 27 -37 31 -52 4 -16 11 -34 16 -40 42 -51 61 -77 61 -79 -2
-18 14 -48 25 -48 8 0 14 -9 14 -19 0 -11 5 -23 10 -26 6 -3 10 -19 10 -36 0
-18 5 -29 14 -29 8 0 16 -16 20 -40 4 -26 11 -40 21 -40 9 0 15 -9 15 -21 0
-13 8 -23 21 -26 16 -4 20 -12 16 -30 -2 -13 0 -26 4 -29 5 -3 9 -16 9 -30 0
-15 6 -24 15 -24 8 0 15 -7 15 -14 0 -8 11 -27 25 -42 14 -15 25 -38 25 -51 0
-13 6 -26 14 -29 8 -3 17 -25 21 -50 4 -28 11 -44 21 -44 9 0 14 -11 14 -30 0
-18 6 -33 15 -36 8 -4 15 -12 15 -20 0 -13 9 -34 32 -74 4 -8 11 -22 14 -30 3
-8 10 -23 15 -32 5 -10 9 -24 9 -32 0 -8 7 -16 15 -20 9 -3 15 -18 15 -40 0
-20 6 -36 15 -39 8 -4 17 -26 21 -57 4 -32 11 -50 20 -50 8 0 14 -10 14 -24 0
-14 5 -28 10 -31 6 -3 10 -17 10 -29 0 -13 7 -29 15 -36 8 -7 15 -23 15 -36 0
-15 6 -24 15 -24 10 0 15 -10 15 -29 0 -17 5 -33 10 -36 6 -4 8 -11 4 -16 -3
-6 3 -20 14 -32 13 -14 23 -43 27 -79 5 -39 12 -58 21 -58 10 0 14 -13 14 -40
0 -29 4 -40 15 -40 10 0 15 -10 15 -29 0 -17 5 -33 10 -36 6 -3 10 -19 10 -34
0 -16 6 -34 14 -40 8 -7 18 -37 22 -67 4 -39 12 -57 26 -65 14 -7 18 -19 16
-39 -1 -16 5 -36 14 -47 9 -10 20 -45 24 -81 4 -39 12 -66 20 -69 8 -3 14 -19
14 -37 0 -34 19 -96 36 -117 6 -8 14 -36 18 -62 3 -27 9 -54 13 -60 4 -7 13
-30 19 -52 6 -22 24 -78 38 -125 15 -47 53 -179 86 -295 32 -115 72 -257 89
-315 33 -118 80 -315 117 -495 25 -124 29 -143 84 -380 18 -77 39 -167 46
-200 38 -164 125 -595 144 -705 6 -36 17 -101 25 -145 34 -192 78 -558 96
-805 18 -249 22 -275 41 -272 23 4 384 123 513 170 145 53 424 163 505 200 36
16 119 53 185 82 152 68 497 243 680 345 498 278 1097 696 1326 924 220 220
364 484 423 776 9 44 21 100 26 125 30 135 43 534 22 680 -6 41 -16 118 -22
170 -65 525 -215 1136 -413 1680 -233 642 -581 1298 -977 1845 -408 562 -899
1072 -1430 1486 -423 330 -874 603 -1380 836 l-75 35 36 31 c19 18 87 75 150
129 137 115 376 355 492 493 524 623 864 1355 996 2147 52 305 56 367 56 763
-1 376 -4 430 -49 715 -80 515 -273 1060 -537 1517 -795 1377 -2242 2216
-3794 2201 -99 -1 -205 -3 -235 -5z"/>
</g>
</svg>
