<?xml version="1.0" standalone="no"?>
<!DOCTYPE svg PUBLIC "-//W3C//DTD SVG 20010904//EN"
 "http://www.w3.org/TR/2001/REC-SVG-20010904/DTD/svg10.dtd">
<svg version="1.0" xmlns="http://www.w3.org/2000/svg"
 width="3000.000000pt" height="3000.000000pt" viewBox="0 0 3000.000000 3000.000000"
 preserveAspectRatio="xMidYMid meet">

<g transform="translate(0.000000,3000.000000) scale(0.100000,-0.100000)"
fill="#000000" stroke="none">
<path d="M9230 24374 c-248 -27 -529 -117 -624 -201 -27 -23 -28 -27 -13 -38
12 -8 34 -9 81 -3 168 23 400 -83 565 -258 41 -44 100 -106 130 -138 81 -85
161 -150 228 -182 50 -25 70 -29 138 -28 96 0 152 22 221 86 66 61 96 126 102
220 5 92 -11 150 -70 251 -86 147 -220 234 -423 275 -55 12 -280 22 -335 16z"/>
<path d="M7228 23139 c-10 -5 -20 -24 -23 -42 -3 -17 -8 -45 -11 -62 -19 -94
-23 -149 -23 -328 -1 -222 7 -312 50 -572 49 -295 99 -469 198 -685 61 -134
159 -303 220 -380 175 -219 381 -426 513 -513 113 -75 354 -202 452 -239 189
-71 337 -111 561 -153 153 -29 302 -64 380 -90 96 -33 268 -116 327 -158 374
-266 556 -501 648 -837 24 -87 92 -442 86 -448 -3 -2 -58 50 -123 115 -173
176 -368 295 -706 434 -199 82 -343 123 -507 145 -142 18 -458 26 -570 14
-191 -20 -455 -52 -461 -56 -8 -4 -326 -21 -584 -30 -167 -6 -209 -4 -345 16
-437 63 -685 209 -1164 679 -92 91 -232 238 -310 326 -229 259 -525 551 -696
686 -269 213 -473 328 -747 419 -241 80 -321 93 -573 92 -239 0 -680 -28 -695
-43 -19 -19 11 -44 71 -57 254 -55 306 -72 497 -168 222 -112 402 -248 609
-463 173 -178 242 -265 327 -409 71 -121 243 -460 301 -592 18 -41 46 -104 62
-140 17 -36 52 -117 78 -180 26 -63 59 -140 73 -171 14 -30 40 -98 57 -150 18
-52 45 -119 60 -149 15 -30 44 -94 63 -141 60 -146 171 -345 267 -481 141
-198 328 -369 605 -552 50 -33 101 -67 115 -76 14 -9 76 -42 138 -74 132 -67
258 -115 427 -164 124 -36 107 -33 370 -65 154 -20 264 -25 615 -32 302 -6
333 -8 530 -31 212 -24 280 -36 450 -75 259 -61 458 -150 635 -284 98 -74 183
-170 322 -360 187 -257 321 -607 374 -974 24 -171 -3 -467 -66 -706 -28 -107
-42 -145 -52 -144 -5 0 -38 38 -74 84 -134 171 -348 383 -514 511 -195 149
-537 335 -775 418 -112 40 -287 86 -410 108 -110 19 -502 17 -656 -5 -248 -35
-468 -107 -679 -223 -318 -175 -563 -369 -721 -570 -35 -45 -64 -85 -64 -88 0
-13 27 -5 105 30 339 152 636 190 968 124 274 -54 422 -116 672 -283 156 -104
208 -150 379 -332 187 -200 322 -369 438 -550 94 -148 309 -546 471 -870 129
-259 221 -482 431 -1045 52 -140 120 -318 150 -395 30 -77 53 -142 50 -144 -2
-3 -17 7 -32 21 -92 85 -374 298 -519 391 -224 145 -518 306 -708 388 -349
149 -538 196 -830 206 -246 8 -381 -6 -600 -62 -196 -50 -305 -93 -429 -168
-98 -59 -116 -74 -116 -99 0 -27 40 -38 128 -34 215 10 548 -56 773 -154 153
-66 328 -179 477 -308 194 -168 500 -632 658 -999 42 -98 91 -207 109 -243 18
-36 44 -92 58 -125 94 -222 283 -590 395 -765 150 -237 519 -624 786 -823 28
-22 60 -47 71 -57 29 -27 395 -240 425 -247 14 -3 50 -18 80 -33 30 -15 136
-55 235 -88 375 -126 712 -149 1135 -76 158 27 200 35 200 39 0 2 -44 80 -97
172 -584 1014 -923 2120 -1019 3323 -21 260 -23 830 -5 1090 20 293 85 800
125 981 3 13 21 98 41 189 105 490 253 948 490 1515 37 88 73 176 80 196 7 20
23 56 35 80 13 24 42 99 66 167 81 229 134 356 340 810 149 327 320 793 404
1095 58 210 127 535 144 677 22 182 30 548 17 714 -43 520 -177 943 -406 1281
-140 208 -214 292 -363 412 -228 185 -539 361 -757 430 -105 33 -292 78 -360
87 -22 2 -76 9 -120 15 -222 28 -469 22 -790 -19 -82 -11 -278 -36 -435 -56
-370 -48 -515 -50 -675 -11 -434 108 -754 291 -1036 593 -92 99 -300 395 -358
511 -72 145 -121 307 -137 453 -4 36 -11 73 -16 82 -13 26 -41 38 -60 27z"/>
<path d="M12301 23118 c-132 -10 -424 -60 -602 -104 -177 -43 -321 -90 -544
-176 -99 -38 -236 -89 -305 -113 -69 -24 -168 -59 -220 -78 -340 -126 -352
-133 -220 -122 81 6 269 -14 440 -46 130 -25 502 -130 600 -169 25 -10 74 -30
110 -44 339 -131 668 -333 852 -522 107 -111 140 -152 234 -294 265 -402 469
-877 558 -1297 30 -140 34 -153 51 -153 16 0 18 5 44 137 43 212 20 753 -50
1178 -43 258 -91 439 -179 663 -28 73 -50 138 -48 144 7 19 148 -217 227 -375
38 -78 152 -315 252 -527 211 -447 306 -639 358 -724 21 -34 51 -83 66 -111
89 -158 235 -305 442 -445 294 -201 620 -307 903 -294 122 6 327 47 455 91
163 57 503 228 655 331 131 88 210 153 210 171 0 11 -152 28 -315 36 -192 10
-406 61 -548 131 -120 59 -248 154 -367 274 -137 136 -208 225 -337 420 -643
972 -783 1168 -972 1357 -259 261 -547 434 -896 540 -44 13 -96 31 -115 39
-159 65 -477 100 -739 82z"/>
<path d="M15568 23079 c-26 -15 -69 -81 -141 -219 -120 -229 -169 -404 -188
-659 -25 -352 61 -665 257 -931 71 -97 192 -210 277 -258 88 -50 242 -105 370
-132 157 -32 408 -109 496 -151 67 -33 100 -58 171 -128 143 -143 184 -261
147 -421 -9 -36 -14 -66 -12 -68 2 -2 82 14 177 36 270 64 696 137 916 157 84
8 81 -3 30 130 -136 354 -364 630 -668 812 -122 73 -394 207 -545 269 -218 89
-265 109 -405 176 -217 104 -309 166 -440 298 -178 179 -241 305 -320 636 -25
103 -32 160 -37 279 -3 83 -10 158 -15 168 -10 19 -43 22 -70 6z"/>
<path d="M5665 22585 c-83 -18 -225 -73 -252 -98 -45 -40 -25 -65 62 -78 99
-14 161 -53 289 -186 124 -127 180 -163 258 -163 86 0 142 38 188 127 39 76
29 150 -34 243 -41 61 -71 87 -136 120 -100 50 -244 64 -375 35z"/>
<path d="M18388 19610 c-483 -34 -1064 -136 -1483 -262 -55 -16 -134 -40 -175
-52 -280 -84 -692 -251 -1016 -412 -779 -387 -1466 -900 -2060 -1539 -101
-109 -309 -350 -359 -416 -11 -15 -55 -72 -97 -127 -179 -232 -419 -598 -562
-857 -76 -136 -259 -505 -304 -610 -97 -229 -127 -306 -181 -455 -72 -203
-142 -422 -176 -555 -14 -55 -35 -134 -46 -175 -85 -327 -158 -792 -190 -1220
-16 -207 -16 -775 0 -980 120 -1557 706 -2976 1701 -4115 57 -66 113 -129 125
-141 171 -175 266 -271 327 -330 98 -94 353 -315 457 -395 46 -35 107 -82 135
-103 104 -81 381 -269 514 -350 130 -79 440 -256 448 -256 2 0 72 -34 156 -75
83 -41 190 -92 237 -111 47 -20 120 -51 161 -69 41 -18 134 -53 205 -79 72
-26 141 -52 154 -57 26 -11 133 -45 306 -98 397 -121 937 -220 1400 -256 39
-3 95 -8 125 -11 102 -9 574 -12 740 -3 1011 52 1969 309 2885 775 247 125
662 373 820 489 335 246 461 346 680 540 292 259 672 668 911 981 121 159 308
428 374 539 29 50 72 117 94 150 46 69 148 256 270 495 71 142 111 228 236
520 93 216 214 590 295 915 83 329 91 366 126 579 116 700 129 1426 38 2116
-182 1375 -758 2655 -1660 3686 -246 281 -626 647 -863 829 -280 217 -466 349
-629 446 -56 34 -114 70 -128 80 -49 35 -356 202 -514 281 -165 82 -473 216
-605 263 -660 236 -1137 346 -1795 411 -178 18 -886 27 -1077 14z m2337 -715
c190 -57 402 -136 685 -255 391 -165 965 -501 1306 -766 28 -21 86 -67 130
-100 43 -34 89 -71 101 -83 12 -11 63 -55 115 -98 110 -91 468 -446 592 -587
151 -172 363 -443 353 -452 -2 -3 -50 17 -104 45 -97 48 -194 88 -378 156 -49
19 -112 42 -140 53 -27 10 -81 27 -119 37 -66 18 -77 26 -270 193 -221 192
-287 243 -561 435 -118 83 -324 221 -430 288 -66 41 -183 116 -260 166 -275
178 -1000 568 -1223 658 l-73 29 -51 91 c-28 49 -59 105 -70 123 -10 18 -36
65 -58 103 -22 39 -40 77 -40 84 0 14 258 -48 495 -120z m-4432 -249 c-4 -8
-71 -81 -149 -162 -77 -82 -171 -183 -208 -224 -66 -74 -70 -77 -319 -206
-280 -145 -441 -239 -595 -347 -109 -76 -488 -359 -607 -454 -197 -155 -559
-511 -629 -616 -22 -32 -48 -64 -60 -71 -34 -21 -184 -71 -192 -64 -18 19 317
417 566 672 577 591 1256 1067 2014 1413 164 74 193 84 179 59z m3932 -381
c245 -112 647 -324 1055 -558 268 -153 1021 -659 1242 -835 133 -106 134 -108
130 -337 -1 -99 -6 -270 -11 -380 -4 -110 -9 -342 -10 -515 -1 -296 -24 -708
-39 -721 -4 -4 -205 -56 -447 -118 -1158 -293 -1670 -427 -1838 -482 l-89 -29
-341 224 c-188 124 -584 383 -879 578 -296 194 -597 392 -670 439 l-133 87 0
118 c0 66 3 220 8 344 13 400 17 547 23 1015 7 515 8 553 21 566 5 5 378 133
829 285 450 151 869 292 929 313 61 21 117 39 126 40 9 0 51 -15 94 -34z
m-3768 -324 c42 -8 92 -16 218 -35 84 -13 417 -60 710 -101 182 -25 350 -49
375 -53 l45 -7 -4 -345 c-2 -190 -5 -354 -7 -365 -2 -11 -6 -337 -9 -725 l-6
-705 -72 -56 c-40 -31 -191 -143 -337 -249 -146 -107 -416 -304 -600 -438
-184 -135 -418 -306 -520 -381 -102 -74 -230 -168 -285 -208 -111 -81 -113
-82 -241 -59 -44 8 -110 19 -149 25 -38 6 -86 13 -105 17 -19 3 -147 23 -285
45 -137 22 -349 56 -470 75 -281 45 -684 106 -767 117 -15 1 -30 6 -33 9 -7 6
-10 68 -19 355 -3 83 -6 407 -6 719 l-1 567 45 67 c50 72 303 344 402 431 218
193 342 298 421 357 49 37 132 99 184 139 267 205 452 328 649 435 341 185
747 376 802 378 9 0 39 -4 65 -9z m6389 -3525 c110 -101 449 -503 588 -695
227 -313 475 -730 476 -799 1 -141 -136 -792 -289 -1367 -16 -60 -59 -225 -95
-365 -64 -250 -191 -708 -258 -925 l-34 -110 -129 -66 c-133 -67 -248 -117
-390 -171 -101 -38 -1116 -379 -1210 -407 -126 -37 -309 -80 -365 -87 l-55 -6
-115 166 c-63 92 -145 210 -182 264 -37 53 -81 117 -98 142 -101 145 -247 357
-330 477 -52 75 -201 286 -331 468 -306 429 -319 448 -319 464 0 8 11 48 25
90 13 42 101 328 195 636 216 710 220 721 274 895 24 80 51 168 59 195 8 28
43 140 77 250 33 110 75 245 91 300 17 55 38 122 47 149 l17 50 75 18 c341 81
726 176 1180 291 294 75 632 161 750 190 250 64 224 67 346 -47z m-8851 -335
c198 -36 717 -122 1475 -243 74 -12 138 -24 143 -28 4 -3 39 -100 78 -216 100
-296 694 -2058 735 -2181 l34 -103 -106 -192 c-59 -106 -138 -251 -176 -323
-39 -71 -105 -193 -148 -270 -104 -187 -410 -748 -553 -1015 -126 -233 -131
-241 -150 -235 -6 3 -93 19 -192 36 -99 17 -254 44 -345 60 -396 70 -466 82
-659 114 -112 19 -255 41 -319 50 -63 8 -116 16 -118 17 -13 14 -139 238 -196
351 -122 237 -185 379 -340 767 -160 400 -356 1029 -422 1360 -47 235 -51 204
52 381 161 277 471 816 704 1224 126 220 241 420 255 444 23 40 28 43 57 38
17 -3 103 -19 191 -36z m11264 -891 c20 -237 25 -635 12 -870 -64 -1148 -399
-2213 -1009 -3205 -95 -156 -282 -426 -377 -549 l-70 -89 -7 169 c-15 332 -78
771 -159 1101 l-39 162 39 133 c21 73 53 176 69 228 17 52 49 164 72 248 22
84 45 165 51 180 40 104 395 1539 434 1751 8 47 16 85 18 86 1 1 51 37 112 81
60 43 125 89 143 101 84 58 295 246 482 430 113 111 208 199 211 195 4 -4 12
-72 18 -152z m-13018 -1123 l57 -52 42 -185 c44 -196 194 -703 280 -955 153
-444 422 -1058 598 -1365 l60 -105 6 -250 c3 -164 11 -276 21 -325 8 -41 15
-81 15 -89 0 -27 -30 11 -117 148 -589 929 -923 1923 -1018 3034 -8 98 -15
182 -15 188 0 18 15 8 71 -44z m7407 -1261 c115 -171 302 -446 417 -611 443
-637 545 -784 624 -900 l82 -121 -24 -64 c-64 -170 -179 -382 -447 -830 -97
-162 -207 -349 -245 -415 -71 -126 -106 -182 -177 -280 l-44 -59 -124 -38
c-250 -75 -586 -143 -820 -168 -58 -6 -170 -17 -250 -25 -80 -9 -183 -20 -230
-25 -345 -38 -463 -44 -895 -45 -293 0 -446 4 -458 11 -29 17 -215 202 -307
305 -46 52 -86 96 -90 99 -7 6 -225 261 -291 340 -180 217 -601 817 -697 991
l-41 75 138 245 c76 134 171 305 211 379 125 230 346 635 642 1175 61 110 115
205 121 211 8 8 134 14 407 18 217 4 449 9 515 11 66 3 239 7 385 10 146 3
384 8 530 11 699 17 836 19 848 16 6 -2 106 -144 220 -316z m255 -3747 c23
-12 101 -55 174 -95 137 -76 415 -214 562 -278 115 -50 243 -95 469 -166 56
-17 100 -35 97 -40 -7 -12 -233 -103 -409 -164 -512 -180 -968 -281 -1561
-347 -174 -20 -254 -23 -615 -23 -267 0 -456 4 -530 12 -63 7 -142 15 -175 18
-228 20 -595 87 -880 159 -288 73 -595 171 -602 190 -1 6 32 33 74 60 132 85
364 262 458 349 l90 82 95 -7 c52 -4 262 -5 465 -4 369 3 503 11 910 54 190
21 238 26 350 36 250 24 639 95 840 154 123 36 135 36 188 10z"/>
<path d="M4306 17114 c-23 -23 -29 -58 -22 -122 24 -207 149 -529 265 -683 69
-93 203 -208 298 -255 75 -38 82 -39 178 -39 113 0 139 10 231 85 75 60 105
122 112 226 4 70 1 92 -18 144 -55 147 -149 203 -545 325 -188 58 -281 117
-377 238 -75 95 -77 97 -92 97 -8 0 -22 -7 -30 -16z"/>
<path d="M6380 16674 c-139 -60 -161 -245 -40 -329 72 -50 167 -43 235 17 76
66 75 211 -2 280 -50 46 -131 59 -193 32z"/>
</g>
</svg>
