<?xml version="1.0" standalone="no"?>
<!DOCTYPE svg PUBLIC "-//W3C//DTD SVG 20010904//EN"
 "http://www.w3.org/TR/2001/REC-SVG-20010904/DTD/svg10.dtd">
<svg version="1.0" xmlns="http://www.w3.org/2000/svg"
 width="3000.000000pt" height="3000.000000pt" viewBox="0 0 3000.000000 3000.000000"
 preserveAspectRatio="xMidYMid meet">

<g transform="translate(0.000000,3000.000000) scale(0.100000,-0.100000)"
fill="#000000" stroke="none">
<path d="M8410 27320 c-174 -22 -524 -126 -629 -186 -65 -38 -131 -93 -131
-109 0 -23 45 -28 123 -16 111 18 228 -9 384 -87 155 -78 231 -142 402 -336
251 -284 381 -375 539 -376 154 0 284 74 367 210 43 72 57 125 56 224 -1 104
-20 167 -89 294 -96 176 -215 270 -432 340 -36 12 -92 26 -125 32 -79 14 -382
21 -465 10z"/>
<path d="M5921 25691 c-6 -10 -15 -49 -20 -87 -6 -38 -15 -96 -22 -129 -17
-81 -17 -566 -1 -715 11 -103 33 -257 63 -440 72 -440 201 -810 398 -1140 135
-228 325 -459 577 -702 134 -129 242 -202 559 -376 228 -125 589 -240 945
-302 150 -26 243 -48 370 -88 188 -59 387 -152 490 -230 41 -30 98 -73 126
-94 70 -52 246 -218 333 -313 143 -156 260 -359 325 -563 45 -140 58 -197 101
-432 42 -231 50 -290 39 -290 -5 0 -35 33 -66 73 -78 99 -165 181 -295 279
-179 134 -389 248 -698 380 -253 108 -424 158 -625 182 -406 50 -597 43 -1240
-44 -80 -11 -190 -22 -245 -25 -179 -9 -307 -14 -485 -20 -96 -4 -191 -8 -211
-10 -73 -6 -474 47 -564 75 -363 114 -626 282 -994 634 -183 177 -453 460
-586 616 -834 985 -1435 1415 -2189 1566 -122 25 -149 26 -381 26 -137 -1
-275 -4 -305 -6 -30 -3 -163 -13 -294 -22 -246 -16 -286 -23 -286 -49 0 -26
46 -46 167 -70 216 -44 390 -110 604 -228 270 -149 489 -325 735 -592 189
-204 235 -260 308 -370 96 -144 134 -213 273 -495 151 -309 216 -453 388 -870
107 -258 129 -315 165 -425 18 -55 54 -147 81 -205 26 -58 60 -136 75 -175 85
-219 292 -581 431 -754 57 -71 226 -244 318 -326 157 -139 468 -355 635 -440
52 -26 111 -58 130 -70 19 -12 46 -25 60 -30 14 -4 39 -13 55 -19 17 -7 46
-18 65 -25 19 -7 64 -24 100 -37 36 -14 88 -32 115 -40 28 -8 64 -19 80 -24
213 -64 514 -97 980 -110 478 -13 729 -21 735 -25 3 -2 50 -8 105 -14 159 -18
181 -21 340 -47 323 -54 586 -132 795 -237 131 -65 341 -215 422 -300 67 -70
301 -382 367 -487 216 -348 387 -912 404 -1331 9 -224 -45 -599 -124 -857 -32
-105 -27 -106 -120 14 -168 219 -454 517 -629 656 -262 208 -659 441 -929 545
-223 85 -476 153 -656 176 -222 29 -653 15 -885 -29 -296 -55 -517 -139 -790
-299 -392 -229 -676 -467 -877 -734 -40 -53 -73 -100 -73 -105 0 -16 55 2 179
59 153 70 292 117 446 151 198 43 499 45 685 4 446 -99 595 -166 988 -447 123
-88 179 -141 361 -342 429 -475 584 -713 992 -1521 284 -563 434 -912 624
-1455 79 -224 173 -482 274 -749 50 -132 89 -242 86 -244 -2 -3 -35 22 -72 55
-261 229 -582 465 -881 647 -623 378 -1084 562 -1532 611 -141 15 -416 13
-580 -5 -93 -10 -336 -66 -525 -122 -149 -43 -484 -229 -499 -276 -17 -52 36
-77 141 -67 72 7 312 -8 403 -26 286 -55 508 -127 695 -226 148 -78 369 -231
484 -336 122 -111 314 -355 434 -549 135 -220 320 -552 361 -650 24 -57 67
-159 96 -228 29 -69 70 -163 92 -210 22 -47 59 -132 83 -190 135 -325 349
-753 496 -988 82 -133 246 -350 351 -466 188 -208 540 -543 663 -631 22 -16
56 -43 75 -60 19 -18 60 -47 90 -65 328 -198 415 -250 424 -250 5 0 53 -20
105 -45 147 -68 409 -162 544 -195 231 -55 546 -87 762 -76 154 8 289 24 480
60 77 14 155 28 173 31 18 3 32 12 32 20 0 7 -19 46 -43 87 -24 40 -66 116
-94 168 -29 52 -70 129 -93 170 -40 73 -80 154 -210 425 -300 627 -575 1433
-736 2156 -255 1150 -321 2376 -189 3524 3 22 10 81 15 130 42 362 139 882
242 1290 66 262 193 694 258 875 23 63 61 170 86 238 24 68 59 160 78 205 19
45 73 181 121 302 47 121 104 261 125 310 22 50 67 169 100 265 104 300 133
371 308 775 229 529 260 605 349 850 171 472 261 775 347 1155 93 416 110 529
126 840 24 479 5 789 -74 1225 -54 296 -179 664 -308 905 -56 105 -190 314
-276 430 -260 347 -848 757 -1292 899 -314 100 -609 144 -970 144 -266 0 -480
-19 -900 -82 -69 -11 -172 -25 -230 -31 -58 -6 -168 -21 -245 -32 -189 -28
-445 -30 -565 -5 -222 48 -411 114 -630 219 -170 81 -186 91 -330 192 -217
154 -415 347 -554 541 -69 96 -224 331 -267 405 -123 210 -200 439 -233 699
-10 76 -20 119 -32 132 -22 25 -70 25 -83 0z"/>
<path d="M12348 25679 c-151 -12 -504 -75 -708 -125 -244 -60 -411 -115 -725
-239 -143 -57 -305 -119 -360 -138 -120 -43 -454 -170 -667 -256 -31 -12 -37
-31 -10 -31 10 0 54 5 98 10 67 9 106 7 225 -10 228 -33 378 -60 459 -82 41
-11 122 -34 180 -50 591 -164 1093 -407 1475 -713 262 -210 470 -497 740
-1020 217 -422 386 -910 465 -1347 7 -40 19 -73 31 -84 18 -16 19 -15 28 9 6
15 23 88 37 164 26 131 28 152 27 418 -2 499 -55 1009 -149 1440 -45 205 -90
356 -170 566 -35 93 -64 174 -64 180 0 69 316 -503 410 -742 11 -26 35 -80 54
-120 19 -41 62 -132 94 -204 79 -173 253 -553 341 -744 39 -85 100 -204 135
-265 34 -61 85 -149 111 -196 142 -253 341 -450 675 -670 231 -152 557 -268
849 -301 133 -15 270 -5 471 36 199 41 336 92 622 234 259 129 397 208 552
319 81 58 206 169 206 182 0 4 -7 11 -16 14 -23 9 -291 34 -439 41 -182 9
-410 65 -595 145 -171 75 -415 264 -568 441 -182 208 -294 364 -470 654 -47
77 -153 244 -235 370 -83 127 -168 259 -191 295 -181 284 -430 640 -549 785
-102 124 -244 270 -336 346 -53 44 -114 95 -137 113 -183 154 -521 326 -814
416 -58 18 -118 39 -135 46 -49 23 -229 72 -326 89 -83 15 -394 36 -484 33
-22 0 -84 -4 -137 -9z"/>
<path d="M16461 25602 c-65 -68 -219 -374 -290 -575 -34 -96 -86 -335 -95
-437 -22 -249 -17 -427 20 -637 40 -234 182 -556 325 -737 93 -118 228 -241
332 -304 112 -67 304 -137 470 -172 242 -51 483 -127 622 -198 152 -78 326
-267 387 -421 18 -46 22 -75 21 -166 0 -72 -6 -127 -16 -160 -9 -27 -13 -53
-9 -57 4 -4 68 8 142 27 187 48 588 130 783 161 89 14 171 27 182 30 11 2 96
13 188 23 93 11 171 21 173 24 17 17 -147 397 -241 557 -103 176 -302 406
-461 533 -160 128 -630 384 -919 501 -456 184 -791 369 -957 528 -279 267
-378 459 -482 928 -36 163 -45 235 -47 400 -2 165 -10 190 -61 190 -23 0 -40
-10 -67 -38z"/>
<path d="M3981 24985 c-85 -19 -153 -42 -229 -76 -34 -16 -66 -29 -70 -29 -19
-1 -62 -52 -62 -73 0 -35 18 -45 100 -57 138 -20 206 -68 435 -311 87 -92 108
-109 160 -128 46 -18 74 -22 120 -18 100 7 157 50 214 158 52 96 44 190 -24
304 -66 110 -156 180 -282 221 -69 22 -281 28 -362 9z"/>
<path d="M20395 21093 c-951 -31 -1856 -207 -2740 -533 -1051 -387 -2042 -986
-2885 -1744 -169 -151 -520 -500 -631 -626 -46 -52 -89 -99 -95 -105 -55 -50
-381 -451 -531 -655 -170 -230 -377 -539 -480 -715 -38 -66 -93 -157 -121
-201 -28 -45 -74 -128 -103 -185 -28 -57 -72 -140 -97 -184 -124 -218 -385
-812 -497 -1130 -30 -82 -65 -184 -80 -225 -15 -41 -35 -102 -45 -135 -10 -33
-41 -136 -69 -230 -120 -394 -216 -826 -285 -1280 -202 -1324 -130 -2653 215
-3952 217 -821 576 -1671 1008 -2388 205 -341 511 -781 711 -1020 36 -44 100
-120 140 -170 197 -239 597 -650 874 -895 197 -174 397 -336 582 -470 275
-199 341 -245 446 -311 62 -39 136 -86 163 -104 202 -131 739 -418 980 -523
39 -17 131 -58 205 -90 75 -33 147 -63 160 -67 24 -7 188 -68 280 -105 116
-46 494 -161 724 -220 1662 -428 3404 -337 5056 265 931 339 1840 863 2620
1510 91 76 185 156 210 179 25 23 99 91 165 150 189 171 461 451 670 691 138
158 346 409 390 472 17 22 84 114 149 203 135 183 331 477 410 614 29 50 79
134 112 186 108 173 396 736 496 970 92 215 172 412 212 525 24 66 55 154 70
195 157 438 309 1029 401 1555 59 345 103 745 126 1146 15 273 6 960 -15 1219
-92 1086 -327 2054 -736 3020 -150 355 -400 844 -596 1165 -462 756 -1034
1447 -1659 2004 -616 548 -1229 964 -1940 1316 -148 73 -297 145 -330 158 -33
14 -98 42 -145 62 -293 127 -787 297 -1105 379 -55 14 -127 32 -160 41 -74 20
-353 79 -494 105 -231 44 -538 83 -896 115 -161 14 -636 24 -840 18z m2253
-849 c370 -99 753 -231 1042 -358 47 -21 117 -51 155 -68 97 -42 512 -251 610
-306 179 -101 496 -295 590 -361 47 -33 94 -66 280 -199 101 -71 432 -339 585
-473 247 -216 602 -582 846 -875 139 -166 390 -492 401 -520 10 -26 -22 -15
-158 55 -151 77 -213 105 -349 155 -52 19 -129 49 -170 66 -88 36 -187 70
-285 99 -59 17 -81 30 -130 77 -114 107 -462 414 -526 464 -78 61 -238 179
-322 238 -34 24 -80 58 -102 76 -32 26 -197 141 -395 276 -619 422 -1075 694
-1685 1004 -121 62 -251 125 -290 141 -38 16 -75 33 -82 39 -19 17 -283 504
-283 522 0 19 -1 19 268 -52z m-5238 -414 c0 -10 -109 -137 -216 -250 -28 -30
-79 -86 -114 -125 -34 -38 -79 -88 -99 -110 -20 -22 -53 -61 -73 -86 -32 -40
-71 -65 -250 -162 -117 -63 -247 -131 -288 -152 -67 -34 -272 -157 -423 -256
-78 -50 -317 -226 -436 -320 -53 -41 -145 -113 -206 -159 -60 -46 -139 -108
-174 -139 -36 -31 -92 -78 -125 -104 -254 -202 -643 -603 -802 -825 -24 -35
-50 -65 -57 -67 -7 -2 -56 -20 -110 -40 -149 -55 -152 -51 -52 85 362 493 909
1071 1390 1469 242 200 731 556 905 657 19 12 85 51 145 89 128 79 352 203
510 283 137 69 457 221 468 222 4 0 7 -5 7 -10z m4925 -497 c99 -46 445 -223
484 -248 21 -12 75 -42 122 -65 83 -42 583 -327 794 -453 61 -36 173 -108 250
-161 77 -52 250 -170 385 -261 307 -207 394 -268 445 -309 22 -18 67 -51 100
-74 120 -82 273 -199 378 -287 158 -132 153 -116 150 -455 -2 -151 -5 -291 -7
-310 -5 -38 -14 -515 -20 -1010 -4 -265 -27 -693 -41 -756 -5 -23 4 -20 -390
-124 -104 -27 -224 -59 -265 -70 -139 -37 -731 -193 -950 -250 -508 -133
-1161 -316 -1295 -362 -49 -17 -97 -31 -106 -30 -9 0 -52 25 -95 54 -200 137
-540 369 -649 443 -114 78 -426 290 -695 473 -69 47 -204 139 -300 205 -96 65
-247 168 -335 228 -88 60 -227 155 -310 210 -82 56 -158 109 -169 118 -21 18
-21 -18 3 616 9 232 13 407 26 1320 3 187 8 431 11 543 6 185 8 203 25 213 11
5 135 50 277 99 141 48 388 134 547 190 160 56 353 123 430 150 140 48 923
322 1045 365 83 30 84 30 155 -2z m-4523 -477 c263 -43 393 -63 693 -106 440
-64 639 -92 710 -101 44 -6 85 -15 93 -21 10 -9 12 -42 8 -152 -3 -78 -8 -328
-12 -556 -4 -228 -10 -581 -14 -785 -4 -203 -7 -580 -5 -837 2 -333 -1 -472
-9 -482 -6 -7 -141 -112 -301 -232 -159 -120 -468 -353 -685 -518 -421 -320
-555 -422 -825 -625 -93 -71 -268 -203 -389 -295 -233 -177 -232 -177 -321
-156 -22 5 -85 16 -140 24 -55 8 -127 20 -160 25 -33 6 -78 13 -100 16 -22 4
-78 13 -125 21 -47 8 -101 17 -120 20 -19 3 -233 39 -475 80 -242 41 -483 81
-535 89 -52 8 -167 26 -255 40 -88 14 -212 33 -275 41 -190 25 -186 24 -182
68 2 21 -2 61 -7 89 -6 32 -13 429 -16 1035 l-6 983 38 62 c58 97 94 141 251
311 182 198 280 296 374 377 40 34 120 105 177 158 57 53 142 127 190 164 47
38 151 122 231 187 80 64 191 151 246 191 56 41 134 100 175 131 66 50 432
288 444 288 2 0 28 14 57 31 29 18 112 62 183 98 72 37 213 111 314 166 170
91 442 212 483 214 10 1 140 -19 290 -43z m7785 -4508 c71 -54 88 -71 208
-203 118 -130 522 -641 631 -797 251 -361 553 -874 594 -1009 9 -30 -6 -154
-51 -434 -46 -283 -108 -562 -299 -1340 -49 -198 -116 -472 -150 -610 -33
-137 -83 -329 -110 -425 -27 -96 -72 -258 -100 -360 -81 -297 -135 -477 -148
-492 -16 -19 -278 -153 -433 -221 -189 -84 -434 -175 -776 -291 -169 -57 -427
-147 -573 -199 -412 -147 -861 -271 -918 -253 -9 4 -297 426 -640 939 -574
859 -678 1013 -798 1182 -126 177 -314 462 -314 475 0 8 11 48 25 90 13 41 35
113 49 160 179 607 271 916 286 970 19 65 55 186 105 355 15 50 37 126 50 170
31 109 80 275 185 630 247 835 290 979 295 983 2 2 206 55 452 117 246 63 525
134 618 158 94 25 319 84 500 132 182 48 386 102 455 120 69 18 224 59 345 90
121 32 267 70 325 86 58 15 108 28 112 28 4 1 37 -22 75 -51z m-11225 -498
c139 -28 604 -109 1368 -238 195 -33 455 -77 578 -98 172 -29 225 -42 232 -54
5 -10 86 -253 179 -541 93 -288 176 -544 184 -569 9 -25 65 -200 127 -390 61
-190 147 -453 190 -585 43 -132 147 -451 231 -710 l152 -470 -58 -110 c-118
-224 -350 -665 -435 -825 -272 -511 -715 -1357 -832 -1587 -40 -79 -77 -144
-83 -147 -6 -2 -65 7 -131 19 -65 13 -247 47 -404 75 -157 28 -334 60 -395 71
-672 123 -943 169 -1095 185 -30 3 -58 9 -62 13 -35 33 -273 491 -387 743
-117 260 -356 868 -449 1143 -68 201 -260 855 -313 1066 -76 304 -122 587
-101 617 6 9 86 152 178 317 92 165 296 532 454 815 158 283 349 628 425 765
75 138 171 312 213 388 42 75 79 137 83 137 3 0 72 -13 151 -30z m14352 -1012
c10 -68 27 -334 36 -564 17 -431 -7 -957 -66 -1449 -15 -126 -78 -499 -115
-680 -112 -554 -274 -1086 -480 -1586 -38 -92 -69 -169 -69 -172 0 -3 -54
-122 -121 -264 -131 -278 -211 -431 -382 -728 -107 -185 -413 -659 -466 -721
-14 -17 -51 -65 -81 -107 -30 -43 -59 -76 -64 -74 -6 2 -11 71 -13 168 -5 308
-44 665 -122 1109 -32 185 -91 454 -117 532 -15 45 -14 49 19 160 90 294 228
788 313 1113 148 571 435 1777 480 2015 40 216 39 213 76 235 18 10 74 51 123
90 50 39 119 91 155 117 158 112 652 583 840 801 18 20 36 37 41 37 4 0 10
-15 13 -32z m-16440 -1657 l68 -68 33 -159 c44 -211 71 -317 165 -644 190
-665 278 -919 542 -1575 126 -315 297 -677 448 -952 l50 -91 4 -294 c4 -276
15 -405 45 -539 10 -44 1 -57 -22 -31 -31 36 -250 397 -343 569 -607 1111
-957 2290 -1064 3583 -11 129 -20 243 -20 253 0 31 25 18 94 -52z m9201 -1403
c61 -92 155 -238 210 -325 55 -87 385 -584 733 -1105 347 -521 632 -954 632
-962 0 -27 -73 -202 -154 -371 -90 -186 -268 -510 -466 -845 -69 -118 -170
-296 -224 -395 -54 -99 -115 -207 -134 -240 -58 -97 -193 -299 -206 -306 -21
-12 -421 -130 -488 -143 -12 -3 -86 -19 -163 -36 -187 -41 -400 -75 -625 -99
-1078 -118 -1009 -113 -1625 -117 -291 -2 -548 0 -570 3 -36 5 -56 21 -180
148 -258 261 -733 831 -947 1135 -210 300 -369 531 -424 616 -31 49 -80 125
-109 169 -73 112 -175 299 -175 319 0 9 11 33 23 54 32 50 274 498 377 697 45
88 109 207 140 265 31 58 94 177 140 265 46 88 154 293 240 455 86 162 191
360 232 440 41 80 114 218 162 308 l88 162 62 1 c33 0 79 2 101 4 22 1 207 5
410 9 204 4 426 9 495 11 123 4 356 10 875 20 143 3 312 7 375 10 63 2 279 7
480 11 201 4 366 7 367 8 2 1 56 2 120 2 l118 -1 110 -167z m468 -5154 c29
-15 126 -70 217 -122 187 -108 398 -217 641 -332 206 -98 245 -113 549 -215
146 -49 245 -88 245 -95 0 -28 -526 -233 -881 -344 -640 -198 -1294 -318
-1948 -356 -338 -19 -898 -10 -1156 20 -47 5 -112 12 -145 15 -528 51 -1109
180 -1708 382 -156 52 -209 75 -197 85 3 3 57 40 120 83 63 44 151 107 195
142 44 34 118 92 165 128 47 36 138 116 203 176 l117 111 63 -6 c194 -19 812
-22 1057 -7 201 13 473 37 636 56 71 9 192 22 269 30 317 33 427 45 560 65
270 40 597 109 800 170 72 21 134 39 138 39 4 1 31 -11 60 -25z"/>
<path d="M2248 17809 c-42 -24 -43 -135 -3 -315 78 -351 214 -648 379 -834
204 -229 422 -336 612 -300 121 23 267 140 322 258 25 52 27 68 27 182 0 124
0 126 -37 200 -20 41 -55 94 -77 117 -76 78 -227 153 -451 222 -423 132 -501
183 -693 456 -19 26 -49 32 -79 14z"/>
<path d="M4910 17240 c-75 -14 -146 -74 -177 -149 -31 -74 -13 -192 38 -255
39 -46 121 -86 178 -86 102 0 208 83 231 179 44 183 -97 346 -270 311z"/>
</g>
</svg>
