<?xml version="1.0" standalone="no"?>
<!DOCTYPE svg PUBLIC "-//W3C//DTD SVG 20010904//EN"
 "http://www.w3.org/TR/2001/REC-SVG-20010904/DTD/svg10.dtd">
<svg version="1.0" xmlns="http://www.w3.org/2000/svg"
 width="3000.000000pt" height="3000.000000pt" viewBox="0 0 3000.000000 3000.000000"
 preserveAspectRatio="xMidYMid meet">

<g transform="translate(0.000000,3000.000000) scale(0.100000,-0.100000)"
fill="#000000" stroke="none">
<path d="M12105 27339 c-970 -39 -1984 -264 -2859 -634 -409 -174 -539 -240
-621 -319 -42 -39 -45 -46 -45 -93 0 -44 4 -55 30 -76 69 -58 152 -60 430 -8
321 60 376 65 755 65 307 0 369 -3 508 -22 538 -76 865 -180 1202 -383 353
-213 851 -628 1072 -892 154 -185 340 -493 429 -713 617 -1518 719 -3344 278
-4988 -181 -677 -487 -1365 -844 -1896 -197 -294 -361 -493 -604 -735 -294
-293 -529 -472 -852 -650 -204 -112 -500 -228 -704 -276 -47 -11 -92 -22 -102
-25 -24 -7 -177 123 -374 320 -393 394 -690 817 -973 1388 -387 783 -628 1677
-705 2618 -59 712 -35 1333 79 2035 83 510 225 1033 404 1480 96 243 103 259
232 521 115 237 136 307 106 368 -20 43 -60 70 -101 70 -57 -1 -140 -53 -380
-239 -823 -641 -1515 -1365 -2147 -2248 -170 -238 -390 -573 -506 -771 -36
-61 -98 -167 -138 -236 -81 -138 -272 -495 -340 -635 -151 -312 -225 -478
-345 -764 -500 -1199 -823 -2489 -965 -3856 -74 -712 -91 -1526 -49 -2280 15
-271 72 -867 99 -1045 8 -52 26 -180 40 -285 15 -104 30 -208 35 -230 5 -22
32 -161 61 -310 212 -1122 581 -2243 1077 -3267 1011 -2088 2553 -3773 4365
-4770 618 -339 1483 -703 2037 -857 338 -94 391 -103 683 -121 285 -18 449 9
516 86 86 98 87 187 1 300 -80 106 -218 185 -520 300 -91 34 -210 80 -265 103
-55 22 -156 62 -225 90 -534 212 -1337 685 -1690 996 -101 89 -361 347 -488
484 -1027 1112 -1846 2654 -2291 4316 -73 274 -79 299 -126 508 -245 1101
-343 2224 -285 3267 36 645 126 1281 262 1843 17 70 34 127 37 127 4 0 22 -46
40 -102 323 -995 812 -1870 1431 -2563 248 -277 621 -611 875 -782 151 -101
366 -185 590 -228 256 -50 406 -56 674 -25 304 35 560 93 831 190 80 29 233
82 340 120 383 133 629 236 920 387 712 369 1351 845 1991 1483 435 434 721
771 1141 1345 80 110 295 433 410 615 121 192 296 497 423 735 143 267 392
790 475 994 10 26 35 84 55 131 92 216 276 713 359 968 10 28 21 52 24 52 15
0 211 -407 338 -703 499 -1160 797 -2422 889 -3757 22 -317 30 -959 16 -1275
-41 -925 -169 -1765 -400 -2625 -164 -608 -208 -857 -190 -1078 15 -193 48
-299 130 -418 85 -122 242 -227 429 -285 63 -20 96 -24 205 -24 72 1 164 7
205 14 171 30 429 151 750 351 90 56 142 87 420 251 587 344 1172 822 1689
1377 73 79 135 141 138 139 6 -7 -70 -330 -133 -558 -180 -661 -383 -1242
-649 -1854 -512 -1178 -1221 -2284 -1989 -3100 -72 -77 -151 -162 -176 -188
-61 -66 -350 -333 -485 -448 -371 -319 -782 -596 -1205 -815 -121 -62 -173
-113 -196 -189 -18 -65 -14 -105 18 -151 60 -87 136 -99 583 -91 395 7 484 18
845 99 234 53 517 136 670 196 176 69 365 145 500 199 168 68 551 265 730 375
680 417 1311 974 1911 1688 584 695 1133 1553 1563 2442 127 263 131 271 239
513 112 252 316 764 382 960 13 39 47 135 75 215 117 334 279 886 390 1330 88
350 211 964 260 1290 5 36 19 124 29 195 61 405 112 914 136 1366 17 307 23
980 11 1251 -32 707 -110 1354 -238 1953 -22 105 -49 230 -59 279 -38 177
-129 445 -202 591 -142 287 -389 543 -627 651 -84 38 -174 56 -279 55 -151 -2
-203 -43 -222 -178 -10 -69 -43 -420 -59 -624 -5 -64 -14 -136 -19 -160 -5
-24 -19 -132 -31 -239 -31 -289 -76 -567 -132 -820 -92 -411 -106 -474 -132
-555 -95 -308 -141 -446 -186 -560 -28 -71 -62 -159 -75 -195 -46 -132 -316
-714 -355 -765 -4 -5 -27 -48 -51 -95 -24 -47 -92 -166 -153 -265 -245 -404
-506 -742 -807 -1045 -155 -155 -342 -314 -483 -410 -42 -28 -76 -45 -76 -39
0 16 22 139 70 384 79 407 165 1086 194 1535 9 129 18 262 21 295 3 33 10 215
15 405 13 450 -5 1061 -45 1545 -33 390 -121 1039 -185 1369 -21 110 -44 230
-50 266 -44 256 -245 1031 -352 1360 -28 85 -70 214 -93 285 -132 403 -347
935 -565 1395 -927 1958 -2336 3587 -3995 4616 -542 337 -1136 625 -1680 816
-295 103 -290 101 -560 177 -457 129 -984 226 -1465 270 -208 19 -675 43 -773
39 -23 0 -136 -5 -252 -9z"/>
</g>
</svg>
