<?xml version="1.0" encoding="iso-8859-1"?>
<!-- Uploaded to: SVG Repo, www.svgrepo.com, Generator: SVG Repo Mixer Tools -->
<svg fill="#000000" height="800px" width="800px" version="1.1" id="Layer_1" xmlns="http://www.w3.org/2000/svg" xmlns:xlink="http://www.w3.org/1999/xlink" 
	 viewBox="0 0 512 512" xml:space="preserve">
<g>
	<g>
		<g>
			<path d="M187.067,41.984h26.649c2.692,0,5.016-1.886,5.571-4.521h73.428c0.555,2.635,2.878,4.521,5.571,4.521h26.649
				c3.615,0,6.315-3.327,5.571-6.865l-4.258-20.244C324.424,6.206,316.775,0,307.916,0H204.085c-8.859,0-16.506,6.206-18.331,14.875
				l-4.258,20.244C180.752,38.657,183.451,41.984,187.067,41.984z"/>
			<path d="M400.536,177.607h-289.07c-6.897,0-12.488,5.592-12.488,12.488v303.174c0,10.345,8.387,18.732,18.732,18.732h276.582
				c10.345,0,18.732-8.387,18.732-18.732V190.094C413.023,183.197,407.433,177.607,400.536,177.607z M201.509,443.778
				c0,5.174-4.192,9.366-9.366,9.366s-9.366-4.192-9.366-9.366V249.595c0-5.174,4.192-9.366,9.366-9.366s9.366,4.192,9.366,9.366
				V443.778z M265.366,443.778c0,5.174-4.192,9.366-9.366,9.366s-9.366-4.192-9.366-9.366V249.595c0-5.174,4.192-9.366,9.366-9.366
				s9.366,4.192,9.366,9.366V443.778z M329.224,443.778c0,5.174-4.192,9.366-9.366,9.366s-9.366-4.192-9.366-9.366V249.595
				c0-5.174,4.192-9.366,9.366-9.366s9.366,4.192,9.366,9.366V443.778z"/>
			<path d="M430.536,60.716c-14.722,0-334.352,0-349.073,0c-10.345,0-18.732,8.387-18.732,18.732v60.716
				c0,10.214,8.178,18.502,18.341,18.712h349.855c10.163-0.21,18.341-8.499,18.341-18.712V79.447
				C449.268,69.103,440.881,60.716,430.536,60.716z"/>
		</g>
	</g>
</g>
</svg>